<?xml version="1.0" encoding="UTF-8"?>
<svg id="Layer_2" data-name="Layer 2" xmlns="http://www.w3.org/2000/svg" viewBox="0 0 149.79 35.76">
  <g id="Layer_1-2" data-name="Layer 1">
    <g>
      <path d="M14.86.16c5.1.57,9.13,5.69,6.1,10.5l-1.78,1.68c6.29,1.23,7.29,9.64,1.65,12.52-.59.3-2.66,1.1-3.21,1.1H.48V.16C5.04.53,10.4-.34,14.86.16ZM6.23,10.67h7.79c1.09,0,2.31-1.87,2.26-2.97-.04-.91-1.41-2.53-2.26-2.53h-7.79v5.5ZM6.23,21.19h9.46c.25,0,1.49-.43,1.79-.61,1.56-.93,1.73-3.46.24-4.52-.16-.11-1.23-.61-1.31-.61H6.23v5.73Z"/>
      <path d="M95.85.16l1.81.46c9.71,3.49,6.42,16.93-3.85,15.78l-.12.47,10.01,6.74.05,2.34h-6.59c-.74,0-10.08-8.23-11.86-8.84v8.84h-5.75V.16h16.29ZM85.3,11.87h8.75c.3,0,1.83-.51,2.16-.72,1.7-1.07,1.74-3.5.24-4.78-.15-.13-1.13-.71-1.2-.71h-9.94v6.21Z"/>
      <polygon points="48.64 .16 48.64 5.42 34.5 5.42 34.5 10.19 47.68 10.19 47.68 15.45 34.5 15.45 34.5 20.71 48.88 20.71 48.88 25.96 28.75 25.96 28.75 .16 48.64 .16"/>
      <polygon points="74.04 .16 74.04 5.42 60.02 5.42 59.66 5.77 59.66 9.84 60.02 10.19 73.08 10.19 73.08 15.45 59.66 15.45 59.66 20.71 74.28 20.71 74.28 25.96 54.15 25.96 54.15 .16 74.04 .16"/>
      <path d="M125.32.16v5.02h-11.02l-.24,3.82c7.1-2.07,13.84,1.47,13.17,9.43-.89,10.58-18.47,10.87-19.88.36l5.59-.49c1.87,4.97,9.69,3.62,8.73-1.97-.78-4.55-7.9-3.59-10.85-1.86l-2.16-1.42,1.08-12.9h15.58Z"/>
      <rect x="131.31" y=".16" width="18.21" height="5.26"/>
      <path d="M101.36,35.76h-2.4c-4.77-2.13-.44-8.5,3.2-5.46,1.96,1.63,1.16,4.28-.8,5.46Z"/>
      <path d="M22.04,35.76h-2.4c-2.68-1.12-2.65-5.33.23-6.1,3.98-1.05,5.71,4.17,2.16,6.1Z"/>
      <path d="M92.49,35.76h-2.4c-2.68-1.12-2.65-5.33.23-6.1,3.98-1.05,5.71,4.17,2.16,6.1Z"/>
      <path d="M4.31,35.76H1.92c-.79-.63-1.47-1.22-1.92-2.15v-1.91c3.16-5.46,9.6.72,4.31,4.06Z"/>
      <path d="M10.78,35.76c-3.17-1.49-2.26-6.34,1.32-6.23s4.14,4.83,1.08,6.23h-2.4Z"/>
      <path d="M81.23,35.76c-3.17-1.49-2.26-6.34,1.32-6.23s4.14,4.83,1.08,6.23h-2.4Z"/>
      <path d="M138.02,30.5h11.5v5.02h-17.01s-.03-.39-.23-.59c-.67-.68-1.19-.86-1.23-1.91-.27-7.12,7.47-8.81,11.53-12.66,5.39-5.12-4.67-9.07-6.48-2.51l-5.01-3.01c3.96-8.71,20.36-7.26,18.57,3.98-.9,5.66-7.2,6.83-10.55,10.03-.43.41-1,1.05-1.08,1.67Z"/>
      <rect x="28.75" y="30.26" width="20.13" height="5.26"/>
      <rect x="54.15" y="30.26" width="20.13" height="5.26"/>
      <rect x="108.07" y="30.26" width="18.69" height="5.26"/>
    </g>
  </g>
</svg>