<?xml version="1.0" encoding="UTF-8"?>
<svg id="Layer_2" data-name="Layer 2" xmlns="http://www.w3.org/2000/svg" viewBox="0 0 723.45 189.32">
  <g id="Layer_1-2" data-name="Layer 1">
    <g>
      <path d="M583.36,118.92v-16c-3.63.92-5.45,5.24-8.53,7.97-16.6,14.71-47.72,14.84-56.65-8.28-.59-1.54-2.81-9.15-2.81-10.19V2.92h27.5l1.5,1.5v86c0,1.19,4.26,9.27,5.5,10.5,10.72,10.65,27.32-2.67,33.5-12.5V4.42l1.5-1.5h26l1.5,1.5v113l-1.5,1.5h-27.5Z"/>
      <path d="M214.36,118.92h-29v-17c-11.71,16.06-32.19,24.55-51.23,15.73-9.06-4.2-16.77-17.36-16.77-27.23V4.42l1.5-1.5h26l1.5,1.5v84c0,.4,2.08,6.68,2.48,7.52,6.52,13.56,21.66,8.97,30.56.52.76-.72,5.96-6.58,5.96-7.04V4.42l1.5-1.5h26l1.5,1.5v114.5Z"/>
      <path d="M440.15.22c50.17-3.81,69.84,41.63,57.69,84.69-13.45,47.65-87.1,49.9-104.25,5.27-15.17-39.47-.35-86.39,46.56-89.96ZM439.09,10.16c-5.3.98-9.93,6.16-12.29,10.71-8.82,17-9.25,67.41,1.72,83.39,6.24,9.09,18.4,11.64,27.33,4.66,16.53-12.9,14.85-70.59,5.89-87.89-4.94-9.55-11.78-12.89-22.66-10.88Z"/>
      <path d="M235.36,2.92c14.36.59,29.23-.77,43.54-.04,12.23.63,28.06,2.42,37.93,10.07,16.75,12.98,14.51,39.98-4.46,49.49l-20.01,6.97c6.46,5.06,14.99,4.72,22.51,6.5l15.48,43.02h-29.5l-20-50h-16.5v48.5l-1.5,1.5h-27.5V2.92ZM263.36,59.92h15.5c1.37,0,8.29-3.15,9.83-4.17,11.88-7.84,12.08-30.09.6-38.27-1.17-.84-8.65-4.57-9.43-4.57h-16.5v47Z"/>
      <path d="M655.36,85.92c-.3,18.87,7.28,29.12,27.26,25.76,16.34-2.75,16.8-21.91,4.07-30.6-19.18-13.09-60.18-15.28-58.33-47.64,2.06-35.99,55.58-40.09,78.92-24.96,9.7,6.28,12.79,16.43,14.07,27.43h-30c1.26-12.28-1.48-24.34-15.61-25.88-20.59-2.25-29.71,17.42-11.69,28.69,20.91,13.07,61.88,15.99,59.28,49.69-2.41,31.28-37.32,35.68-62.36,32.39-19.47-2.56-35.3-13.31-33.62-34.88h28Z"/>
      <path d="M104.36,38.92h-29C78.37,4.27,39.54-1.53,31.85,32.91c-4.05,18.13-2.14,49,13.03,61.99,13.59,11.63,34.51,11.21,49.39,2.44,5.08-2.99,5.86-7.62,12.06-3.38-13.5,27.98-52.89,34.28-78.65,20.13C-9.72,93.54-9.16,26.38,28.98,7.05,55.98-6.64,106.82-.15,104.36,38.92Z"/>
      <rect x="345.36" y="2.92" width="29" height="116"/>
      <path d="M184.86,153.92h20c2.56,0,10.76,2.3,11.98,5.01,2.8,6.23-2.34,10.5-2.33,11.49,0,1.19,6.98,4.3,3.92,12.06-1.33,3.37-7.39,6.44-10.57,6.44h-23l-1.5-1.5v-32l1.5-1.5ZM206.86,159.92c-4.59-.62-10.25.45-15,0-1.75,0-2.52,6.82,0,8h15c4.72,0,5.73-7.23,0-8ZM190.36,182.92h18.5c4.81,0,3.98-9,1-9h-19.5v9Z"/>
      <path d="M352.22,154.06c1.03.65,4.61,16.99,5.69,19.86.48,1.28-.04,2.41,1.94,2.01l5.99-21.02,6.42-.88,6.6,22.91,6.6-22.91,5.9-.1c-.78,4.54-8.1,33.32-9.96,34.54-.95.62-5.37.85-5.95.36-1.08-.92-3.64-20.23-6.6-22.89l-6.63,22.86-6.39-.85-9.48-34.01,5.86.14Z"/>
      <path d="M261.86,153.92c6.51.64,13.52,2.55,13.51,10.5,0,8.1-8.92,10.17-8.99,10.99l8.97,13.5c-9.25,2.1-12.54-7.71-17.21-13.77l-10.79-.22v14c-2.43-.07-5.38.76-7-1.5v-32l1.5-1.5c6.46.46,13.65-.63,20,0ZM247.36,169.92h15.5c6.52,0,7.21-10,2-10h-17.5v10Z"/>
      <path d="M484.86,153.92c8.91.94,17.24,5.93,11.91,15.92-1.71,3.22-7.86,4.57-7.4,6.55.22.96,10.25,11.45,8.98,12.53-9.89,2.55-12.02-7.55-17.21-13.77l-10.79-.22v14h-7v-35c6.9.53,14.73-.72,21.5,0ZM487.86,159.92c-4.99-.91-12.22.66-17.5,0v10h15.5c5.95,0,7.52-9,2-10Z"/>
      <polygon points="328.36 159.92 304.36 159.92 304.36 167.92 324.36 167.92 324.36 173.92 304.36 173.92 304.36 182.92 328.36 182.92 328.36 188.92 297.36 188.92 297.36 153.92 326.86 153.92 328.36 159.92"/>
      <polygon points="442.36 153.92 442.36 159.92 418.36 159.92 418.36 167.92 439.36 167.92 439.36 173.92 418.36 173.92 418.36 182.92 443.36 182.92 443.36 188.92 412.36 188.92 412.36 153.92 442.36 153.92"/>
      <path d="M535.34,168.92c1.54-3.15,9.88-14.46,12.54-14.98,1.98-.39,4.42.16,6.48,0-2.36,6.04-13.65,14.73-15.45,20.04-1.45,4.28.06,8.96-.69,13.31l-.79,1.2-6.07.44c-.49-4.49,1.05-10.57-.75-14.75-1-2.32-16.77-18.91-15.24-20.25,10.32-2.3,12.78,10.18,19.98,15Z"/>
      <rect x="149.7" y="167.26" width="9.32" height="9.32" transform="translate(-76.36 159.5) rotate(-45)"/>
      <rect x="564.7" y="167.26" width="9.32" height="9.32" transform="translate(45.19 452.95) rotate(-45)"/>
    </g>
  </g>
</svg>