<svg version="1.0" preserveAspectRatio="xMidYMid meet" height="848" viewBox="0 0 1622.88 635.999998" zoomAndPan="magnify" width="2164" xmlns:xlink="http://www.w3.org/1999/xlink" xmlns="http://www.w3.org/2000/svg"><path fill-rule="nonzero" fill-opacity="1" d="M 166.605469 423.191406 C 135.089844 423.191406 107.375 416.742188 83.460938 403.84375 C 59.542969 390.929688 40.835938 372.992188 27.359375 350.03125 C 13.898438 327.050781 7.167969 300.566406 7.167969 270.578125 C 7.167969 241.335938 13.523438 215.148438 26.234375 192 C 38.941406 168.832031 56.863281 150.519531 80.015625 137.058594 C 103.179688 123.582031 130.144531 116.835938 160.910156 116.835938 C 193.167969 116.835938 220.59375 123.582031 243.179688 137.058594 C 265.757812 150.519531 283.03125 168.550781 294.992188 191.15625 C 306.949219 213.742188 312.929688 239.074219 312.929688 267.164062 C 312.929688 272.09375 312.742188 277.121094 312.363281 282.253906 C 311.988281 287.371094 311.410156 292.398438 310.644531 297.34375 L 95.980469 297.34375 C 99.027344 311.015625 106.046875 322.785156 117.050781 332.65625 C 128.070312 342.53125 145.148438 347.464844 168.296875 347.464844 C 183.863281 347.464844 196.199219 344.707031 205.300781 339.199219 C 214.417969 333.6875 221.4375 326.574219 226.367188 317.847656 L 308.390625 341.765625 C 303.441406 353.519531 294.707031 365.761719 282.1875 378.488281 C 269.664062 391.195312 253.714844 401.832031 234.351562 410.386719 C 214.980469 418.917969 192.402344 423.191406 166.605469 423.191406 Z M 95.980469 242.683594 L 224.113281 242.683594 C 222.589844 229.394531 216.320312 217.8125 205.300781 207.933594 C 194.296875 198.066406 179.316406 193.125 160.34375 193.125 C 141.726562 193.125 126.816406 198.355469 115.609375 208.8125 C 104.417969 219.25 97.875 230.535156 95.980469 242.683594 Z M 95.980469 242.683594" fill="#f53823"></path><path fill-rule="nonzero" fill-opacity="1" d="M 559.46875 423.191406 C 529.101562 423.191406 501.097656 417.972656 475.476562 407.539062 C 449.867188 397.082031 427.5625 382.460938 408.574219 363.679688 C 389.605469 344.894531 374.890625 322.980469 364.433594 297.9375 C 353.996094 272.878906 348.78125 245.53125 348.78125 215.917969 C 348.78125 186.300781 353.996094 158.972656 364.433594 133.929688 C 374.890625 108.867188 389.511719 86.9375 408.292969 68.15625 C 427.078125 49.355469 449.1875 34.734375 474.628906 24.296875 C 500.066406 13.863281 527.789062 8.644531 557.777344 8.644531 C 586.242188 8.644531 611.671875 12.632812 634.070312 20.601562 C 656.460938 28.578125 675.816406 39.117188 692.140625 52.21875 C 708.460938 65.304688 721.742188 79.730469 731.992188 95.484375 C 742.261719 111.246094 749.28125 126.898438 753.0625 142.441406 L 660.835938 165.234375 C 657.785156 153.839844 651.609375 143.023438 642.304688 132.769531 C 633.011719 122.523438 621.25 114.082031 607.023438 107.445312 C 592.785156 100.804688 576.5625 97.488281 558.339844 97.488281 C 535.175781 97.488281 515.140625 102.800781 498.234375 113.421875 C 481.34375 124.050781 468.347656 138.28125 459.226562 156.125 C 450.125 173.96875 445.578125 193.714844 445.578125 215.355469 C 445.578125 236.226562 450.125 255.675781 459.226562 273.707031 C 468.347656 291.738281 481.34375 306.359375 498.234375 317.566406 C 515.140625 328.757812 535.175781 334.347656 558.339844 334.347656 C 576.5625 334.347656 592.785156 331.121094 607.023438 324.671875 C 621.25 318.222656 633.011719 309.976562 642.304688 299.910156 C 651.609375 289.851562 657.785156 279.125 660.835938 267.726562 L 753.0625 291.082031 C 749.28125 306.65625 742.363281 322.222656 732.304688 337.789062 C 722.242188 353.339844 709.046875 367.578125 692.703125 380.492188 C 676.378906 393.386719 657.117188 403.734375 634.914062 411.515625 C 612.703125 419.292969 587.558594 423.191406 559.46875 423.191406 Z M 559.46875 423.191406" fill="#f53823"></path><path fill-rule="nonzero" fill-opacity="1" d="M 943.222656 423.191406 C 913.25 423.191406 886.496094 416.445312 862.957031 402.96875 C 839.414062 389.492188 820.898438 371.175781 807.417969 348.027344 C 793.957031 324.859375 787.226562 298.859375 787.226562 270.011719 C 787.226562 240.773438 793.957031 214.679688 807.417969 191.71875 C 820.898438 168.738281 839.414062 150.519531 862.957031 137.058594 C 886.496094 123.582031 913.25 116.835938 943.222656 116.835938 C 973.605469 116.835938 1000.464844 123.582031 1023.804688 137.058594 C 1047.15625 150.519531 1065.566406 168.738281 1079.027344 191.71875 C 1092.503906 214.679688 1099.25 240.773438 1099.25 270.011719 C 1099.25 298.859375 1092.503906 324.859375 1079.027344 348.027344 C 1065.566406 371.175781 1047.15625 389.492188 1023.804688 402.96875 C 1000.464844 416.445312 973.605469 423.191406 943.222656 423.191406 Z M 943.222656 341.171875 C 964.113281 341.171875 980.632812 334.441406 992.78125 320.980469 C 1004.925781 307.5 1011 290.511719 1011 270.011719 C 1011 249.523438 1004.925781 232.53125 992.78125 219.046875 C 980.632812 205.570312 964.113281 198.824219 943.222656 198.824219 C 922.351562 198.824219 905.84375 205.570312 893.699219 219.046875 C 881.550781 232.53125 875.476562 249.523438 875.476562 270.011719 C 875.476562 290.511719 881.550781 307.5 893.699219 320.980469 C 905.84375 334.441406 922.351562 341.171875 943.222656 341.171875 Z M 943.222656 341.171875" fill="#f53823"></path><path fill-rule="nonzero" fill-opacity="1" d="M 1501.820312 116.835938 C 1536.355469 116.835938 1564.25 127.660156 1585.5 149.300781 C 1606.761719 170.945312 1617.398438 202.449219 1617.398438 243.808594 L 1617.398438 415.207031 L 1526.300781 415.207031 L 1526.300781 264.316406 C 1526.300781 245.328125 1522.871094 230.050781 1516.03125 218.484375 C 1509.207031 206.902344 1497.257812 201.109375 1480.1875 201.109375 C 1462.34375 201.109375 1449.429688 207.183594 1441.460938 219.328125 C 1433.488281 231.476562 1429.503906 248.75 1429.503906 271.140625 L 1429.503906 415.207031 L 1338.402344 415.207031 L 1338.402344 264.316406 C 1338.402344 245.328125 1334.976562 230.050781 1328.136719 218.484375 C 1321.3125 206.902344 1309.351562 201.109375 1292.257812 201.109375 C 1274.429688 201.109375 1261.535156 207.183594 1253.566406 219.328125 C 1245.589844 231.476562 1241.605469 248.75 1241.605469 271.140625 L 1241.605469 415.207031 L 1150.476562 415.207031 L 1150.476562 124.816406 L 1241.605469 124.816406 L 1241.605469 153.273438 C 1250.703125 142.65625 1261.996094 133.929688 1275.480469 127.101562 C 1288.957031 120.261719 1304.421875 116.835938 1321.875 116.835938 C 1341.613281 116.835938 1358.511719 120.261719 1372.558594 127.101562 C 1386.597656 133.929688 1397.796875 143.414062 1406.148438 155.558594 C 1416.019531 144.941406 1428.925781 135.828125 1444.875 128.230469 C 1460.816406 120.640625 1479.796875 116.835938 1501.820312 116.835938 Z M 1501.820312 116.835938" fill="#f53823"></path><path fill-rule="nonzero" fill-opacity="1" d="M 83.210938 463.902344 C 65.421875 465.191406 46.089844 473.230469 34.59375 484 L 31.273438 487.121094 L 90.566406 487.167969 C 127.257812 487.167969 149.804688 486.980469 149.804688 486.738281 C 149.804688 486.449219 147.933594 484.71875 145.625 482.792969 C 133.746094 472.988281 121.675781 467.601562 105.570312 464.855469 C 101.4375 464.136719 87.679688 463.566406 83.210938 463.902344 Z M 83.210938 463.902344" fill="#ffffff"></path><path fill-rule="nonzero" fill-opacity="1" d="M 259.203125 463.949219 C 241.125 465.050781 221.316406 473.128906 209.433594 484.1875 L 206.3125 487.121094 L 265.839844 487.167969 C 300.941406 487.167969 325.320312 486.980469 325.320312 486.738281 C 325.320312 486.113281 316.953125 479.476562 312.960938 476.878906 C 297.621094 467.117188 279.160156 462.695312 259.203125 463.949219 Z M 259.203125 463.949219" fill="#ffffff"></path><path fill-rule="nonzero" fill-opacity="1" d="M 1080.019531 463.902344 C 1066.558594 464.910156 1053.574219 468.949219 1042.515625 475.53125 C 1038.664062 477.792969 1031.410156 483.28125 1029.335938 485.441406 L 1027.652344 487.167969 L 1146.808594 487.167969 L 1145.367188 485.683594 C 1143.6875 483.851562 1137.238281 478.851562 1133.589844 476.445312 C 1127.71875 472.605469 1117.089844 468.175781 1109.109375 466.304688 C 1101.078125 464.378906 1087.90625 463.320312 1080.019531 463.902344 Z M 1080.019531 463.902344" fill="#ffffff"></path><path fill-rule="nonzero" fill-opacity="1" d="M 371.480469 477.074219 L 371.480469 487.167969 L 408.507812 487.167969 L 408.507812 466.976562 L 371.480469 466.976562 Z M 371.480469 477.074219" fill="#ffffff"></path><path fill-rule="nonzero" fill-opacity="1" d="M 501.40625 476.933594 L 501.554688 486.933594 L 538.582031 486.933594 L 538.722656 476.933594 L 538.816406 466.976562 L 501.3125 466.976562 Z M 501.40625 476.933594" fill="#ffffff"></path><path fill-rule="nonzero" fill-opacity="1" d="M 675.238281 470.4375 C 670.910156 482.074219 669.132812 486.878906 669.132812 487.027344 C 669.132812 487.121094 683.511719 487.167969 701.105469 487.167969 C 718.703125 487.167969 733.082031 487.074219 733.082031 486.980469 C 733.082031 486.832031 731.445312 482.316406 729.425781 476.878906 L 725.773438 466.976562 L 676.582031 466.976562 Z M 675.238281 470.4375" fill="#ffffff"></path><path fill-rule="nonzero" fill-opacity="1" d="M 798.339844 467.265625 C 797.851562 467.746094 797.898438 485.824219 798.386719 486.597656 C 798.722656 487.074219 811.464844 487.167969 860.511719 487.074219 L 922.253906 486.933594 L 919.65625 483.851562 C 913.355469 476.445312 903.785156 471.203125 891.285156 468.324219 C 886.761719 467.265625 886.042969 467.265625 842.667969 467.117188 C 818.484375 467.023438 798.527344 467.117188 798.339844 467.265625 Z M 798.339844 467.265625" fill="#ffffff"></path><path fill-rule="nonzero" fill-opacity="1" d="M 1184.703125 476.933594 L 1184.84375 486.933594 L 1203.503906 487.074219 L 1222.113281 487.167969 L 1222.113281 466.976562 L 1184.601562 466.976562 Z M 1184.703125 476.933594" fill="#ffffff"></path><path fill-rule="nonzero" fill-opacity="1" d="M 1313.957031 477.074219 L 1313.957031 487.167969 L 1351.460938 487.167969 L 1351.460938 466.976562 L 1313.957031 466.976562 Z M 1313.957031 477.074219" fill="#ffffff"></path><path fill-rule="nonzero" fill-opacity="1" d="M 1416.859375 477.074219 L 1416.859375 487.167969 L 1454.363281 487.167969 L 1454.363281 466.976562 L 1416.859375 466.976562 Z M 1416.859375 477.074219" fill="#ffffff"></path><path fill-rule="nonzero" fill-opacity="1" d="M 1480.808594 477.074219 L 1480.808594 487.167969 L 1542.597656 487.167969 C 1576.59375 487.167969 1604.386719 486.980469 1604.386719 486.738281 C 1604.386719 486.542969 1603.09375 484.914062 1601.507812 483.179688 C 1594.4375 475.484375 1585.585938 470.921875 1572.554688 468.230469 L 1566.546875 466.976562 L 1480.808594 466.976562 Z M 1480.808594 477.074219" fill="#ffffff"></path><path fill-rule="nonzero" fill-opacity="1" d="M 12.71875 515.398438 C 11.175781 519.390625 8.4375 529.535156 8.4375 531.214844 C 8.4375 531.308594 17.140625 531.410156 27.816406 531.410156 L 47.144531 531.410156 L 48.0625 528.617188 C 49.210938 525.019531 51.90625 519.726562 53.921875 516.933594 C 54.839844 515.6875 55.558594 514.578125 55.558594 514.390625 C 55.558594 514.242188 46.042969 514.101562 34.40625 514.101562 L 13.242188 514.101562 Z M 12.71875 515.398438" fill="#ffffff"></path><path fill-rule="nonzero" fill-opacity="1" d="M 125.574219 514.679688 C 125.761719 515.015625 126.433594 516.023438 127.0625 516.886719 C 127.734375 517.753906 128.988281 520.0625 129.855469 521.988281 L 131.492188 525.496094 L 137.644531 523.953125 C 141.007812 523.09375 148.898438 521.167969 155.09375 519.625 C 161.300781 518.089844 166.640625 516.746094 166.929688 516.550781 C 167.3125 516.363281 167.359375 515.875 167.070312 515.15625 L 166.6875 514.101562 L 145.960938 514.101562 C 129.519531 514.101562 125.285156 514.242188 125.574219 514.679688 Z M 125.574219 514.679688" fill="#ffffff"></path><path fill-rule="nonzero" fill-opacity="1" d="M 188.035156 514.578125 C 187.027344 516.261719 183.464844 529.007812 183.464844 531.027344 C 183.464844 531.214844 192.027344 531.410156 202.460938 531.410156 C 220.15625 531.410156 221.503906 531.363281 221.792969 530.542969 C 223.71875 524.914062 226.597656 519.148438 229.4375 515.15625 L 230.207031 514.101562 L 209.292969 514.101562 C 195.824219 514.101562 188.226562 514.296875 188.035156 514.578125 Z M 188.035156 514.578125" fill="#ffffff"></path><path fill-rule="nonzero" fill-opacity="1" d="M 303.585938 516.839844 C 306.136719 520.589844 307.484375 523.28125 308.96875 527.5625 L 310.269531 531.167969 L 329.3125 531.308594 C 346.71875 531.410156 348.398438 531.363281 348.398438 530.636719 C 348.398438 529.289062 345.949219 519.867188 344.839844 517.035156 L 343.78125 514.34375 L 322.722656 514.195312 L 301.707031 514.101562 Z M 303.585938 516.839844" fill="#ffffff"></path><path fill-rule="nonzero" fill-opacity="1" d="M 371.480469 522.753906 L 371.480469 531.410156 L 408.507812 531.410156 L 408.507812 514.101562 L 371.480469 514.101562 Z M 371.480469 522.753906" fill="#ffffff"></path><path fill-rule="nonzero" fill-opacity="1" d="M 501.507812 514.726562 C 501.40625 515.0625 501.359375 518.90625 501.40625 523.234375 L 501.554688 531.167969 L 520.210938 531.308594 L 538.816406 531.410156 L 538.816406 514.101562 L 520.304688 514.101562 C 505.640625 514.101562 501.695312 514.242188 501.507812 514.726562 Z M 501.507812 514.726562" fill="#ffffff"></path><path fill-rule="nonzero" fill-opacity="1" d="M 657.878906 517.324219 C 654.992188 525.019531 652.785156 531.074219 652.785156 531.214844 C 652.785156 531.363281 661.242188 531.363281 671.628906 531.308594 L 690.484375 531.167969 L 691.539062 528.28125 C 695.71875 517.082031 696.539062 514.820312 696.539062 514.484375 C 696.539062 514.296875 688.121094 514.101562 677.835938 514.101562 L 659.128906 514.101562 Z M 657.878906 517.324219" fill="#ffffff"></path><path fill-rule="nonzero" fill-opacity="1" d="M 705.675781 514.296875 C 705.675781 514.726562 711.058594 529.730469 711.488281 530.542969 C 711.925781 531.363281 713.320312 531.410156 730.726562 531.410156 L 749.476562 531.410156 L 749.140625 530.300781 C 748.953125 529.730469 747.554688 525.878906 746.019531 521.792969 L 743.28125 514.34375 L 724.472656 514.195312 C 714.132812 514.148438 705.675781 514.195312 705.675781 514.296875 Z M 705.675781 514.296875" fill="#ffffff"></path><path fill-rule="nonzero" fill-opacity="1" d="M 798.238281 515.15625 C 798.097656 515.78125 798.050781 519.625 798.097656 523.71875 L 798.238281 531.167969 L 922.777344 531.167969 L 924.945312 526.839844 C 926.816406 523.140625 928.835938 516.792969 928.789062 514.679688 C 928.789062 514.242188 924.898438 514.101562 910.804688 514.101562 L 892.875 514.101562 L 892.582031 516.550781 C 891.957031 521.550781 888.210938 526.652344 883.347656 529.007812 L 880.945312 530.207031 L 857.773438 530.355469 L 834.542969 530.496094 L 834.542969 514.101562 L 798.480469 514.101562 Z M 798.238281 515.15625" fill="#ffffff"></path><path fill-rule="nonzero" fill-opacity="1" d="M 1008.609375 516.839844 C 1007.75 519.148438 1006.253906 524.773438 1005.058594 530.066406 L 1004.765625 531.410156 L 1043.664062 531.410156 L 1043.953125 530.300781 C 1045.160156 526.214844 1047.992188 520.351562 1050.542969 516.792969 C 1051.265625 515.78125 1051.890625 514.726562 1051.890625 514.484375 C 1051.890625 514.296875 1042.367188 514.101562 1030.78125 514.101562 L 1009.621094 514.101562 Z M 1008.609375 516.839844" fill="#ffffff"></path><path fill-rule="nonzero" fill-opacity="1" d="M 1123.585938 517.035156 C 1124.691406 518.671875 1126.085938 521.214844 1126.664062 522.707031 C 1127.523438 524.726562 1128.007812 525.355469 1128.683594 525.253906 C 1130.316406 525.019531 1163.449219 516.652344 1163.691406 516.410156 C 1163.785156 516.316406 1163.785156 515.734375 1163.589844 515.15625 L 1163.355469 514.101562 L 1121.570312 514.101562 Z M 1123.585938 517.035156" fill="#ffffff"></path><path fill-rule="nonzero" fill-opacity="1" d="M 1184.796875 514.726562 C 1184.703125 515.0625 1184.648438 518.90625 1184.703125 523.234375 L 1184.84375 531.167969 L 1203.503906 531.308594 L 1222.113281 531.410156 L 1222.113281 514.101562 L 1203.597656 514.101562 C 1188.929688 514.101562 1184.984375 514.242188 1184.796875 514.726562 Z M 1184.796875 514.726562" fill="#ffffff"></path><path fill-rule="nonzero" fill-opacity="1" d="M 1313.957031 522.753906 L 1313.957031 531.410156 L 1351.460938 531.410156 L 1351.460938 514.101562 L 1313.957031 514.101562 Z M 1313.957031 522.753906" fill="#ffffff"></path><path fill-rule="nonzero" fill-opacity="1" d="M 1416.859375 522.753906 L 1416.859375 531.410156 L 1454.363281 531.410156 L 1454.363281 514.101562 L 1416.859375 514.101562 Z M 1416.859375 522.753906" fill="#ffffff"></path><path fill-rule="nonzero" fill-opacity="1" d="M 1480.808594 522.753906 L 1480.808594 531.410156 L 1542.933594 531.308594 L 1605.058594 531.167969 L 1606.84375 528.140625 C 1608.714844 524.867188 1610.640625 519.390625 1611.023438 516.117188 L 1611.265625 514.101562 L 1575.539062 514.101562 L 1575.34375 515.15625 C 1575.203125 515.78125 1575.007812 517.035156 1574.863281 517.941406 C 1574.191406 521.988281 1570.488281 526.550781 1566.011719 528.8125 L 1563.273438 530.207031 L 1540.101562 530.355469 L 1516.871094 530.496094 L 1516.871094 514.101562 L 1480.808594 514.101562 Z M 1480.808594 522.753906" fill="#ffffff"></path><path fill-rule="nonzero" fill-opacity="1" d="M 7.621094 552.425781 C 8.054688 560.746094 10.652344 571.65625 14.015625 579.347656 L 15.121094 581.898438 L 37.191406 581.898438 C 49.304688 581.898438 59.410156 581.757812 59.550781 581.609375 C 59.699219 581.421875 58.636719 579.925781 57.101562 578.292969 C 50.894531 571.46875 46.566406 561.175781 45.660156 550.976562 L 45.324219 547.277344 L 7.332031 547.277344 Z M 7.621094 552.425781" fill="#ffffff"></path><path fill-rule="nonzero" fill-opacity="1" d="M 182.457031 547.613281 C 182.214844 549.25 182.699219 555.257812 183.511719 560.214844 C 184.625 566.945312 186.691406 574.300781 188.757812 578.824219 L 190.148438 581.898438 L 211.5 581.898438 C 223.230469 581.898438 233 581.757812 233.140625 581.5625 C 233.335938 581.421875 232.515625 580.171875 231.363281 578.824219 C 224.960938 571.320312 221.070312 561.652344 220.203125 551.171875 L 219.867188 547.277344 L 201.207031 547.277344 C 190.925781 547.277344 182.457031 547.425781 182.457031 547.613281 Z M 182.457031 547.613281" fill="#ffffff"></path><path fill-rule="nonzero" fill-opacity="1" d="M 312.148438 548.816406 C 312 549.679688 311.664062 552.277344 311.371094 554.585938 C 310.269531 563.4375 304.933594 575.019531 299.640625 579.925781 C 298.96875 580.554688 298.539062 581.273438 298.679688 581.46875 C 298.828125 581.703125 308.539062 581.898438 320.269531 581.898438 L 341.667969 581.898438 L 342.34375 580.796875 C 345.277344 576.273438 348.78125 562.136719 349.605469 551.464844 L 349.941406 547.277344 L 312.382812 547.277344 Z M 312.148438 548.816406" fill="#ffffff"></path><path fill-rule="nonzero" fill-opacity="1" d="M 371.480469 564.589844 L 371.480469 581.898438 L 389.894531 581.804688 L 408.261719 581.65625 L 408.414062 564.445312 L 408.507812 547.277344 L 371.480469 547.277344 Z M 371.480469 564.589844" fill="#ffffff"></path><path fill-rule="nonzero" fill-opacity="1" d="M 501.40625 564.445312 L 501.554688 581.65625 L 538.582031 581.65625 L 538.722656 564.445312 L 538.816406 547.277344 L 501.3125 547.277344 Z M 501.40625 564.445312" fill="#ffffff"></path><path fill-rule="nonzero" fill-opacity="1" d="M 645.136719 551.753906 C 641.050781 563.054688 635.855469 577.039062 635.039062 579.113281 C 634.507812 580.3125 634.21875 581.46875 634.414062 581.609375 C 634.75 581.992188 767.464844 581.992188 767.847656 581.609375 C 767.996094 581.46875 767.949219 580.84375 767.707031 580.3125 C 767.464844 579.730469 765.398438 574.160156 763.089844 567.953125 C 760.828125 561.753906 758.472656 555.351562 757.84375 553.773438 C 757.273438 552.183594 756.453125 550.070312 756.113281 549.058594 L 755.488281 547.277344 L 736.597656 547.277344 C 725.679688 547.277344 717.695312 547.472656 717.695312 547.714844 C 717.695312 547.949219 718.65625 550.695312 719.808594 553.773438 C 721.015625 556.894531 722.117188 560.015625 722.265625 560.792969 L 722.601562 562.183594 L 701.160156 562.183594 C 688.605469 562.183594 679.707031 561.988281 679.707031 561.753906 C 679.707031 561.511719 680.816406 558.242188 682.109375 554.492188 C 683.460938 550.742188 684.519531 547.566406 684.519531 547.472656 C 684.519531 547.378906 676.003906 547.277344 665.664062 547.277344 L 646.773438 547.277344 Z M 645.136719 551.753906" fill="#ffffff"></path><path fill-rule="nonzero" fill-opacity="1" d="M 798.238281 547.902344 C 798.097656 548.191406 798.050781 555.933594 798.097656 565.074219 L 798.238281 581.65625 L 834.300781 581.65625 L 834.449219 570.691406 L 834.542969 559.78125 L 858.726562 559.78125 C 884.171875 559.78125 885.320312 559.875 889.601562 562.042969 C 892.292969 563.4375 894.789062 566.027344 896.136719 568.773438 C 897.101562 570.746094 897.296875 571.851562 897.34375 576.367188 L 897.4375 581.65625 L 934.320312 581.65625 L 934.273438 576.609375 C 934.171875 567.1875 930.472656 558.960938 922.972656 551.464844 L 918.738281 547.277344 L 858.585938 547.277344 C 810.742188 547.277344 798.386719 547.425781 798.238281 547.902344 Z M 798.238281 547.902344" fill="#ffffff"></path><path fill-rule="nonzero" fill-opacity="1" d="M 1003.804688 549.875 C 1003.804688 554.78125 1005.292969 563.726562 1007.265625 570.597656 C 1008.46875 574.785156 1011.011719 581.085938 1011.6875 581.515625 C 1012.414062 582.039062 1055.640625 581.992188 1055.929688 581.46875 C 1056.070312 581.273438 1055.640625 580.554688 1054.964844 579.925781 C 1048.523438 573.871094 1043.1875 561.800781 1042.027344 550.5 L 1041.691406 547.277344 L 1003.804688 547.277344 Z M 1003.804688 549.875" fill="#ffffff"></path><path fill-rule="nonzero" fill-opacity="1" d="M 1184.703125 564.445312 L 1184.84375 581.65625 L 1221.871094 581.65625 L 1222.011719 564.445312 L 1222.113281 547.277344 L 1184.601562 547.277344 Z M 1184.703125 564.445312" fill="#ffffff"></path><path fill-rule="nonzero" fill-opacity="1" d="M 1314.097656 559.15625 C 1314.292969 569.160156 1314.527344 571.945312 1315.492188 576.367188 L 1316.601562 581.65625 L 1336.933594 581.804688 C 1348.09375 581.851562 1357.230469 581.757812 1357.230469 581.609375 C 1357.230469 581.46875 1356.460938 579.683594 1355.5 577.710938 C 1352.5625 571.46875 1351.890625 567.953125 1351.601562 556.988281 L 1351.320312 547.277344 L 1313.855469 547.277344 Z M 1314.097656 559.15625" fill="#ffffff"></path><path fill-rule="nonzero" fill-opacity="1" d="M 1416.859375 553.867188 C 1416.8125 564.738281 1415.605469 571.320312 1412.53125 577.664062 C 1411.566406 579.730469 1410.847656 581.515625 1410.988281 581.65625 C 1411.136719 581.804688 1420.269531 581.898438 1431.328125 581.898438 L 1451.425781 581.898438 L 1452.15625 578.386719 C 1453.78125 570.839844 1453.980469 568.773438 1454.222656 558.195312 L 1454.511719 547.277344 L 1416.859375 547.277344 Z M 1416.859375 553.867188" fill="#ffffff"></path><path fill-rule="nonzero" fill-opacity="1" d="M 1480.910156 564.445312 L 1481.050781 581.65625 L 1498.988281 581.804688 L 1516.871094 581.898438 L 1516.871094 559.734375 L 1542.261719 559.875 C 1570.488281 560.015625 1569.191406 559.875 1574.285156 563.484375 C 1578.519531 566.464844 1580.734375 572.039062 1580.15625 578.386719 L 1579.820312 581.898438 L 1598.476562 581.804688 L 1617.136719 581.65625 L 1616.988281 577.476562 C 1616.648438 566.511719 1611.890625 556.847656 1603.039062 549.058594 L 1601.019531 547.277344 L 1480.808594 547.277344 Z M 1480.910156 564.445312" fill="#ffffff"></path><path fill-rule="nonzero" fill-opacity="1" d="M 130.191406 569.542969 C 128.742188 572.953125 126.488281 576.515625 123.984375 579.160156 C 122.882812 580.359375 122.105469 581.421875 122.257812 581.609375 C 122.6875 582.039062 164.855469 581.945312 165.480469 581.515625 C 166.152344 581.085938 167.601562 576.179688 167.164062 575.9375 C 166.734375 575.648438 132.398438 566.992188 131.773438 566.992188 C 131.492188 566.992188 130.761719 568.148438 130.191406 569.542969 Z M 130.191406 569.542969" fill="#ffffff"></path><path fill-rule="nonzero" fill-opacity="1" d="M 1126.039062 570.933594 C 1124.933594 573.148438 1122.859375 576.367188 1121.417969 578.152344 C 1119.933594 579.878906 1118.726562 581.46875 1118.726562 581.609375 C 1118.726562 581.757812 1128.535156 581.851562 1140.507812 581.804688 L 1162.242188 581.65625 L 1163.109375 579.058594 C 1163.589844 577.617188 1163.785156 576.273438 1163.589844 576.085938 C 1163.203125 575.75 1129.449219 566.992188 1128.441406 566.992188 C 1128.152344 566.992188 1127.09375 568.773438 1126.039062 570.933594 Z M 1126.039062 570.933594" fill="#ffffff"></path><path fill-rule="nonzero" fill-opacity="1" d="M 19.253906 588.628906 C 18.917969 589.210938 19.542969 590.359375 21.804688 593.632812 C 35.367188 612.914062 56.429688 624.890625 81.621094 627.628906 C 88.351562 628.394531 101.046875 627.917969 107.730469 626.667969 C 122.640625 623.925781 134.996094 618.300781 145.476562 609.550781 C 151.878906 604.164062 156.824219 598.492188 160.433594 592.480469 C 162.070312 589.734375 162.359375 588.96875 161.777344 588.628906 C 161.441406 588.386719 149.859375 588.246094 136.101562 588.292969 C 111.488281 588.386719 111.046875 588.386719 108.933594 589.453125 C 99.316406 594.117188 80.902344 594.117188 72.199219 589.453125 C 70.226562 588.386719 69.984375 588.386719 44.882812 588.246094 C 28.636719 588.199219 19.449219 588.292969 19.253906 588.628906 Z M 19.253906 588.628906" fill="#ffffff"></path><path fill-rule="nonzero" fill-opacity="1" d="M 193.851562 588.535156 C 193.757812 588.722656 194.671875 590.460938 195.972656 592.332031 C 210.921875 614.691406 236.9375 628.011719 265.691406 628.058594 C 295.21875 628.058594 321.28125 614.785156 336.136719 592.191406 C 338.0625 589.304688 338.210938 588.875 337.480469 588.582031 C 337.003906 588.441406 326.234375 588.246094 313.492188 588.199219 C 292.863281 588.105469 290.171875 588.199219 288.246094 588.921875 C 279.730469 592.144531 276.515625 593.003906 271.511719 593.445312 C 261.558594 594.351562 254.632812 593.199219 243.816406 588.96875 C 242.179688 588.292969 238.570312 588.199219 217.996094 588.152344 C 204.863281 588.152344 194 588.339844 193.851562 588.535156 Z M 193.851562 588.535156" fill="#ffffff"></path><path fill-rule="nonzero" fill-opacity="1" d="M 371.769531 588.488281 C 371.628906 588.675781 371.480469 596.996094 371.480469 607 L 371.480469 625.179688 L 427.164062 625.078125 L 482.800781 624.9375 L 482.941406 608.007812 L 483.035156 591.035156 L 445.917969 590.9375 C 409.179688 590.796875 408.75 590.796875 408.554688 589.835938 C 408.460938 589.304688 408.167969 588.722656 407.832031 588.535156 C 407.207031 588.105469 372.199219 588.050781 371.769531 588.488281 Z M 371.769531 588.488281" fill="#ffffff"></path><path fill-rule="nonzero" fill-opacity="1" d="M 501.84375 588.828125 C 501.453125 589.257812 501.3125 594.5 501.40625 607.195312 L 501.554688 624.9375 L 557.238281 625.078125 L 612.867188 625.179688 L 612.867188 591.035156 L 575.992188 590.9375 L 539.058594 590.796875 L 538.917969 589.789062 C 538.816406 589.164062 538.292969 588.582031 537.710938 588.441406 C 537.132812 588.292969 528.960938 588.152344 519.539062 588.152344 C 505.59375 588.152344 502.273438 588.292969 501.84375 588.828125 Z M 501.84375 588.828125" fill="#ffffff"></path><path fill-rule="nonzero" fill-opacity="1" d="M 632.875 588.582031 C 631.386719 588.921875 631.238281 589.257812 623.691406 609.785156 C 622.199219 613.878906 620.375 618.878906 619.597656 620.851562 C 618.832031 622.824219 618.355469 624.601562 618.449219 624.789062 C 618.589844 625.03125 627.105469 625.179688 637.398438 625.179688 C 658.402344 625.179688 656.289062 625.5625 657.730469 621.328125 C 658.167969 620.125 659.945312 615.273438 661.675781 610.511719 C 663.457031 605.746094 665.429688 600.269531 666.105469 598.34375 L 667.300781 594.882812 L 734.914062 594.882812 L 736.257812 598.585938 C 736.980469 600.652344 739.476562 607.429688 741.738281 613.636719 L 745.871094 624.9375 L 764.96875 625.078125 C 775.445312 625.125 784.054688 625.03125 784.054688 624.84375 C 784.054688 624.601562 783.28125 622.386719 782.324219 619.890625 C 781.363281 617.382812 779.773438 613.058594 778.765625 610.269531 C 772.371094 592.816406 770.976562 589.304688 770.25 588.722656 C 769.632812 588.246094 755.441406 588.152344 701.832031 588.199219 C 664.65625 588.246094 633.640625 588.386719 632.875 588.582031 Z M 632.875 588.582031" fill="#ffffff"></path><path fill-rule="nonzero" fill-opacity="1" d="M 798.527344 588.828125 C 798.144531 589.257812 798.050781 594.882812 798.097656 607.195312 L 798.238281 624.9375 L 842.957031 624.9375 C 887.488281 624.9375 887.722656 624.9375 893.835938 623.832031 C 908.597656 621.1875 918.066406 616.234375 925.761719 607.242188 C 929.75 602.53125 935.183594 589.59375 933.546875 588.582031 C 933.210938 588.386719 923.9375 588.246094 912.925781 588.292969 L 892.921875 588.386719 L 890.949219 589.6875 C 886.332031 592.769531 886.714844 592.714844 859.453125 592.863281 L 834.542969 593.003906 L 834.542969 590.84375 C 834.542969 589.351562 834.300781 588.628906 833.777344 588.441406 C 833.339844 588.246094 825.355469 588.152344 816.035156 588.152344 C 802.566406 588.199219 798.910156 588.339844 798.527344 588.828125 Z M 798.527344 588.828125" fill="#ffffff"></path><path fill-rule="nonzero" fill-opacity="1" d="M 1017.414062 588.488281 C 1016.257812 588.628906 1015.339844 588.777344 1015.339844 588.921875 C 1015.339844 590.171875 1023.230469 600.316406 1027.417969 604.402344 C 1043.664062 620.515625 1066.023438 628.734375 1091.078125 627.917969 C 1118.484375 627.003906 1142.003906 614.839844 1155.464844 594.640625 C 1159.261719 588.96875 1159.363281 588.675781 1158.0625 588.441406 C 1157.4375 588.292969 1145.949219 588.246094 1132.429688 588.292969 L 1107.910156 588.386719 L 1104.976562 589.6875 C 1100.453125 591.660156 1093.144531 593.003906 1086.5625 593.003906 C 1079.296875 593.003906 1075.550781 592.191406 1066.792969 588.828125 C 1065.445312 588.292969 1060.398438 588.199219 1042.269531 588.246094 C 1029.71875 588.292969 1018.519531 588.386719 1017.414062 588.488281 Z M 1017.414062 588.488281" fill="#ffffff"></path><path fill-rule="nonzero" fill-opacity="1" d="M 1188.304688 588.488281 L 1184.601562 588.675781 L 1184.703125 606.8125 L 1184.84375 624.9375 L 1240.765625 625.078125 L 1296.644531 625.179688 L 1296.644531 591.035156 L 1259.523438 590.9375 C 1222.789062 590.796875 1222.347656 590.796875 1222.160156 589.835938 C 1222.058594 589.304688 1221.777344 588.722656 1221.441406 588.535156 C 1220.910156 588.199219 1195.996094 588.152344 1188.304688 588.488281 Z M 1188.304688 588.488281" fill="#ffffff"></path><path fill-rule="nonzero" fill-opacity="1" d="M 1321.3125 588.535156 C 1320.15625 588.628906 1319.238281 588.921875 1319.238281 589.164062 C 1319.238281 590.3125 1324.4375 599.59375 1326.941406 603.007812 C 1332.277344 610.175781 1340.878906 617.195312 1348.816406 620.851562 C 1353.769531 623.160156 1359.445312 624.984375 1366.316406 626.472656 C 1371.988281 627.675781 1373.148438 627.769531 1383.917969 627.769531 C 1394.59375 627.769531 1395.890625 627.675781 1401.519531 626.472656 C 1419.503906 622.675781 1432.050781 615.121094 1441.378906 602.53125 C 1445.078125 597.574219 1449.359375 589.0625 1448.445312 588.535156 C 1448.0625 588.339844 1437.964844 588.246094 1425.945312 588.292969 L 1404.117188 588.386719 L 1400.023438 590.460938 C 1394.253906 593.34375 1390.265625 594.0625 1382.234375 593.78125 C 1374.785156 593.492188 1373.53125 593.152344 1367.472656 590.265625 L 1363.097656 588.152344 L 1343.1875 588.246094 C 1332.277344 588.292969 1322.417969 588.441406 1321.3125 588.535156 Z M 1321.3125 588.535156" fill="#ffffff"></path><path fill-rule="nonzero" fill-opacity="1" d="M 1481.003906 588.875 C 1480.910156 589.117188 1480.855469 597.378906 1480.910156 607.148438 L 1481.050781 624.9375 L 1525.527344 624.9375 C 1569.386719 624.890625 1570.105469 624.890625 1576.257812 623.832031 C 1584.046875 622.488281 1588.90625 620.945312 1594.871094 617.871094 C 1605.347656 612.429688 1611.796875 604.792969 1615.210938 593.828125 C 1615.929688 591.519531 1616.40625 589.257812 1616.21875 588.875 C 1615.976562 588.199219 1613.621094 588.152344 1595.636719 588.246094 L 1575.296875 588.386719 L 1573.378906 589.6875 C 1568.855469 592.667969 1568.566406 592.714844 1541.632812 592.714844 L 1517.113281 592.714844 L 1516.871094 590.554688 L 1516.636719 588.386719 L 1498.886719 588.386719 C 1487.0625 588.339844 1481.097656 588.535156 1481.003906 588.875 Z M 1481.003906 588.875" fill="#ffffff"></path></svg>