<?xml version="1.0" encoding="UTF-8"?>
<svg id="Layer_2" data-name="Layer 2" xmlns="http://www.w3.org/2000/svg" viewBox="0 0 509.66 83.8">
  <defs>
    <style>
      .cls-1 {
        fill: #fff;
      }
    </style>
  </defs>
  <g id="Layer_2-2" data-name="Layer 2">
    <g id="artwork">
      <g>
        <path class="cls-1" d="M0,42.33C0,15.78,23,0,52.53,0s45.32,13.85,47.5,26.99h-16.04c-2.41-8.24-12.69-15.43-31.37-15.43-22.9,0-38.1,11.89-38.1,30.56s16.26,30.11,37.75,30.11c23.8,0,34.21-10.63,34.33-22.09h-34.33v-10.98h48.64v5.5c0,23.35-16.14,39.13-48.64,39.13-31.57-.03-52.28-16.51-52.28-41.47"/>
        <polygon class="cls-1" points="117.3 1.83 131.05 1.83 131.05 70.25 189.06 70.25 189.06 81.91 117.33 81.91 117.33 1.81 117.3 1.83"/>
        <path class="cls-1" d="M236.92,1.83h15.78l45.67,80.1h-15.66l-12.59-22.55h-51.5l-12.59,22.55h-14.65L236.9,1.83h.03ZM263.69,47.96l-11.56-20.84c-2.74-5.03-5.03-9.27-7.67-14.4-2.64,5.15-4.93,9.27-7.79,14.4l-11.66,20.84h38.68Z"/>
        <rect class="cls-1" x="308.91" y="1.81" width="13.75" height="80.13"/>
        <path class="cls-1" d="M337.41,69l53.44-47.15,9.95-8.57h-60.78V1.81h79.07v12.49l-53.44,47.03c-3.44,3.09-6.54,5.61-10.53,9.05h65.9v11.56h-83.65v-12.92h0l.03-.03Z"/>
        <polygon class="cls-1" points="435.71 1.83 507.7 1.83 507.7 13.27 449.34 13.27 449.34 35.01 505.08 35.01 505.08 46.35 449.34 46.35 449.34 70.38 509.66 70.38 509.66 81.94 435.71 81.94 435.71 1.83"/>
      </g>
    </g>
  </g>
</svg>