<svg xmlns="http://www.w3.org/2000/svg" viewBox="0 0 830 224" class="size-full p-1"><path fill="currentColor" d="M98.41 183.23C121.47 183.23 137.99 171.17 142.97 146.23H90.81V114H191.19V220.71H145.33V174.06C135.63 203.94 113.33 223.33 81.33 223.33C24.72 223.33 0.869995 179.56 0.869995 130.33C0.869995 70.83 38.61 26.8 102.56 26.8C148.43 26.8 174.12 44.62 193.56 73.19L145.56 99.14C137.17 79.74 123.56 69.26 100.48 69.26C71.91 69.26 51.99 89.44 51.99 126.4C52 162 68.27 183.23 98.41 183.23Z"></path><path fill="currentColor" d="M263.79 220.71H216.35V12.08H263.79V220.71Z"></path><path fill="currentColor" d="M282.65 187.16C282.65 169.6 290.78 160.69 302.05 153.35C313.05 146.27 329.05 142.35 357.05 136.35C379.33 131.64 382.48 127.97 382.48 120.35C382.48 111.96 375.92 105.67 359.67 105.67C342.9 105.67 331.37 114.84 325.34 131.88L285.24 116.15C298.87 86.27 326.91 71.07 361.24 71.07C403.17 71.07 426.76 90.47 426.76 126.07V170.89C426.76 184 430.43 188.45 439.6 188.45C442.917 188.425 446.202 187.805 449.3 186.62V215.19C444.06 219.12 433.57 223.31 420.73 223.31C396.62 223.31 383.51 212.83 382.47 188.98C373.82 210.73 353.37 223.84 328.47 223.84C300 223.86 282.65 210 282.65 187.16ZM383.56 154.16V148.16C380.16 151.83 373.34 154.45 359.97 157.33C337.7 162 329.31 167 329.31 177.2C329.31 186.11 335.6 191.09 348.44 191.09C372.29 191.09 383.56 170.91 383.56 154.14V154.16Z"></path><path fill="currentColor" d="M487.61 0.290009C505.96 0.290009 516.44 12.08 516.44 29.38C516.44 45.89 505.7 57.38 487.61 57.38C468.74 57.38 458.26 45.85 458.26 29.38C458.26 12.08 468.74 0.290009 487.61 0.290009ZM510.68 220.71H463V73.94H510.7L510.68 220.71Z"></path><path fill="currentColor" d="M578 179.82H665.54V220.71H531.91V180.35L617.91 114.04H533.51V73.94H664.27V113L578 179.82Z"></path><path fill="currentColor" d="M753.38 223.33C700.17 223.33 674.49 191.62 674.49 148.63C674.49 105.91 703.58 71.05 754.16 71.05C806.06 71.05 829.39 105.39 829.39 143.13V157.28H719.83C722.19 176.68 733.72 186.9 754.16 186.9C769.63 186.9 778.02 181.13 784.83 167.24L825.72 182.44C813.4 206.82 790.86 223.33 753.38 223.33ZM720.38 133.96H783.29C782.29 117.18 773.29 105.65 753.15 105.65C734.77 105.65 723.5 115.61 720.35 134L720.38 133.96Z"></path></svg>