<svg xmlns="http://www.w3.org/2000/svg" id="Layer_2" data-name="Layer 2" viewBox="0 0 312.65 85.25"><defs><style>      .cls-1 {        fill: #231f20;      }    </style></defs><g id="Layer_1-2" data-name="Layer 1"><g><path class="cls-1" d="M36.88,20.18c-1.24-.46-2.55-.7-3.94-.7-1.16,0-2.24.16-3.25.46-1.01.31-1.86.66-2.55,1.04,2.47,1.39,4.52,3.27,6.15,5.63,1.62,2.36,2.44,5.12,2.44,8.29,0,2.4-.52,4.6-1.57,6.61-1.04,2.01-2.4,3.75-4.06,5.22-1.66,1.47-3.58,2.61-5.74,3.42-2.17.81-4.41,1.22-6.73,1.22-2.63,0-5.07-.5-7.31-1.51-.93.77-1.93,1.7-3.01,2.78-1.08,1.08-1.62,1.93-1.62,2.55,0,1.39.75,2.36,2.26,2.9,1.51.54,3.38.95,5.62,1.22,2.24.27,4.68.5,7.31.7,2.63.19,5.06.62,7.31,1.28,2.24.66,4.12,1.7,5.62,3.13,1.51,1.43,2.26,3.46,2.26,6.09,0,2.47-.56,4.64-1.68,6.5-1.12,1.86-2.59,3.38-4.41,4.58-1.82,1.2-3.81,2.11-5.97,2.72-2.17.62-4.29.93-6.38.93-2.55,0-4.89-.37-7.02-1.1-2.13-.74-3.96-1.7-5.51-2.9-1.55-1.2-2.74-2.63-3.6-4.29-.85-1.66-1.28-3.42-1.28-5.28,0-1.62.33-3.29.99-4.99.66-1.7,1.76-3.4,3.31-5.1-1.47-1.08-2.2-2.55-2.2-4.41,0-.39.25-.89.75-1.51.5-.62,1.1-1.29,1.8-2.03.69-.73,1.47-1.47,2.32-2.2.85-.73,1.62-1.37,2.32-1.91-2.71-1.31-4.97-3.25-6.79-5.8C.91,41.17,0,38.24,0,34.91c0-2.32.5-4.48,1.51-6.5,1-2.01,2.34-3.75,4-5.22,1.66-1.47,3.55-2.61,5.68-3.42,2.13-.81,4.31-1.22,6.55-1.22,3.32,0,6.3.7,8.93,2.09.62-.62,1.35-1.29,2.2-2.03.85-.73,1.74-1.41,2.67-2.03.93-.62,1.86-1.12,2.78-1.51.93-.39,1.78-.58,2.55-.58v5.68ZM5.33,62.17c-2.71,3.25-4.06,6.53-4.06,9.86,0,3.48,1.58,6.42,4.76,8.82,3.17,2.4,7.54,3.6,13.11,3.6,1.47,0,3.09-.35,4.87-1.04,1.78-.7,3.44-1.62,4.99-2.78,1.55-1.16,2.84-2.49,3.89-4,1.04-1.51,1.57-3.11,1.57-4.81,0-1.55-.54-2.77-1.62-3.65-1.08-.89-2.48-1.57-4.18-2.03-1.7-.46-3.61-.77-5.74-.93-2.13-.16-4.27-.33-6.44-.52-2.17-.19-4.23-.46-6.21-.81-1.97-.35-3.61-.91-4.93-1.68ZM5.22,33.75c0,1.93.31,3.89.93,5.86.62,1.97,1.51,3.77,2.67,5.39s2.57,2.94,4.23,3.94c1.66,1.01,3.57,1.51,5.74,1.51,1.86,0,3.5-.42,4.93-1.28,1.43-.85,2.63-1.97,3.59-3.36.97-1.39,1.7-2.94,2.2-4.64.5-1.7.75-3.36.75-4.99,0-1.93-.33-3.89-.99-5.86-.66-1.97-1.59-3.77-2.78-5.39-1.2-1.62-2.65-2.94-4.35-3.94-1.7-1-3.6-1.51-5.68-1.51-1.86,0-3.48.45-4.87,1.33-1.39.89-2.55,2.01-3.48,3.36-.93,1.35-1.64,2.88-2.15,4.58-.5,1.7-.75,3.36-.75,4.99Z"></path><path class="cls-1" d="M47.67,57.06c0,.77.06,1.37.17,1.8.12.43.6.64,1.45.64h3.48s0,.46,0,.46h-14.85s0-.46,0-.46h3.25c.93,0,1.47-.23,1.62-.7.15-.46.23-1.04.23-1.74V7.07c0-1.62-.62-2.44-1.86-2.44-.93,0-1.97.35-3.13,1.04v-.46S46.39.23,46.39.23c.85-.46,1.28-.23,1.28.7v56.13Z"></path><path class="cls-1" d="M54.4,39.67c0-2.78.54-5.41,1.62-7.89,1.08-2.47,2.55-4.64,4.41-6.5,1.86-1.86,4.02-3.32,6.5-4.41,2.47-1.08,5.1-1.62,7.89-1.62s5.41.54,7.89,1.62c2.47,1.08,4.64,2.55,6.49,4.41,1.86,1.86,3.32,4.02,4.41,6.5,1.08,2.48,1.62,5.1,1.62,7.89,0,2.78-.52,5.41-1.57,7.89-1.04,2.48-2.49,4.64-4.35,6.5-1.86,1.86-4.02,3.32-6.5,4.41-2.48,1.08-5.1,1.62-7.89,1.62-2.86,0-5.53-.54-8-1.62-2.48-1.08-4.64-2.55-6.5-4.41-1.86-1.86-3.32-4.02-4.41-6.5-1.08-2.47-1.62-5.1-1.62-7.89ZM73.42,20.41c-2.32,0-4.37.54-6.15,1.62-1.78,1.08-3.27,2.46-4.47,4.12-1.2,1.66-2.11,3.56-2.72,5.68-.62,2.13-.93,4.23-.93,6.32,0,2.32.37,4.72,1.1,7.19.73,2.48,1.84,4.74,3.3,6.78,1.47,2.05,3.25,3.71,5.34,4.99,2.09,1.28,4.44,1.91,7.07,1.91,2.32,0,4.37-.54,6.15-1.62,1.78-1.08,3.26-2.45,4.46-4.12,1.2-1.66,2.09-3.56,2.67-5.68.58-2.13.87-4.23.87-6.32,0-2.4-.37-4.83-1.1-7.31-.74-2.47-1.82-4.72-3.25-6.73-1.43-2.01-3.17-3.65-5.22-4.93-2.05-1.28-4.43-1.91-7.13-1.91Z"></path><path class="cls-1" d="M96.38,22.27c-.39-.85-.83-1.47-1.33-1.86-.5-.39-1.22-.58-2.15-.58h-1.74s0-.46,0-.46h15.08s0,.46,0,.46h-2.9c-.93,0-1.49.23-1.68.7-.19.46-.14,1.08.17,1.86l3.13,7.54c.15.31.27.58.35.81l9.98,21.69,7.31-18.33-5.57-11.83c-.39-.85-.83-1.47-1.33-1.86-.5-.39-1.22-.58-2.15-.58h-1.74s0-.46,0-.46h15.08s0,.46,0,.46h-2.9c-.93,0-1.49.23-1.68.7-.19.46-.13,1.08.17,1.86l3.13,7.54,10.55,22.5,12.06-30.16c.23-.62.27-1.18.12-1.68-.16-.5-.7-.75-1.62-.75h-3.25s0-.46,0-.46h11.02s0,.46,0,.46h-2.32c-.85,0-1.41.23-1.68.7-.27.46-.56,1.04-.87,1.74l-15.43,37.81-10.9-24.47-9.97,24.47-13.69-30.97-3.25-6.84Z"></path><path class="cls-1" d="M165.89,19.95v-.58s5.1,0,5.1,0c0-2.16.31-4.19.93-6.09.62-1.89,1.49-3.56,2.61-4.99,1.12-1.43,2.44-2.57,3.94-3.42,1.51-.85,3.19-1.28,5.05-1.28,2.55,0,5.22.93,8,2.78l-3.83,3.6c-2.86-3.25-5.26-4.87-7.19-4.87-1.55,0-2.75,1.12-3.6,3.36-.85,2.24-1.28,5.88-1.28,10.9h8.93s0,.58,0,.58h-8.93s0,37.11,0,37.11c0,.77.06,1.37.17,1.8.12.43.6.64,1.45.64h3.48s0,.46,0,.46h-14.85s0-.46,0-.46h3.25c.93,0,1.47-.23,1.62-.7.15-.46.23-1.04.23-1.74V19.95s-5.1,0-5.1,0Z"></path><path class="cls-1" d="M184.91,39.67c0-2.78.54-5.41,1.62-7.89,1.08-2.47,2.55-4.64,4.41-6.5,1.86-1.86,4.02-3.32,6.5-4.41,2.47-1.08,5.1-1.62,7.89-1.62,2.78,0,5.41.54,7.89,1.62,2.47,1.08,4.64,2.55,6.49,4.41,1.86,1.86,3.32,4.02,4.41,6.5,1.08,2.48,1.62,5.1,1.62,7.89,0,2.78-.52,5.41-1.57,7.89-1.04,2.48-2.49,4.64-4.35,6.5-1.86,1.86-4.02,3.32-6.5,4.41-2.48,1.08-5.1,1.62-7.89,1.62-2.86,0-5.53-.54-8-1.62-2.48-1.08-4.64-2.55-6.5-4.41-1.86-1.86-3.32-4.02-4.41-6.5-1.08-2.47-1.62-5.1-1.62-7.89ZM203.93,20.41c-2.32,0-4.37.54-6.15,1.62-1.78,1.08-3.27,2.46-4.47,4.12-1.2,1.66-2.11,3.56-2.72,5.68-.62,2.13-.93,4.23-.93,6.32,0,2.32.37,4.72,1.1,7.19.73,2.48,1.84,4.74,3.3,6.78,1.47,2.05,3.25,3.71,5.34,4.99,2.09,1.28,4.44,1.91,7.07,1.91,2.32,0,4.37-.54,6.15-1.62,1.78-1.08,3.26-2.45,4.46-4.12,1.2-1.66,2.09-3.56,2.67-5.68.58-2.13.87-4.23.87-6.32,0-2.4-.37-4.83-1.1-7.31-.74-2.47-1.82-4.72-3.25-6.73-1.43-2.01-3.17-3.65-5.22-4.93-2.05-1.28-4.43-1.91-7.13-1.91Z"></path><path class="cls-1" d="M240,31.55c1.31-3.4,3.28-6.22,5.91-8.47,2.63-2.24,5.33-3.36,8.12-3.36.46,0,.93.04,1.39.12.46.08.89.19,1.28.35v5.45c-1.93-1.24-3.83-1.86-5.68-1.86-2.48,0-4.66.89-6.55,2.67-1.9,1.78-3.38,3.71-4.47,5.8v24.82c0,.77.06,1.37.17,1.8.12.43.6.64,1.45.64h3.48s0,.46,0,.46h-14.85s0-.46,0-.46h3.25c.93,0,1.47-.23,1.62-.7s.23-1.04.23-1.74v-30.85c0-1.62-.62-2.44-1.86-2.44-.93,0-1.97.35-3.13,1.04v-.46s8.35-4.99,8.35-4.99c.85-.46,1.28-.23,1.28.7v11.48Z"></path><path class="cls-1" d="M279.25,57.06c0,.77.06,1.37.17,1.8.12.43.6.64,1.45.64h3.48s0,.46,0,.46h-14.85s0-.46,0-.46h3.25c.93,0,1.47-.23,1.62-.7.15-.46.23-1.04.23-1.74v-30.85c0-1.62-.62-2.44-1.86-2.44-.93,0-1.97.35-3.13,1.04v-.46s8.35-4.99,8.35-4.99c.85-.46,1.28-.23,1.28.7v37ZM276.69,12.87c-1.01,0-1.82-.29-2.44-.87-.62-.58-.93-1.37-.93-2.38,0-1,.31-1.8.93-2.38.62-.58,1.43-.87,2.44-.87,2.16,0,3.25,1.08,3.25,3.25,0,2.17-1.08,3.25-3.25,3.25Z"></path><path class="cls-1" d="M286.55,19.37h6.26v-4.52c0-1.62-.62-2.44-1.86-2.44-.93,0-1.97.35-3.13,1.04v-.46s8.35-4.99,8.35-4.99c.85-.46,1.28-.23,1.28.7v10.67s12.41,0,12.41,0v.46s-12.41,0-12.41,0v29.69c0,2.24.68,4.22,2.03,5.92,1.35,1.7,3.23,2.55,5.62,2.55,1.31,0,2.68-.33,4.12-.99,1.43-.66,2.57-1.53,3.42-2.61-.85,1.86-2.24,3.25-4.18,4.18-1.93.93-3.83,1.39-5.68,1.39s-3.3-.33-4.58-.99c-1.28-.66-2.32-1.55-3.13-2.67-.81-1.12-1.39-2.4-1.74-3.83-.35-1.43-.52-2.96-.52-4.58v-28.07s-6.26,0-6.26,0v-.46Z"></path></g></g></svg>