<?xml version="1.0" encoding="UTF-8"?>
<svg id="Layer_2" data-name="Layer 2" xmlns="http://www.w3.org/2000/svg" viewBox="0 0 4062.13 1219.57">
  <defs>
    <style>
      .cls-1 {
        fill: #fff;
      }
    </style>
  </defs>
  <g id="Layer_1-2" data-name="Layer 1">
    <path class="cls-1" d="M1420.98,1218.67c-265.06,0-457.79-184.34-457.79-470.96s187.79-470.96,457.79-470.96,449.55,179.55,449.55,451.2c0,24.11-1.05,48.22-4.19,72.33-1.2,9.43-9.59,16.47-19.17,16.47h-628.36c-11.98,0-20.96,10.79-19.17,22.61,19.32,119.2,106.77,172.51,215.49,172.51,94.2,0,156.19-57.5,193.03-132.83,3.29-6.74,9.89-11.08,17.37-11.08h212.65c12.58,0,21.86,11.83,18.87,23.96-41.48,166.52-220.88,326.61-436.07,326.61v.15ZM1221.96,662.05h388.9c11.68,0,20.66-10.18,19.17-21.71-13.48-107.52-104.53-174.16-215.79-174.16-103.18,0-186.29,61.85-211.3,172.36-2.69,11.98,6.59,23.51,18.87,23.51h.15Z"/>
    <path class="cls-1" d="M3079.77.9h200.22c8.39,0,15.13,6.74,15.13,15.13v1188.42c0,8.39-6.74,15.13-15.13,15.13h-200.22c-8.39,0-15.13-6.74-15.13-15.13V16.02c0-8.39,6.74-15.13,15.13-15.13"/>
    <path class="cls-1" d="M2895.28,291.56h-209.2c-6.29,0-11.53,5.09-11.53,11.53v85.96c0,10.33-13.03,15.57-19.76,7.79-57.35-65.44-151.25-119.95-281.53-119.95-232.26,0-416.6,182.85-416.6,467.67s184.49,474.26,414.96,474.26c128.79,0,225.07-54.66,283.03-122.35,6.89-7.94,19.92-2.85,19.92,7.64v103.17c0,6.29,5.09,11.53,11.53,11.53h209.2c6.29,0,11.53-5.09,11.53-11.53V303.1c0-6.29-5.09-11.53-11.53-11.53M2406.64,994.94c-149.45,0-254.87-109.91-254.87-250.08s105.42-250.08,254.87-250.08,249.03,109.92,249.03,250.08-105.57,250.08-249.03,250.08"/>
    <path class="cls-1" d="M3937.54,322.26l-.3,137.47c0,4.94-4.04,8.83-8.83,8.83h-235.11c-4.94,0-8.83,3.89-8.83,8.84-.3,237.8,0,492.98-.45,730.33,0,6.44-5.39,11.83-11.98,11.83h-206.95c-6.59,0-11.98-5.24-11.83-11.83.45-234.36.45-492.83,1.05-727.04,0-6.59-5.39-11.98-11.98-11.98h-31.9c-5.99,0-10.78-4.79-10.78-10.78v-130.43c0-6.44,5.09-11.68,11.53-11.98l23.51-.6c6.44-.3,11.38-5.54,11.53-11.83,1.5-68.44,22.76-113.81,38.18-139.27,73.53-121.45,250.53-176.86,443.71-135.97,5.54,1.2,9.59,6.29,9.59,11.98l-.9,131.18c0,7.94-7.64,13.33-15.27,11.38-117.41-32.2-221.03-6.44-257.87,56.46-7.04,11.98-15.57,32.2-15.42,62.89,0,6.59,5.24,11.83,11.98,11.83h268.5c4.94,0,8.83,4.04,8.83,8.99v-.3Z"/>
    <path class="cls-1" d="M3936.34,952.71c69.47,0,125.79,56.32,125.79,125.79s-56.32,125.79-125.79,125.79-125.79-56.32-125.79-125.79c0-69.47,56.31-125.79,125.79-125.79"/>
    <path class="cls-1" d="M869.45,683.46v520.98c0,7.78-6.44,14.22-14.22,14.22h-202.17c-7.79,0-14.08-6.29-14.08-14.08v-489.83c0-83.11-26.06-144.66-70.68-182.25-34.29-28.9-66.49-40.58-125.49-49.72-45.38-6.89-116.81-6.29-197.97,5.69-7.19,1.05-12.58,7.34-12.58,14.52-.6,70.53-1.05,141.07-1.65,211.75v489.68c0,7.78-6.44,14.22-14.23,14.22H14.23c-7.79,0-14.23-6.44-14.23-14.22V14.08C0,6.29,6.29,0,14.08,0h202.31c7.79,0,14.23,6.44,14.23,14.23v249.93c0,8.69,7.48,15.43,16.02,14.52,116.21-11.68,305.34-16.47,447.01,58.85,24.11,12.73,39.38,24.41,50.92,33.4,122.79,96.29,125.34,268.05,124.74,312.38l.15.15Z"/>
  </g>
</svg>