<svg xmlns="http://www.w3.org/2000/svg" id="Layer_2" data-name="Layer 2" viewBox="0 0 325.27 115.65"><defs><style>      .cls-1 {        fill: #231f20;      }    </style></defs><g id="Layer_1-2" data-name="Layer 1"><g><path class="cls-1" d="M293.84,101.54c10,0,16.66-6.61,16.66-16.99,0-9.96-6.75-16.66-16.8-16.66-10,0-16.61,6.6-16.61,16.99,0,9.96,6.7,16.66,16.75,16.66ZM293.7,74.41c5.99,0,9.67,4.25,9.67,10.8,0,6.18-3.73,9.82-9.58,9.82-5.99,0-9.58-4.25-9.58-10.81,0-6.18,3.63-9.81,9.48-9.81Z"></path><path class="cls-1" d="M255.4,74.84c3.54,0,8.16,1.79,9.63,6.27l6.18-2.36c-1.6-6.75-7.36-10.62-15.67-10.62-10.57,0-17.55,6.46-17.55,16.33,0,9.81,7.17,17.03,17.22,17.03,7.03,0,14.91-3.02,15.81-11.75l-5.62-2.55c-.9,4.34-4.62,7.31-9.25,7.31-6.14,0-10.81-3.54-10.81-10.05,0-6.37,4.58-9.63,10.05-9.63Z"></path><path class="cls-1" d="M314.1,95.88c0,3.16,2.17,5.38,5.43,5.38,3.21,0,5.43-2.17,5.43-5.52,0-3.16-2.22-5.38-5.47-5.38-3.21,0-5.38,2.17-5.38,5.52Z"></path><rect class="cls-1" x="237.67" y="109.38" width="87.61" height="5.43"></rect><path class="cls-1" d="M268.23,23.99C268.23,9.65,258.51,0,244.03,0c-14.41,0-23.93,9.52-23.93,24.47,0,14.34,9.65,23.99,24.13,23.99,14.41,0,23.99-9.52,23.99-24.47ZM230.37,23.52c0-8.9,5.23-14.14,13.66-14.14,8.63,0,13.93,6.12,13.93,15.57,0,8.9-5.37,14.14-13.8,14.14-8.63,0-13.8-6.12-13.8-15.56Z"></path><polygon class="cls-1" points="289.68 16.86 315.16 46.9 324.95 46.9 324.95 1.7 315.16 1.7 315.16 31.95 289.74 1.7 279.89 1.7 279.89 46.9 289.68 46.9 289.68 16.86"></polygon><polygon class="cls-1" points="40.53 37.32 10.08 37.32 10.08 1.7 .29 1.7 .29 46.9 40.53 46.9 40.53 37.32"></polygon><path class="cls-1" d="M136.53,77.05c5.1,0,11.76,2.58,13.87,9.04l8.9-3.4c-2.31-9.72-10.6-15.29-22.56-15.29-15.23,0-25.29,9.31-25.29,23.52s10.33,24.54,24.81,24.54c10.13,0,21.48-4.35,22.77-16.92l-8.09-3.67c-1.29,6.25-6.66,10.53-13.32,10.53-8.83,0-15.56-5.1-15.56-14.48,0-9.18,6.59-13.87,14.48-13.87Z"></path><path class="cls-1" d="M211.3,22.97c0-12.64-9.18-21.28-22.63-21.28h-22.43s0,45.2,0,45.2h22.36c13.8,0,22.7-10.2,22.7-23.93ZM176.02,37.79V11.28h9.45c9.58,0,15.16,4.15,15.16,12.03,0,8.63-5.57,14.48-15.22,14.48h-9.38Z"></path><path class="cls-1" d="M78.51,67.05c-14.41,0-23.93,9.52-23.93,24.47,0,14.34,9.65,23.99,24.13,23.99,14.41,0,23.99-9.52,23.99-24.47,0-14.34-9.72-23.99-24.2-23.99ZM78.64,106.14c-8.63,0-13.8-6.12-13.8-15.56,0-8.9,5.23-14.14,13.66-14.14,8.63,0,13.93,6.12,13.93,15.56,0,8.9-5.37,14.14-13.8,14.14Z"></path><path class="cls-1" d="M95.09,23.99c0-14.34-9.72-23.99-24.2-23.99-14.41,0-23.93,9.52-23.93,24.47,0,14.34,9.65,23.99,24.13,23.99,14.41,0,23.99-9.52,23.99-24.47ZM57.23,23.52c0-8.9,5.23-14.14,13.66-14.14,8.63,0,13.94,6.12,13.94,15.57,0,8.9-5.37,14.14-13.8,14.14-8.63,0-13.8-6.12-13.8-15.56Z"></path><polygon class="cls-1" points="116.54 16.86 142.02 46.9 151.81 46.9 151.81 1.7 142.02 1.7 142.02 31.95 116.6 1.7 106.75 1.7 106.75 46.9 116.54 46.9 116.54 16.86"></polygon><path class="cls-1" d="M196.36,86.77l21.07-18.01h-11.9s-25.56,21.89-25.56,21.89v-21.89s-9.79,0-9.79,0v45.2s9.79,0,9.79,0v-13.19s9.31-7.95,9.31-7.95c13.93,16.86,16.92,23.99,28.96,21.14l-.14-8.36c-4.96.95-10.54-3.13-21.75-18.83Z"></path><path class="cls-1" d="M11.83,81.06c0-2.99,5.44-5.17,11.28-5.17,5.91,0,12.24,2.24,13.93,7.95l8.02-3.13c-.95-9.18-11.49-13.59-22.09-13.59-11.28,0-22.63,5.03-22.63,14.89,0,20.46,35.01,8.57,35.01,18.28,0,4.83-8.84,5.1-12.85,5.1-4.21,0-9.99-.34-13.73-7.61l-8.77,4.69c3.13,13.19,18.01,13.19,23.59,13.19,10.06,0,22.56-3.53,22.56-16.18,0-19.44-34.32-8.9-34.32-18.42Z"></path></g></g></svg>