<svg xmlns="http://www.w3.org/2000/svg" id="Layer_2" data-name="Layer 2" viewBox="0 0 313.11 42.53"><defs><style>      .cls-1 {        fill: #231f20;      }    </style></defs><g id="Layer_1-2" data-name="Layer 1"><g><path class="cls-1" d="M37.97,40.28c.83,0,1.61.03,2.38,0,.51-.02.69.15.68.67-.01.47-.09.71-.64.7-3.41-.02-6.83-.02-10.24,0-.53,0-.67-.18-.67-.68,0-.49.11-.73.66-.69.58.04,1.17,0,1.81,0V10.73s-.1-.04-.14-.05c-.36.87-.74,1.74-1.09,2.62-1.98,4.91-3.94,9.83-5.93,14.74-1.34,3.32-2.7,6.63-4.04,9.95-.49,1.21-.95,2.43-1.47,3.63-.09.2-.4.42-.61.42-.21,0-.52-.23-.6-.43-1.21-2.9-2.39-5.82-3.58-8.73-1.68-4.12-3.35-8.24-5.03-12.37-1.43-3.52-2.86-7.04-4.29-10.55-.06-.15-.15-.28-.34-.4v30.72c.84,0,1.7.03,2.54-.01.56-.03.64.24.64.71,0,.44-.09.67-.61.67-2.26-.02-4.52-.03-6.78,0-.58,0-.62-.26-.63-.72,0-.46.11-.67.62-.65.78.03,1.57,0,2.42,0V2.39c-.77,0-1.57-.04-2.37.01C.06,2.44,0,2.14,0,1.65c0-.47.03-.78.65-.77,2.23.03,4.47.03,6.7,0,.49,0,.71.2.87.6,1.54,3.81,3.08,7.62,4.62,11.44,1.77,4.4,3.54,8.79,5.31,13.19.79,1.97,1.59,3.95,2.39,5.92.1.24.24.47.43.84.51-1.25.98-2.37,1.43-3.5,2.02-5.03,4.03-10.06,6.04-15.09,1.72-4.29,3.45-8.57,5.15-12.86.15-.38.34-.53.74-.52,2.01.02,4.03.03,6.04,0,.65-.01.62.33.64.78.02.51-.09.77-.68.74-.78-.05-1.56-.01-2.38-.01v37.88Z"></path><path class="cls-1" d="M53.03,40.28V4.16c-.65,0-1.28-.03-1.9,0-.55.03-.57-.28-.58-.69,0-.43.05-.68.59-.68,5.55.02,11.1-.05,16.65.04,2.56.04,4.91.92,6.83,2.69,1.56,1.44,2.29,3.34,2.46,5.37.2,2.42.07,4.84-.93,7.16-1.1,2.57-2.84,4.49-5.3,5.78-.3.16-.6.3-.95.48.6,1.17,1.16,2.28,1.75,3.39.67,1.26,1.36,2.51,2.03,3.78,1.41,2.71,2.83,5.42,4.21,8.14.26.51.55.75,1.12.66.22-.03.45.02.66-.01.7-.11.89.19.86.86-.02.53-.2.66-.7.65-2.16-.02-4.32,0-6.48-.03-.27,0-.65-.24-.77-.47-1.53-2.84-3.01-5.7-4.52-8.55-1.61-3.04-3.23-6.08-4.87-9.1-.12-.22-.41-.48-.63-.49-1.25-.05-2.5-.02-3.8-.02v17.16c.69,0,1.37.03,2.05,0,.57-.03.56.32.55.71-.02.37.13.8-.53.8-3.24-.02-6.48-.02-9.73,0-.66,0-.51-.43-.53-.8-.02-.39-.03-.74.55-.71.61.03,1.22,0,1.92,0ZM58.74,21.75c1.77,0,3.49.22,5.14-.05,3.59-.59,6.56-3.45,7-7.31.33-2.83-.18-5.57-1.75-8.03-.92-1.44-2.14-2.31-3.98-2.23-1.86.09-3.73.02-5.6.02-.26,0-.52.02-.81.04v17.56Z"></path><path class="cls-1" d="M88.47,37.47c0,1.14-.03,2.28.01,3.42.02.59-.17.77-.75.75-.54-.01-.78-.1-.78-.72.03-4.38.03-8.76,0-13.15,0-.6.2-.74.76-.74.56,0,.78.12.77.74-.04,2.26-.03,4.51.55,6.74.9,3.43,3.65,5.94,7.22,6.36,2.12.25,4.22.37,6.24-.55,2.29-1.04,3.72-2.75,4.21-5.21.77-3.9-.96-6.73-4.36-8.6-1.84-1.02-3.82-1.78-5.73-2.65-2.15-.98-4.27-1.98-5.96-3.71-1.47-1.51-2.3-3.32-2.48-5.37-.21-2.37,0-4.71,1.11-6.89,1.56-3.05,4.08-4.83,7.39-5.49,2.16-.43,4.33-.53,6.51.09,2.28.66,4.05,1.94,5.32,3.94.07.11.17.2.43.27,0-1.06.05-2.12-.02-3.17-.05-.76.26-.91.93-.87.44.03.6.16.59.61-.01,3.67-.02,7.34,0,11.02,0,.65-.35.61-.79.63-.52.03-.75-.11-.74-.69.03-1.63.05-3.24-.41-4.85-.96-3.38-3.91-5.8-7.41-5.8-1.8,0-3.48.23-4.91,1.46-1.2,1.03-1.85,2.33-2.18,3.83-.44,1.97-.61,3.92.48,5.77.91,1.55,2.31,2.56,3.89,3.31,2.41,1.14,4.9,2.12,7.31,3.25,2.33,1.1,4.27,2.69,5.54,4.98.75,1.36,1.14,2.84,1.24,4.36.14,2.04-.02,4.07-.84,6-.98,2.3-2.68,3.83-4.93,4.81-2.11.92-4.34,1.15-6.62,1.2-2.28.05-4.49-.13-6.62-1.02-1.83-.76-3.3-1.93-4.44-3.53-.12-.18-.25-.35-.38-.53-.06,0-.12.02-.18.03Z"></path><path class="cls-1" d="M289,40.28V4.01c-.77,0-1.52-.03-2.27,0-.55.03-.65-.2-.66-.69,0-.5.14-.68.67-.68,1.76,0,3.52-.1,5.28-.1,5.99.02,11.97.07,17.96.1.43,0,.7.03.82.56.59,2.51,1.23,5.01,1.86,7.5-.95.43-1.37.28-1.61-.56-.52-1.84-1.03-3.68-1.53-5.52-.1-.36-.17-.64-.63-.64-4.59.01-9.19,0-13.78.01-.07,0-.14.03-.25.07v16.01h10.83c0-.32,0-.65,0-.98,0-.78,0-1.57,0-2.35,0-.82.5-1.18,1.24-.86.13.05.25.3.25.46.01,2.91,0,5.83.02,8.74,0,.61-.4.5-.76.5-.35,0-.77.11-.76-.5.02-1.17,0-2.34,0-3.56h-10.83v18.68c.28.02.52.04.76.04,4.64,0,9.28,0,13.93.02.57,0,.77-.22.86-.72.33-1.88.68-3.76,1.04-5.63.16-.84.84-.34,1.26-.4.51-.07.42.41.37.68-.31,1.66-.65,3.32-.97,4.98-.13.66-.2,1.34-.36,2-.04.17-.27.31-.44.42-.09.06-.24.01-.36.01-8.01,0-16.02,0-24.02.01-.62,0-.89-.13-.85-.8.03-.47.22-.58.63-.57.73.02,1.47,0,2.29,0Z"></path><path class="cls-1" d="M178.12,40.28c-.35-1.04-.64-1.95-.96-2.86-.88-2.49-1.76-4.97-2.64-7.46-.3-.84-.61-1.68-.89-2.54-.19-.58-.5-.81-1.16-.81-3.81.04-7.61.03-11.42,0-.62,0-.89.2-1.1.77-1.43,3.88-2.9,7.75-4.35,11.62-.14.38-.24.77-.4,1.26,1.08,0,2.06.03,3.03-.01.57-.02.7.19.7.72,0,.54-.21.65-.7.65-2.26-.02-4.52-.02-6.78,0-.5,0-.69-.13-.69-.66,0-.54.16-.71.71-.71,1.91,0,1.9-.02,2.56-1.76,2.23-5.88,4.46-11.76,6.7-17.63,2.3-6.06,4.6-12.12,6.9-18.18.27-.7.58-1.39.81-2.1.13-.42.32-.59.77-.59.43,0,.64.14.79.57.83,2.37,1.71,4.73,2.57,7.1,1.83,5.07,3.67,10.15,5.5,15.22,2.02,5.6,4.04,11.19,6.04,16.8.18.5.42.63.9.6.61-.03,1.23.02,1.84-.01.59-.03.52.36.53.73.02.4-.06.64-.55.64-3.86-.01-7.71-.02-11.57,0-.53,0-.59-.24-.6-.67,0-.48.09-.72.65-.7.9.04,1.8.01,2.82.01ZM172.82,25.25c-1.94-5.49-3.84-10.85-5.73-16.2-.08,0-.16-.01-.24-.02-2.02,5.38-4.04,10.75-6.1,16.22h12.08Z"></path><path class="cls-1" d="M277.73,32.89c-.9,2.85-2.64,5.03-4.95,6.81-2.01,1.54-4.28,2.57-6.79,2.75-2,.14-4.05-.01-6.03-.3-2.35-.35-4.5-1.35-6.38-2.84-1.55-1.22-2.8-2.7-3.74-4.43-1.47-2.7-2.31-5.59-2.49-8.65-.12-2-.29-4.02-.12-6,.36-4.22,1.53-8.23,4.09-11.71,2.48-3.36,5.75-5.59,9.91-6.26,2.94-.48,5.89-.38,8.65.99,1.55.77,2.91,1.76,3.88,3.22.12.18.26.35.55.51,0-.59,0-1.17,0-1.76,0-.61.03-1.23,0-1.84-.03-.54.25-.59.68-.59.42,0,.69.03.69.58-.02,4.09-.02,8.18,0,12.27,0,.55-.28.57-.69.57-.43,0-.68-.06-.68-.59-.01-1.44-.04-2.88-.15-4.31-.14-1.75-.86-3.28-2.05-4.55-2.36-2.55-5.35-3.62-8.76-3.31-2.5.22-4.47,1.56-5.96,3.56-1.8,2.4-2.7,5.17-3.23,8.08-.43,2.32-.57,4.67-.61,7.03-.07,3.73.26,7.39,1.49,10.93.75,2.18,1.82,4.17,3.52,5.78,1.96,1.86,4.26,2.52,6.96,2.21,2.28-.26,4.35-.94,6.21-2.25,2.07-1.45,3.46-3.44,4.5-5.7.39-.85.4-.84,1.21-.41.09.05.16.1.31.2Z"></path><path class="cls-1" d="M202.89,40.23h12.41c.36-1.51.71-3.03,1.08-4.55.33-1.39.68-2.77.99-4.16.2-.92.91-.47,1.36-.47.6,0,.26.48.19.77-.69,3.16-1.37,6.32-2.09,9.48-.04.18-.32.33-.51.46-.09.06-.24.01-.36.01-7,0-14,0-21,0-.74,0-1.16-.65-.78-1.29.08-.13.37-.2.56-.2.78-.02,1.57,0,2.42,0V4.16c-.79,0-1.59-.03-2.38.01-.54.03-.66-.2-.66-.69,0-.5.14-.69.67-.68,3.56.02,7.12.02,10.69,0,.56,0,.63.23.65.7.01.52-.17.69-.68.67-.83-.03-1.66,0-2.53,0v36.08Z"></path><path class="cls-1" d="M235.91,40.28c.87,0,1.7.04,2.53-.01.68-.05.66.33.68.81.03.55-.16.71-.71.71-3.54-.02-7.07-.02-10.61,0-.6,0-.68-.26-.67-.75,0-.47.01-.81.65-.77.78.05,1.56.01,2.4.01V4.16c-.78,0-1.56-.03-2.33.01-.54.03-.73-.14-.72-.7,0-.51.17-.67.68-.67,3.56.02,7.12.02,10.68,0,.57,0,.63.25.63.71,0,.45-.1.68-.61.66-.85-.03-1.7,0-2.6,0v36.12Z"></path><path class="cls-1" d="M121.16,38.22c-.22-1.97,1.32-3.56,2.58-3.86,2.68-.63,4.9.95,4.98,3.6.04,1.14-.17,2.17-.92,3.05-1.06,1.25-2.82,1.5-4.29,1.04-1.33-.41-2.35-1.99-2.35-3.46,0-.12,0-.24,0-.37Z"></path></g></g></svg>