<svg xmlns="http://www.w3.org/2000/svg" id="Layer_2" data-name="Layer 2" viewBox="0 0 370.01 78.25"><defs><style>      .cls-1 {        fill: #231f20;      }    </style></defs><g id="Layer_1-2" data-name="Layer 1"><g><path class="cls-1" d="M10.51,46.16c0,10.23,0,20.02,0,30.2-3.48.37-6.69.16-10.19.14-.12-.91-.31-1.7-.31-2.49C0,50.13,0,26.25,0,2.38c0-.64.12-1.28.19-2.08C.81.2,1.34.03,1.86.04c10.95.12,21.9.23,32.85.41,3.91.06,7.55,1.32,11,3.04,3.18,1.59,5.52,4.06,7.38,7.11,3.91,6.43,4.67,19.28-1.43,26.56-2.92,3.48-6.36,6.18-10.79,7.17-3.73.83-7.55,1.44-11.36,1.66-5.13.3-10.29.13-15.44.17-1.02,0-2.03,0-3.56,0ZM10.64,8.49c0,9.75,0,19.4,0,29.01.45.18.71.38.96.37,7.1-.08,14.19-.1,21.28-.33,2.33-.07,4.58-.87,6.53-2.29,4.71-3.43,6.82-10.07,5.21-16.38-1.56-6.1-5.62-9.78-12.13-10.22-6.7-.45-13.44-.41-20.16-.55-.53-.01-1.06.23-1.69.38Z"></path><path class="cls-1" d="M190.29,52.24c-14.23,0-28.04,0-41.77,0-1.68,6.14,3.77,14.89,10.62,17.41,4.24,1.56,8.45,1.27,12.61-.29,4.36-1.64,6.85-4.99,8.18-9.38,3.35,0,6.59,0,10.27,0-.31,1.27-.48,2.34-.82,3.35-1.94,5.76-5.87,9.72-11.39,12.07-8.17,3.48-16.53,3.77-24.93.92-5.69-1.93-9.93-5.74-12.38-11.16-4.41-9.76-4.83-19.78-.32-29.61,4.23-9.24,11.78-14.01,21.85-14.76,3.74-.28,7.48-.12,11.13.95,4.74,1.4,8.67,3.93,11.43,8.1,4.41,6.67,5.45,14.16,5.52,22.39ZM148.32,44.16c3.09.71,29.19.57,31.08-.13.07-8.91-6.46-15.82-15.04-15.91-9.18-.09-16.04,6.69-16.04,16.04Z"></path><path class="cls-1" d="M291.45,38.57c-3.09,0-6.05,0-9.15,0-.42-2.2.08-4.14.83-6.03,1.35-3.42,3.68-6.06,6.79-7.98,3.31-2.04,6.9-3.37,10.79-3.7,4.39-.38,8.8-.51,13.12.58,7.88,1.99,12.74,7.6,13.36,15.72.34,4.47.25,8.97.38,13.46.2,6.92.38,13.83.64,20.75.06,1.56.43,3.11.65,4.64-2.12.59-5.71.66-8.97.16-.34-1.97-.7-4.04-1.11-6.4-.57.46-1,.73-1.35,1.1-2.91,3.09-6.44,5.04-10.59,5.96-5.12,1.13-10.21,1.15-15.27-.27-9.77-2.73-13.79-12.72-10.53-21.1,1.63-4.19,5.04-6.66,9.06-8.28,4.81-1.94,9.86-2.87,15.01-3.33,3.73-.33,7.45-.73,11.17-1.03,1.32-.11,1.78-.78,1.77-2-.06-7.51-3.19-12.84-11.66-13.12-2.47-.08-5.07.3-7.43,1.02-3.72,1.14-6.23,3.68-6.91,7.72-.12.72-.4,1.41-.61,2.16ZM317.89,50c-6.7.44-12.91.39-18.84,2.31-2.1.68-4.12,1.77-6.01,2.93-2.04,1.25-2.95,3.29-3.11,5.68-.25,3.92,1.99,7.45,5.96,8.9,4.99,1.82,9.97,1.47,14.7-.86,1.46-.72,2.83-1.9,3.83-3.19,3.56-4.58,3.67-9.95,3.47-15.77Z"></path><path class="cls-1" d="M111.81,49.51c-.26,3.61-.68,7.11-1.81,10.53-2.92,8.88-8.86,14.59-17.86,17.01-6.6,1.77-13.19,1.47-19.53-1.15-8.92-3.68-13.7-10.72-15.38-19.95-1.17-6.45-.88-12.89,1.64-19.03,4.03-9.84,11.49-15.19,22.04-16.12,4.29-.38,8.59-.22,12.76,1.2,9.11,3.09,14.59,9.49,16.89,18.66.72,2.88.86,5.9,1.26,8.85ZM66.9,49.21c.04,5.02.86,9.86,3.69,14.16,6.38,9.7,21.27,9.78,27.18-.13,5.15-8.66,5.26-17.85.54-26.76-3.11-5.88-8.39-8.6-15.08-8.35-6.29.24-10.75,3.41-13.64,8.85-2.02,3.8-2.63,7.96-2.68,12.23Z"></path><path class="cls-1" d="M240.49,38.46c-3.23,0-6.19,0-9.2,0-.18-.46-.38-.78-.44-1.12-.8-5.32-3.55-8.36-8.76-9.06-2.57-.35-5.26-.35-7.82,0-1.77.24-3.63,1.07-5.09,2.12-3.84,2.74-3.81,8.02.14,10.63,1.97,1.31,4.37,2.12,6.69,2.72,3.98,1.03,8.09,1.54,12.06,2.59,2.68.71,5.41,1.66,7.76,3.08,8.47,5.12,9.02,17.23,1.26,23.4-3.09,2.45-6.65,3.79-10.44,4.59-6.35,1.35-12.68,1.01-18.87-.86-6.2-1.88-10.71-5.66-12.44-12.17-.35-1.32-.41-2.72-.63-4.35,3.45,0,6.58,0,9.8,0,.38,1.24.71,2.49,1.15,3.69.96,2.6,2.8,4.42,5.35,5.44,5.05,2.03,10.21,2.25,15.38.6,2.84-.91,4.86-2.78,5.4-5.89.47-2.71-.18-5.12-2.47-6.72-1.51-1.05-3.22-2-4.98-2.45-4.43-1.12-8.96-1.86-13.42-2.9-2.27-.53-4.55-1.17-6.67-2.11-10.5-4.65-10.67-18.5-2.77-24.34,2.69-1.99,5.65-3.35,8.9-3.96,6.81-1.29,13.62-1.4,20.16,1.27,6.31,2.57,9.69,7.4,10.16,14.21.03.45-.11.9-.2,1.59Z"></path><path class="cls-1" d="M243.86,29.92c0-2.74,0-5.02,0-7.59,3.41-.1,6.63-.19,10.22-.3.04-4.42.08-8.58.12-12.89,3.33,0,6.29,0,9.59,0,.1.75.27,1.54.29,2.33.04,2.72-.02,5.43.02,8.15.03,2.32.24,2.53,2.63,2.56,3.08.04,6.15,0,9.31,0,.76,2.6.26,4.97.36,7.72-2.94,0-5.62.01-8.3,0-4.23-.03-4.01-.15-4,3.95.01,7.3-.03,14.61.02,21.91.02,2.62.13,5.24.37,7.85.35,3.78,2.22,5.51,6,5.67,1.86.08,3.73.01,5.59.01.67,1.93.75,3.7.24,7.16-5.25,1.17-10.59,1.71-15.77-.63-4.02-1.82-5.39-5.55-6-9.56-.31-2.02-.32-4.11-.33-6.16-.03-9.08-.01-18.17,0-27.25,0-2.88-.03-2.93-3.01-2.95-2.33-.01-4.66,0-7.32,0Z"></path><path class="cls-1" d="M129.5,76.54c-3.1,0-5.71,0-8.32,0-1.17,0-1.7-.6-1.66-1.76.01-.37.01-.75.01-1.12,0-23.48,0-46.97,0-70.45,0-.91,0-1.83,0-2.98,3.33-.4,6.37-.13,9.73-.22.46,6.51.15,12.84.21,19.15.06,6.36.02,12.72.02,19.09,0,6.27,0,12.54,0,18.81,0,6.34,0,12.68,0,19.49Z"></path><path class="cls-1" d="M348.01,76.38c-3.38,0-6.34,0-9.25,0-.68-2.52-.67-51.66.01-54.01,2.81,0,5.66,0,8.89,0,0,2.25,0,4.34,0,6.42.19.07.39.15.58.22.49-.46,1.04-.87,1.48-1.37,5.02-5.89,11.61-6.63,18.7-5.72.94.12,1.59.53,1.6,1.59,0,2.22,0,4.44,0,6.84-1.93-.18-3.49-.43-5.05-.43-1.96,0-3.98-.07-5.85.39-6.09,1.5-9.51,5.67-10.31,12.48-.37,3.15-.56,6.34-.6,9.52-.09,6.93-.02,13.86-.03,20.79,0,1.01-.09,2.01-.15,3.29Z"></path></g></g></svg>