<?xml version="1.0" encoding="UTF-8"?>
<svg id="Layer_2" data-name="Layer 2" xmlns="http://www.w3.org/2000/svg" viewBox="0 0 1618.12 238.78">
  <defs>
    <style>
      .cls-1 {
        fill: #fff;
      }
    </style>
  </defs>
  <g id="Artwork">
    <g>
      <path class="cls-1" d="M1456,188.16c-35.44,0-58.07-18.38-61.27-47.16h30.63c3.74,14.66,16.79,20.79,30.9,20.79,13.05,0,23.71-5.59,23.71-15.45s-10.13-12.53-23.98-14.93l-14.12-2.39c-26.64-4.53-43.15-15.72-43.15-39.69,0-26.11,22.91-42.36,54.61-42.36s53.29,16.78,57.82,43.42h-30.38c-3.73-12.26-14.65-17.84-27.17-17.84-13.6,0-22.38,5.85-22.38,14.11s6.92,11.19,21.31,13.59l14.12,2.4c25.84,4.26,45.55,14.92,45.55,40.76,0,28.24-23.45,44.75-56.22,44.75"/>
      <path class="cls-1" d="M1301.99,158.06c20.51,0,35.44-15.73,35.44-40.5s-14.93-40.49-35.44-40.49-35.7,16.52-35.7,40.49,14.92,40.5,35.7,40.5M1337.16,69.34V.34h31.43v183.82h-31.43v-19.72c-7.99,13.32-23.18,23.71-43.7,23.71-36.5,0-61.27-28.77-61.27-69.27s27.18-71.94,63.67-71.94c18.12,0,33.04,9.59,41.3,22.38"/>
      <path class="cls-1" d="M1142.49,158.06c20.51,0,35.44-16.26,35.44-40.5s-14.93-40.5-35.44-40.5-35.44,16.25-35.44,40.5,14.65,40.5,35.44,40.5M1142.49,188.16c-39.69,0-69.54-29.58-69.54-70.6s29.84-70.6,69.54-70.6,69.53,29.57,69.53,70.6-30.1,70.6-69.53,70.6"/>
      <path class="cls-1" d="M983.25,158.06c20.51,0,35.44-16.26,35.44-40.5s-14.93-40.5-35.44-40.5-35.44,16.25-35.44,40.5,14.65,40.5,35.44,40.5M983.25,188.16c-39.69,0-69.53-29.58-69.53-70.6s29.83-70.6,69.53-70.6,69.54,29.57,69.54,70.6-30.11,70.6-69.54,70.6"/>
      <path class="cls-1" d="M823.01,154.86c20.51,0,35.44-15.18,35.44-39.43s-14.93-39.43-35.44-39.43c-20.78,0-35.7,16.25-35.7,39.43s14.92,39.43,35.7,39.43M858.18,68.54v-17.58h31.16v125.22c0,39.96-28.77,62.6-68.47,62.6s-59.67-21.85-63.66-46.36h31.96c3.2,9.59,12.53,19.18,31.71,19.18,22.64,0,37.83-12.79,37.83-35.7v-15.72c-8.25,13.32-23.97,23.71-44.48,23.71-36.5,0-61.01-27.71-61.01-67.14s27.18-69.79,63.41-69.79c17.85,0,33.03,8.79,41.56,21.57"/>
      <path class="cls-1" d="M668.43,74.14c-16.77,0-31.97,9.86-35.16,28.25h68.47c-2.94-18.65-17.32-28.25-33.3-28.25M734.24,124.49h-101.5c1.6,22.38,17.06,35.16,35.7,35.16,17.32,0,26.64-7.72,31.17-20.77h33.84c-6.39,28.24-31.97,49.28-65.01,49.28-41.02,0-68.2-27.97-68.2-70.86s28.77-70.33,68.47-70.33,65.54,30.9,65.54,71.66v5.86Z"/>
      <path class="cls-1" d="M514.17,188.16c-39.17,0-68.73-29.04-68.73-70.6s29.57-70.6,68.73-70.6c34.37,0,60.74,22.38,65.27,55.68h-32.5c-3.46-15.18-14.66-25.58-32.5-25.58-20.51,0-34.9,15.72-34.9,40.23s14.39,40.76,34.9,40.76c17.84,0,29.31-10.39,33.03-26.65h32.51c-3.73,33.3-29.84,56.75-65.81,56.75"/>
      <path class="cls-1" d="M354.39,163.12c21.85,0,34.37-16.51,34.37-33.3v-6.92c-6.92.27-7.99.27-12.25.54-26.37,1.6-43.97,6.12-43.97,21.84,0,11.2,9.06,17.85,21.85,17.85M345.33,188.16c-25.57,0-46.36-15.45-46.36-40.76,0-32.5,32.23-42.89,71.13-44.49l18.65-.53v-4.53c0-14.39-9.32-23.71-25.84-23.71s-25.58,8.52-27.97,21.31h-31.98c2.67-27.44,23.98-48.49,59.95-48.49,34.1,0,56.74,17.58,56.74,50.61v63.14c0,8.26.8,19.72,1.33,22.91v.54h-31.96c-.28-3.19-.28-9.32-.28-15.18-10.13,11.99-23.97,19.18-43.42,19.18"/>
      <path class="cls-1" d="M210.4,158.06c20.5,0,35.16-16.51,35.16-40.5s-14.66-40.5-35.16-40.5-34.63,15.72-34.63,40.5,14.65,40.5,34.63,40.5M218.92,46.97c35.7,0,60.21,28.77,60.21,69.27s-26.92,71.93-62.6,71.93c-17.85,0-32.5-9.32-40.5-22.11v68.72h-30.9V50.95h30.9v19.45c7.73-13.31,22.91-23.44,42.89-23.44"/>
      <path class="cls-1" d="M61.27,188.16c-35.44,0-58.07-18.38-61.27-47.16h30.64c3.73,14.66,16.79,20.79,30.9,20.79,13.05,0,23.71-5.59,23.71-15.45s-10.13-12.53-23.98-14.93l-14.12-2.39c-26.64-4.53-43.15-15.72-43.15-39.69,0-26.11,22.91-42.36,54.61-42.36s53.29,16.78,57.82,43.42h-30.38c-3.73-12.26-14.65-17.84-27.17-17.84-13.6,0-22.38,5.85-22.38,14.11s6.92,11.19,21.31,13.59l14.11,2.4c25.85,4.26,45.55,14.92,45.55,40.76,0,28.24-23.44,44.75-56.21,44.75"/>
      <path class="cls-1" d="M1595.72,76.87c19.94-9.97,28.13-34.51,18.16-54.45-9.97-19.95-34.5-28.14-54.45-18.17-19.95,9.97-28.14,34.51-18.17,54.45,9.98,19.95,34.5,28.14,54.46,18.17M1590.91,67.24c-14.7,7.35-32.69,1.35-40.02-13.35-7.35-14.7-1.35-32.68,13.35-40.02,14.7-7.34,32.68-1.35,40.03,13.35,2.36,4.73,3.1,8.41-2.85,9.63-11.11,2.05-22.7-1.89-30.39-10.29-1.66-1.79-3.49-2.41-5.38-.92-1.17.92-2.1,1.93-2.94,2.88-1.4,1.79-1.14,3.64.35,5.29,9.93,10.9,25.1,16.11,39.68,13.75,2.31-.4,3.67.78,2.94,3.01-2.51,7.04-7.58,13.08-14.75,16.66"/>
    </g>
  </g>
</svg>