<svg xmlns="http://www.w3.org/2000/svg" id="Layer_2" data-name="Layer 2" viewBox="0 0 252.16 45.55"><g id="Artwork"><path d="M9.91,36.31c-2.27,0-5.19-.49-8.78-1.48l-.9-7.92.35-.05c3.7,5.44,6.81,8.15,9.28,8.15.72,0,1.32-.21,1.78-.63.46-.42.69-.99.69-1.71,0-.9-.39-1.74-1.2-2.48-.81-.74-2.2-1.67-4.17-2.76-.77-.44-1.3-.76-1.62-.95-.32-.18-.83-.51-1.53-.97-.69-.46-1.2-.88-1.53-1.25-.33-.37-.7-.83-1.11-1.39-.42-.56-.72-1.16-.9-1.81-.19-.65-.28-1.34-.28-2.06,0-2.2.81-3.91,2.41-5.14,1.6-1.23,3.66-1.83,6.16-1.83,1.99,0,4.66.42,8.01,1.23l.72,7.37-.35.09c-3.47-4.88-6.32-7.34-8.52-7.36-.67,0-1.2.21-1.62.6-.42.4-.62.93-.62,1.6,0,1.02.46,1.88,1.37,2.57.9.69,2.36,1.53,4.35,2.52,2.18,1.11,3.87,2.29,5.07,3.57,1.21,1.27,1.81,2.89,1.81,4.86,0,2.18-.79,3.91-2.36,5.23-1.58,1.32-3.75,1.97-6.55,1.97l.05.02Z"></path><path d="M38.19,25.78c0-6.92-1.27-10.4-3.84-10.4-1.11,0-2.2.74-3.29,2.2v10.1c.35,1.81.88,3.36,1.58,4.68.69,1.32,1.58,1.97,2.62,1.97,1.97,0,2.94-2.85,2.94-8.54ZM38.07,12.07c2.48,0,4.63.95,6.48,2.85,1.85,1.9,2.78,4.84,2.78,8.82s-1.02,7.27-3.05,9.33c-2.04,2.06-4.38,3.08-7.04,3.08-2.25,0-4.28-.65-6.11-1.92h-.09v5.4c0,1.69.21,2.82.63,3.41.42.58,1.34,1.18,2.76,1.81v.35h-14.61v-.35c1.02-.67,1.67-1.3,1.97-1.85.3-.56.44-1.69.44-3.38v-21.91c0-.88-.16-1.55-.49-1.99-.32-.44-.97-.95-1.95-1.53v-.28c3.89-.25,7.57-.9,11.05-1.94l-.04,4.08.09.05c1.92-2.69,4.31-4.03,7.16-4.03l.05.02Z"></path><path d="M61.02,31.26c1.18,0,2.22-.63,3.13-1.85l.19-7.97c-3.82,1.09-5.74,3.19-5.74,6.32,0,1.13.23,2.01.67,2.62.44.6,1.02.9,1.74.9l.02-.02ZM69.24,36.15c-1.83,0-3.13-.51-3.89-1.53-.76-1.02-1.11-2.22-1.04-3.61h-.09c-.67,1.39-1.74,2.59-3.2,3.61-1.46,1.02-3.15,1.53-5.07,1.53s-3.54-.53-4.72-1.6c-1.18-1.07-1.76-2.41-1.76-4.05,0-2.43,1.3-4.45,3.89-6.02,2.59-1.57,6.23-2.94,10.91-4.08l.04-4.12c0-.79-.19-1.48-.55-2.06-.37-.58-.97-.88-1.78-.88-1.23,0-2.22.81-2.99,2.43-.77,1.62-1.3,3.52-1.6,5.67l-.28.05-5.79-3.2c.79-1.64,2.18-3.08,4.17-4.33,1.99-1.25,4.61-1.88,7.83-1.88,1.69,0,3.15.21,4.38.63,1.23.42,2.15.92,2.8,1.53.65.6,1.16,1.34,1.53,2.22.37.88.6,1.67.67,2.36.07.7.09,1.48.07,2.36l-.23,10.17c0,1.04.37,1.55,1.14,1.53.79,0,1.46-.6,1.99-1.81l.37.21c-.44,1.32-1.23,2.45-2.34,3.4-1.11.95-2.57,1.44-4.38,1.44l-.07.02Z"></path><path d="M88.35,36.15c-3.29,0-6.09-1.04-8.43-3.15-2.34-2.11-3.5-5.12-3.5-9.03s1.16-6.81,3.45-8.85c2.29-2.04,5.09-3.06,8.38-3.06,4.31,0,7.5,1.76,9.59,5.26l-5.37,4.1-.32-.16c-.12-1.92-.53-3.71-1.25-5.35-.72-1.64-1.67-2.48-2.87-2.48-1.11,0-1.99.67-2.61,2.04-.63,1.37-.95,3.13-.95,5.28,0,2.99.63,5.35,1.9,7.11,1.27,1.76,3.08,2.64,5.42,2.64,2.85,0,5.03-1.39,6.53-4.17l.44.18c-.19,1.13-.51,2.22-.95,3.27-.44,1.04-1.04,2.06-1.81,3.06-.76.99-1.81,1.78-3.13,2.38-1.32.6-2.8.9-4.45.9l-.07.02Z"></path><path d="M111.79,13.34c-2.06,0-3.2,2.34-3.41,7.04h6.92c-.12-4.7-1.3-7.04-3.54-7.04h.02ZM123.18,27.05c-1.3,6.04-4.84,9.06-10.63,9.06-3.5,0-6.42-1.09-8.73-3.24-2.32-2.15-3.47-5.14-3.47-8.96s1.16-6.74,3.47-8.8c2.31-2.06,5.26-3.1,8.8-3.1s6.07.93,7.85,2.78c1.78,1.85,2.69,3.98,2.69,6.37v.53h-14.8v.42c0,2.89.79,5,2.36,6.34,1.57,1.34,3.47,2.02,5.72,2.02,2.94,0,5.12-1.18,6.51-3.57l.23.16Z"></path><path d="M136.52,44.26c1.69,0,3.1-.25,4.26-.74,1.16-.49,1.74-1.18,1.74-2.08,0-1.2-.97-2.04-2.89-2.52-.42-.09-1.67-.35-3.77-.77-2.11-.42-3.5-.69-4.17-.81-1.11.97-1.67,2.04-1.67,3.22s.6,2.15,1.83,2.78c1.23.62,2.78.95,4.68.95v-.02ZM135.39,13.29c-.67,0-1.2.35-1.62,1.02-.42.67-.63,1.67-.63,2.96,0,.72.07,1.55.21,2.52.14.97.35,1.97.62,3.01.28,1.04.67,1.92,1.18,2.64.51.72,1.11,1.06,1.8,1.06.62,0,1.16-.32,1.57-.97.42-.65.63-1.62.63-2.92,0-1.9-.3-3.94-.93-6.11-.63-2.18-1.55-3.27-2.78-3.27l-.07.05ZM142.75,31.61c4.4,1.11,6.6,3.24,6.6,6.39,0,1.39-.44,2.59-1.32,3.64-.88,1.04-2.04,1.83-3.45,2.36-1.41.53-2.87.93-4.35,1.18-1.48.25-2.99.37-4.49.37-2.85,0-5.44-.39-7.8-1.18-2.36-.79-3.54-1.9-3.54-3.33,0-1.88,2.04-3.24,6.14-4.12-3.31-.86-4.98-2.36-4.98-4.54,0-1.23.56-2.32,1.67-3.24,1.11-.93,2.55-1.57,4.33-1.97-4.24-.97-6.37-3.38-6.39-7.2,0-2.59.95-4.56,2.85-5.91s4.31-2.01,7.2-2.01h1.14c2.18,0,3.78-.37,4.79-1.14,1.02-.76,1.57-1.64,1.67-2.64l5.93,1.94v.19c-1.3,1.83-3.71,2.75-7.25,2.75-1.11,0-2.15-.07-3.15-.23v.18c5.81,1.02,8.73,3.45,8.73,7.32,0,2.32-.95,4.1-2.85,5.35-1.9,1.25-4.58,1.88-8.03,1.88-1.14,0-2.13-.07-2.99-.19-1.11.19-1.67.56-1.65,1.14,0,.49.3.76.88.86.02,0,.72.14,2.08.42,1.37.28,2.89.58,4.61.93,1.71.35,2.94.6,3.7.79l-.07.02Z"></path><path d="M163.09,34.81c.79,0,1.44-.46,1.92-1.37.49-.9.74-2.29.74-4.15,0-1.64-.11-3.57-.37-5.79-.25-2.22-.79-4.47-1.6-6.72-.81-2.24-1.83-3.38-3.03-3.38-.79,0-1.44.46-1.95,1.39-.51.93-.76,2.34-.76,4.24,0,1.64.14,3.57.39,5.77.26,2.2.79,4.42,1.6,6.65.81,2.22,1.83,3.34,3.06,3.34v.02ZM161.72,36.15c-3.82,0-6.88-1-9.19-3.01-2.31-2.02-3.47-4.93-3.47-8.78s1.18-6.92,3.54-9.08c2.36-2.15,5.53-3.24,9.52-3.24s6.88,1,9.17,3.01c2.29,2.01,3.45,4.96,3.45,8.85s-1.16,6.9-3.5,9.03c-2.34,2.13-5.49,3.2-9.47,3.2l-.05.02Z"></path><path d="M190.93,34.81c.79,0,1.44-.46,1.92-1.37.49-.9.74-2.29.74-4.15,0-1.64-.11-3.57-.37-5.79-.25-2.22-.79-4.47-1.6-6.72-.81-2.24-1.83-3.38-3.03-3.38-.79,0-1.44.46-1.95,1.39-.51.93-.76,2.34-.76,4.24,0,1.64.14,3.57.39,5.77.25,2.2.79,4.42,1.6,6.65.81,2.22,1.83,3.34,3.06,3.34v.02ZM189.56,36.15c-3.82,0-6.88-1-9.19-3.01-2.31-2.02-3.47-4.93-3.47-8.78s1.18-6.92,3.54-9.08c2.36-2.15,5.53-3.24,9.52-3.24s6.88,1,9.17,3.01c2.29,2.01,3.45,4.96,3.45,8.85s-1.16,6.9-3.5,9.03c-2.34,2.13-5.49,3.2-9.47,3.2l-.05.02Z"></path><path d="M221.06,30.73v-10.54c-.97-4.17-2.36-6.25-4.15-6.25-1.97,0-2.94,2.92-2.94,8.78,0,6.79,1.23,10.19,3.71,10.19,1.11,0,2.25-.72,3.38-2.18ZM213.97,36.17c-2.43,0-4.56-.97-6.42-2.92-1.85-1.94-2.78-4.89-2.78-8.84,0-2.15.3-4.05.9-5.7.6-1.64,1.41-2.94,2.43-3.87,1.02-.93,2.08-1.62,3.22-2.09,1.14-.46,2.31-.69,3.54-.69s2.43.21,3.59.63c1.16.42,2.02.83,2.59,1.27v-7.46c0-1.57-.79-2.94-2.39-4.12v-.37c3.8-.26,7.53-.93,11.19-2.02v30.5c0,.97.16,1.67.49,2.11.33.44.97.9,1.97,1.39v.35l-11,1.78-.05-4.12h-.09c-.58,1.09-1.5,2.04-2.8,2.87-1.3.83-2.76,1.25-4.4,1.25v.05Z"></path><path d="M243.29,36.31c-2.27,0-5.19-.49-8.78-1.48l-.9-7.92.35-.05c3.7,5.44,6.81,8.15,9.28,8.15.72,0,1.32-.21,1.78-.63.46-.42.69-.99.69-1.71,0-.9-.39-1.74-1.2-2.48-.81-.74-2.2-1.67-4.17-2.76-.76-.44-1.3-.76-1.62-.95-.32-.18-.83-.51-1.53-.97-.69-.46-1.2-.88-1.53-1.25-.33-.37-.7-.83-1.11-1.39-.42-.56-.72-1.16-.9-1.81-.18-.65-.28-1.34-.28-2.06,0-2.2.81-3.91,2.41-5.14,1.6-1.23,3.66-1.83,6.16-1.83,1.99,0,4.66.42,8.01,1.23l.72,7.37-.35.09c-3.47-4.88-6.32-7.34-8.52-7.36-.67,0-1.2.21-1.62.6-.42.4-.62.93-.62,1.6,0,1.02.46,1.88,1.37,2.57.9.69,2.36,1.53,4.35,2.52,2.18,1.11,3.87,2.29,5.07,3.57,1.21,1.27,1.81,2.89,1.81,4.86,0,2.18-.79,3.91-2.36,5.23-1.57,1.32-3.75,1.97-6.55,1.97l.05.02Z"></path></g></svg>