<svg xmlns="http://www.w3.org/2000/svg" id="Layer_2" viewBox="0 0 124.9 37.3"><g id="Layer_1-2"><g><path d="M44.7,18.2c2-.1,3.8-.1,5.5-.3,2.7-.4,4.5-2.4,4.6-5.1.2-3-1.3-5.4-3.9-5.9-2-.4-4.1-.3-6.3-.5M63.9,37.3c-3,0-5.8,0-8.5,0-.5,0-1.1-.5-1.4-1-2.8-4-5.5-8-8.3-12.1-.3-.4-.6-.8-1.1-1.5v14.6h-7.5V.5c0,0,.2-.2.2-.2,5.2,0,10.4-.1,15.5.4,4.6.4,8.1,2.9,9.2,7.7,1.1,4.8.6,9.2-3.6,12.5-1.3,1-2.9,1.6-4.5,2.5,3.2,4.5,6.5,9.1,10,14"></path><path d="M107.1,18.2c1.7,0,3.3.1,4.8,0,3-.2,5.1-2.3,5.3-5.1.3-2.9-1.2-5.4-4.1-6.1-1.9-.5-4-.4-6.1-.6M99.5,0c5.7.3,11.4,0,16.9,1,6.2,1,9,5.8,8.5,12.7-.4,5.6-4.6,10.1-10.3,10.7-2.5.2-4.9.2-7.6.4v12.5h-7.5V0Z"></path><polyline points="0 .4 0 6.4 8.8 6.4 8.8 37.2 16.4 37.2 16.4 6.4 25.1 6.4 25.1 .4"></polyline><rect x="77.5" y=".4" width="7.4" height="36.9"></rect></g></g></svg>