<?xml version="1.0" encoding="UTF-8"?>
<svg id="Layer_2" data-name="Layer 2" xmlns="http://www.w3.org/2000/svg" viewBox="0 0 1081.26 700.45">
  <g id="Layer_1-2" data-name="Layer 1">
    <g>
      <path d="M878.61,43.91c17.75-4.79,37.7-.71,49.51,13.99,2.38,2.97,4.62,8.66,6.54,10.46,2.63,2.48,8.33,4.28,11.48,7.52,18.83,19.36,5.88,58.22-7.31,77.76l-16.22,17.26c18.9-1.09,37.66-4.45,56.5-5.98,18.04-1.46,42.15-3.9,59.48.5,31.16,7.91,59.68,57.15,30.49,82.47-16.28,14.12-33.01,6.65-52.02,6.98-27.78.48-57.25,4.84-84.64,9.36-10.68,1.76-22.97,3.3-32.81,7.19,19.32,5.43,40.23,16.61,50.17,34.82,14.41,26.41-2.4,52.04-18.18,73.15,10.45,14.77,20.55,29.21,22.05,47.98,3.99,50.09-39.04,83.92-86.02,85.05-11.37,15.53-24.93,31.05-44.04,36.96-31.42,9.73-64.55-.46-84.6-26.29-25.73,12-53.97,14.12-79.47.26-20.44,19.19-49.9,30.15-77.95,24.09-7.85-1.7-14.78-5.64-22.22-8.36-11.75,9.6-24.44,16.71-39.75,18.84,22.13,23.21,13.18,53.28-12.7,68.79-49,29.37-119.62,18.69-147.81-33.8-21.68,30.78-67.18,17.7-90-4.99-11.26,23.53-20.75,47.9-35.27,69.71-13.24,19.88-23.92,32.9-48.02,38.98-34.94,8.81-96.93,4.43-112.97-34.45-9.2-22.31-1.4-56.69,25.5-62.02,7.05-1.4,7.47,1.39,13.91-4.59,16.3-15.12,32.83-41.98,44.16-61.34,33.48-57.27,59.05-120.11,74.18-184.82-4.7.29-10.05,2.73-14.34,4.66-35.6,15.97-84.25,62.29-86.62,103.37-1.05,18.3,6.61,30.93-11.54,45.47-41.01,32.85-106.09-29.52-115.78-69.18-16.32-66.83,57.62-122.58,108.63-149.97,17.23-9.25,35.29-17.14,53.67-23.84-9.78-6.58-19.26-12.35-26.97-21.52-25.33-30.11-21.22-87.03-32.06-124.03,3.24-42.82,53.27-32.12,76.53-12.46,7.71-10.46,17.22-20.95,28.83-27.15,22.37-11.95,48.98-12.67,71.71-1.38,2.68,1.33,12.85,8.93,14.32,8.49,37.35-57.52,125.22-43.73,141.35,23.83,1.35,5.67,1.53,17,3.48,21.51,1.49,3.43,5.76-.02,8.78.7,1.64-49.97,58.58-77.92,101.83-84.67,22.54-3.52,40.16,4.01,54.17,21.68,10.76-29,29.96-49.33,63.43-44.91,22.89,3.02,41.37,27.46,27,48.83l-10.4,10.08c14.78-6.81,32.76-4.54,44.49,6.96,15.4-18.1,37.87-28.47,61.43-19.99,8.09-17.33,16.9-49.5,33.73-59.81,28.03-17.17,65.77,4.12,52.34,37.83ZM831.86,132.65c-1.43-1.35-3.01-8.03-3.24-10.25-2.24-21.89,10.14-56.02,18.52-76.46,1.07-2.61,7.5-14.71,7.48-15.57-.12-6.03-13.02-3.36-16.85,1.19-8.62,10.24-21.94,47-26.18,60.82-5.99,19.58-6.78,45.99-30.03,52.97-27.97,8.4-27.12-19.15-15.79-35.79,7.48-10.98,15.83-8.69,13.59,5.6-.66,4.23-3.35,7.82-4.75,11.73,13.64-.34,23.45-22.17,13.03-32.53-11.61-11.54-28.45-.31-36.55,9.52-12.02,14.6-10.08,31.94-20.46,43.54s-18.93,7.43-18.75-7.74c.13-11.15,10.01-27.56-.34-35.22-13.14-9.73-31.69,10.03-34.95,22.43l-1.22-8.26c-1.73-8.6-18-11.52-19.67-6.05-.35,1.15,1.15,11.92.78,15.7-1.48,15.17-18.39,48.46-8.3,60.54,2.47,2.96,15.03,10.36,17.98,6.14,1-1.42.33-12.02.72-15.28,2.23-18.83,15.42-40.28,25.74-55.77l2.96,2.44c-5.35,16.77-14.69,35.06-6.38,52.46,12.72,26.65,46.06,5.84,50.41-15.9,17.93,27.66,51.76,20,64.49-8,7.85,22.16,31.4,19.51,44.47,3.47,4.05-4.97,6.16-11.1,9.52-16.46,19.12,23.6,47.74,16.91,61.67-8.35,3.57-6.48,13.88-34.43,6.89-39.22-3.95-2.71-4.91,5.27-6.2,7.91-4.13,8.44-8.01,15.7-16.8,20.2-10.91,5.58-27.45,5.91-28.05-9.55,18.66,6.83,49.44-28.25,27.95-41.46-19.7-12.11-41.37,14.16-46.99,30.93-3.04,9.04-1.75,16.16-7.99,24.01-3.3,4.15-11.57,11.1-16.72,6.26ZM603.6,194.92c-.56,17.7,11.97,38.7,30.61,40.89,7.45.87,27.68-.64,30-9.84.61-2.42-10.33-4.68-13.64-7.52-34.01-29.16-9.96-120.1,11.41-152.66,3.71-5.66,7.55-10.15,13.61-13.37-9.9-10.6-26.72-6.77-34.8,4.18-27.88,37.73-29.52,105.87-60.2,141.8-3.55,4.16-8.89,9.89-13.46,3.51s.14-21.56,1.98-28.99c5.39-21.82,23.69-67.46,17-87.98s-29.42-15.95-45.49-11.5c-24.55,6.8-66.44,26.98-62.89,57.89,1.21,10.5,15.93,28.67,27.83,25.54-6.39-34.52,23.89-68.09,57.96-69.85,2.98,2.05-.48,21.93-1.38,25.95-7.25,32.31-35.2,73.29-23.29,106.23,5.06,14,19.21,24.5,34.59,20.07,11.84-3.42,22.94-31.36,27.91-42.14.65-1.42-.59-2.72,2.26-2.18ZM305.89,174.63c-2.95-2.94-6.83-36.35-8.77-43.73-16.05-60.78-104.63-45.43-99.38,17.38,1.04,12.39,6.92,28.14,6.96,40.13.02,8.85-11.34,10.94-14.58,3.49-4.48-10.3-4.73-30.94-8-43-4.63-17.07-17.59-30.44-34.5-35.5-2.63-.79-13.93-4-14.92-.84,5.82,27.27,8.12,56.48,14.21,83.55,15.03,66.86,104.49,49.38,100.68-10.69-.8-12.55-7.43-30.21-7.07-42.02.28-8.98,9.39-11.51,14.54-4.45,3.48,13.68,4.22,28.75,7.68,42.32,11.31,44.33,70.97,52.6,93.04,12.3,12.81-23.4,1.95-46.5-.84-71.05,2.14-9.17,10.9-9.99,15.41-1.86,5.56,33.24,6.02,70.39,46.21,78.79,12.97,2.71,10.38.39,8.89-10.89-2.84-21.46-8.33-62.85-14.8-82.2-11.53-34.49-56.88-45.16-83.08-20-24.65,23.67-11.75,54.86-7.97,83.95-.83,6.56-9.35,8.66-13.7,4.31ZM843.61,217.91c-.69-.66,5.6-15.9,6.51-17.98,1.88-4.28,8.82-15.49,9.33-18.74.24-1.56.19-2.56-1.5-3.12-7.98-2.62-29.85,11.11-35.36,17.33-7.44,8.38-10.87,21.08-16.71,30.52l-61.27,11.99,14.96-31.54.04-2.45c-24.12-.51-44.48,18.89-51.55,40.95l-1.7,1.3c-55.49,13.12-111.89,23.27-166.96,38.04-13.77,3.69-24.17,5.08-35.26,14.74s-30.15,37.05-29.61,51.49c.09,2.54.79,3.8,3.49,3.49,46.58-25.15,99.11-37.27,149.58-52.51l64-16c-10.28,26.09-17.86,53.25-24.51,80.49s-7.75,49.67-28.94,70.06c-9.17,8.83-24.2,13.69-29.58-1.51-6.5-18.38-.24-52.3,6.56-70.51,2.59-6.95,10.83-14.24,1.01-20.06-22.98-13.6-38.39,19.22-44.55,36.03l-5.82-11.66c-6.92-11.71-15.89-16.4-29.65-15.31-55.38,4.39-99.41,142.09-41.89,167.86,33.88,15.18,48.28-13.74,63.14-36.59.63-.97-.11-1.79,2.23-1.29,8.65,37.86,48.81,40.64,75.02,17.51,9.66-8.52,18.19-21.62,23-33.51,1.41-1.08,4.23,9.52,4.81,10.68,13.62,27.44,48.15,26.74,69.65,9.29,9.45-7.67,15.52-18.26,22.52-27.97-1.65,31.11,14.16,63.02,49.49,59.98,16.27-1.4,31.03-14.02,35.58-29.31-18.67-10.85-31.31-33.68-35.79-54.46-5.97-27.67,1.84-66.4,7.04-94.41,5.6-30.22,12.77-60.28,21.21-89.79,19.68-5.42,40.13-9.83,60.29-13.71,47.18-9.09,96.5-16.84,144.73-15.35,5.78.18,12.83,4.4,9.68-5.68-2.78-8.87-13.18-18.46-22.68-19.31-23.11-2.07-60.18,3.18-84.03,6.05-32.3,3.89-64.33,10.33-96.51,14.98ZM469.03,568.49c-61.39-66.14-32.15-221.37,2.72-295.94,4.36-9.33,13.83-28.2,21.37-34.63,4.15-3.54,9.31-3.08,13.06-7.01-.51-8.05-11.64-11.45-18.33-12.74-41.13-7.94-75.26,38.55-94.66,68.83-23.74,37.06-43.39,81.08-58.6,122.4-7.36,20-13.19,40.5-20.49,60.51-2.13-30.47-4.44-61.01-6.48-91.51-1.49-22.16-.11-53.43-5.67-74.33-5.54-20.8-31.55-33.52-51.82-32.14-33.75,2.29-87.18,22.89-117.53,38.46-35.49,18.19-104.25,63.89-98.87,109.91,2.26,19.31,32.74,53.59,51.85,57.15,17.84,3.33,10.07-6.29,10.01-17.09-.38-65.65,81.58-139.75,143.67-148.32,10.21-1.41,23.25-4.49,25.92,8.81,5.41,26.92-13.58,82.39-23.1,109.01-14.02,39.2-31.76,77.55-52.28,113.72-11.91,20.98-51.22,85.79-74.91,90.09-2.93.53-9.41-.61-10.79,1.21-8.66,28.93,35.59,33.21,55.01,32.01,21.41-1.33,29.86-4.75,42.34-21.66,13.51-18.3,23.9-41.38,32.64-62.36,22.36-53.7,37.29-110.38,50.54-166.97l2,1.49c.26,12.02.53,24.05.96,36.06.08,2.37,1,4.55,1.08,6.92,1.08,30.15-1.58,64.74.92,94.08.16,1.91.4,4.16,1.06,5.94,3.68,9.88,32.7,22.53,40.46,14.51,1.92-1.98,2.07-14.14,2.81-18.19,2.29-12.61,5.48-26.06,8.39-38.61,15.04-64.93,36.29-128.96,66.82-188.18l-21.02,81.98c-15.17,61.75-36.14,205.13,65.99,196.99,9.43-.75,37.46-8.38,42.54-16.46,6.48-10.28-3.48-9.08-9.57-11.49-7-2.77-12.98-7.01-18.04-12.46ZM838.61,264.92c5.61,11.54,13.92,24.66,4.11,36.49,17.83,14.84,23.41-11.75,23.91-25.05.45-12.09-19.16-15.16-28.03-11.44ZM897.61,361.91c3.38,3.51,15.24-14.08,16.8-16.69,7.57-12.65,11.59-19.17-.8-29.82-44.53-38.31-70.35,31.33-73.9,66.11-.46,4.49,2.45,20.63,8.81,16.32,1.14-.78,4.34-23.3,5.39-27.12.28-1.03.25-3.03,1.68-2.79,4.53,16.5,44.12,61.97,6.41,65.88-16.3,1.69-23.3-11.21-35.37-14.42-11.84-3.15-3.72,17.45-1.21,23.21,9.35,21.41,27.52,39.58,52.42,35.06,25.39-4.6,44.79-22.99,41.76-50.25-2.41-21.76-38.98-47.16-42.59-70.46-1.53-9.92,11.4-26.92,21.88-27.89,3.31.8,2.83,5.75,2.74,8.39-.13,3.89-5.22,23.23-4.04,24.46Z"/>
      <path d="M791.6,259.92c-4.46,16.36-9.27,32.69-13.31,49.18-8.61,35.12-13.55,87.08-41.66,112.34-11.49,10.32-25.41,10.16-29.55-6.49-5.6-22.5,6.7-75.58,12.61-99.46,2.27-9.2,7.22-31.53,11.14-38.86.82-1.53,1.48-2.39,3.31-2.69l57.47-14.02Z"/>
      <path d="M542.33,382.15c11.32-2.38,14.69,7.45,16.81,16.73,4,17.55-4.39,47.8-20.2,57.87-14.84,9.46-26.41-4.77-26.43-19.34-.02-14.66,13.8-51.89,29.82-55.26Z"/>
      <path d="M894.35,83.17c5.29,6.21-9.49,24.46-17.74,22.73-1.36-5.57,11.38-30.21,17.74-22.73Z"/>
    </g>
  </g>
</svg>