<?xml version="1.0" encoding="UTF-8"?>
<svg id="Layer_2" data-name="Layer 2" xmlns="http://www.w3.org/2000/svg" viewBox="0 0 47.84 55.24">
  <defs>
    <style>
      .cls-1 {
        fill: #fba91a;
        stroke-width: 0px;
      }
    </style>
  </defs>
  <g id="Layer_1-2" data-name="Layer 1">
    <g>
      <path class="cls-1" d="M47.84,13.81l-5.24-3.03c-1.08-.62-2.41-.62-3.49,0l-19.01,10.98c-1.41.81-1.41,2.84,0,3.65l3.82,2.21,11.7-6.75c2.33-1.34,5.24.34,5.24,3.02v11.49c0,1.25-.67,2.4-1.75,3.02l-13.44,7.76c-1.08.62-2.41.62-3.49,0l-1.48-.86c-2.33-1.34-5.24.34-5.24,3.02h0c0,1.25.67,2.4,1.75,3.03l6.17,3.56.55.32h0l.12-.07,22.05-12.73c1.08-.62,1.75-1.78,1.75-3.02V13.81h0s0,0,0,0Z"/>
      <path class="cls-1" d="M25.67,9.08l1.48.86c2.33,1.34,5.24-.34,5.24-3.02h0c0-1.25-.67-2.4-1.75-3.03L24.54.36l-.62-.36h0l-.12.07L1.75,12.8c-1.08.62-1.75,1.78-1.75,3.02v25.6h0,0s5.24,3.03,5.24,3.03c1.08.62,2.41.62,3.49,0l13.44-7.76c1.08-.62,1.75-1.78,1.75-3.02v-6.05s-11.7,6.75-11.7,6.75c-2.33,1.34-5.24-.34-5.24-3.02v-11.49c0-1.25.67-2.4,1.75-3.02l13.44-7.76c1.08-.62,2.41-.62,3.49,0Z"/>
    </g>
  </g>
</svg>