<?xml version="1.0" encoding="UTF-8"?>
<svg id="Layer_2" data-name="Layer 2" xmlns="http://www.w3.org/2000/svg" viewBox="0 0 124.93 37.35">
  <defs>
    <style>
      .cls-1 {
        fill: #211b50;
      }
    </style>
  </defs>
  <g id="Layer_1-2" data-name="Layer 1">
    <g>
      <path class="cls-1" d="M44.66,18.24c1.98-.12,3.79-.1,5.55-.34,2.73-.38,4.46-2.4,4.61-5.09.16-2.97-1.3-5.44-3.9-5.93-2.02-.39-4.12-.33-6.27-.47M63.94,37.34c-3.04,0-5.77.05-8.49-.05-.49-.01-1.1-.52-1.42-.97-2.8-4.01-5.54-8.05-8.31-12.08-.27-.39-.56-.78-1.1-1.52v14.55h-7.55V.48c.09-.06.17-.15.25-.15,5.16.09,10.36-.11,15.49.36,4.59.43,8.13,2.92,9.25,7.71,1.11,4.75.57,9.22-3.6,12.47-1.28,1-2.87,1.59-4.51,2.48,3.21,4.48,6.5,9.1,9.99,13.99"/>
      <path class="cls-1" d="M107.09,18.22c1.71,0,3.28.1,4.81-.03,3.02-.25,5.05-2.26,5.33-5.08.29-2.94-1.21-5.44-4.05-6.12-1.94-.46-3.99-.43-6.09-.62M99.52,0c5.7.29,11.36.09,16.86.98,6.15,1,8.96,5.79,8.5,12.73-.36,5.62-4.63,10.11-10.26,10.67-2.47.24-4.95.25-7.58.37v12.51h-7.52V0Z"/>
      <polyline class="cls-1" points="0 .39 0 6.44 8.79 6.44 8.79 37.25 16.38 37.25 16.38 6.45 25.06 6.45 25.06 .39"/>
      <rect class="cls-1" x="77.49" y=".4" width="7.4" height="36.9"/>
    </g>
  </g>
</svg>