<?xml version="1.0" encoding="UTF-8"?>
<svg id="Layer_2" data-name="Layer 2" xmlns="http://www.w3.org/2000/svg" viewBox="0 0 346.75 400.39">
  <defs>
    <style>
      .cls-1 {
        fill: #fbaa19;
      }
    </style>
  </defs>
  <g id="Layer_1-2" data-name="Layer 1">
    <g>
      <path class="cls-1" d="M346.75,100.1l-37.98-21.93c-7.83-4.52-17.48-4.52-25.31,0l-137.77,79.55c-10.2,5.89-10.2,20.6,0,26.49l27.69,15.99,84.77-48.94c16.88-9.74,37.97,2.44,37.97,21.92v83.27c0,9.04-4.82,17.4-12.66,21.92l-97.42,56.25c-7.83,4.52-17.48,4.52-25.31,0l-10.75-6.21c-16.88-9.74-37.97,2.44-37.97,21.92v.02c0,9.04,4.83,17.4,12.66,21.92l44.73,25.82,3.99,2.3h0l.9-.52,159.82-92.27c7.83-4.52,12.66-12.88,12.66-21.92V100.1h0s0,0,0,0Z"/>
      <path class="cls-1" d="M186.02,65.78l10.75,6.21c16.88,9.74,37.97-2.44,37.97-21.92v-.02c0-9.04-4.83-17.4-12.66-21.92L177.87,2.59l-4.49-2.59h0l-.86.5L12.66,92.79c-7.83,4.52-12.66,12.88-12.66,21.92v185.58h0,0s37.98,21.93,37.98,21.93c7.83,4.52,17.48,4.52,25.31,0l97.43-56.25c7.83-4.52,12.66-12.88,12.66-21.92v-43.85s-84.77,48.94-84.77,48.94c-16.88,9.74-37.97-2.44-37.97-21.92v-83.27c0-9.04,4.82-17.4,12.66-21.92l97.42-56.25c7.83-4.52,17.48-4.52,25.31,0Z"/>
    </g>
  </g>
</svg>