<svg xmlns="http://www.w3.org/2000/svg" xmlns:xlink="http://www.w3.org/1999/xlink" id="Layer_2" viewBox="0 0 932.9 932.9"><defs><style>      .cls-1 {        stroke-width: 8px;      }      .cls-1, .cls-2, .cls-3, .cls-4, .cls-5 {        fill: none;      }      .cls-1, .cls-2, .cls-3, .cls-5 {        stroke: #fff;        stroke-miterlimit: 10;      }      .cls-3 {        stroke-width: 5px;      }      .cls-6 {        fill: #ff8200;      }      .cls-5 {        stroke-width: 2px;      }      .cls-7 {        clip-path: url(#clippath);      }    </style><clipPath id="clippath"><circle class="cls-4" cx="466.45" cy="466.45" r="466.45"></circle></clipPath></defs><g id="Layer_1-2" data-name="Layer_1"><circle class="cls-6" cx="466.45" cy="466.45" r="466.45"></circle><g class="cls-7"><g><polyline class="cls-5" points="449.38 947.48 446.7 810.37 446.7 810.36"></polyline><line class="cls-5" x1="509.37" y1="-61.78" y2="417.74"></line><line class="cls-5" x1="627.94" y1="-61.78" x2="617.25" y2="118.99"></line><line class="cls-5" x1="617.25" y1="118.99" x2="160.07" y2="571.68"></line><line class="cls-2" x1="896.65" y1="318.75" x2="877.35" y2="304.96"></line><path class="cls-5" d="M260.35,654.49s60.22-60.75,107.71-108.54c17.37-17.48,33.04-33.21,43.45-43.62,38.88-38.88,92.33-46.17,140.12-9.72,0,0,12.15,25.11,57.51,34.83,45.35,9.73,88.33-26.13,130.4-73.01,42.07-46.88,140.42-152.28,140.42-152.28l-262.71-183.16"></path><polyline class="cls-2" points="739.55 454.43 760.64 469.49 760.67 469.51"></polyline><polyline class="cls-5" points="175.93 584.79 286.89 474.68 368.07 545.95"></polyline><polyline class="cls-5" points="617.25 118.99 699.64 161.07 731.16 -61.78"></polyline><line class="cls-2" x1="972.62" y1="422.94" x2="560.07" y2="894.26"></line><path class="cls-1" d="M316.22,894.26L59.66,672.79c-2.09-1.8-3.56-4.22-4.19-6.9l-13.38-57.31-25.49-21.78"></path><line class="cls-1" x1="972.62" y1="422.94" x2="515.71" y2="944.93"></line><path class="cls-1" d="M360.99,932.9L59.66,672.79c-2.09-1.8-3.56-4.22-4.19-6.9l-13.38-57.31-37.47-32.01"></path><path class="cls-3" d="M972.62,234.48l-75.99,84.25-135.99,150.77c-141.62,156.97-282.35,312.86-302.5,334.96l-.14.15c-1.27,1.42-2.07,2.26-2.28,2.47-2.55,2.59-5.87,3.37-9.03,3.31-3.57-.16-7.07-1.03-10.3-2.55l-245.92-72.69-148.36-126.56"></path><path class="cls-3" d="M458.15,804.45l-.14.15c-7.21,7.69-16.57-.51-20.04-3.4-2.38-1.95-205.12-169.42-335.25-276.87L-13.77,428.14"></path></g></g></g></svg>