<svg xmlns="http://www.w3.org/2000/svg" xmlns:xlink="http://www.w3.org/1999/xlink" id="Layer_2" viewBox="0 0 932.9 932.9"><defs><style>      .cls-1, .cls-2 {        fill: none;      }      .cls-3 {        fill: #ff8200;      }      .cls-2 {        stroke: #fff;        stroke-miterlimit: 10;        stroke-width: 6px;      }      .cls-4 {        clip-path: url(#clippath);      }    </style><clipPath id="clippath"><circle class="cls-1" cx="466.45" cy="466.45" r="466.45"></circle></clipPath></defs><g id="Layer_1-2" data-name="Layer_1"><circle class="cls-3" cx="466.45" cy="466.45" r="466.45"></circle><g class="cls-4"><g><path class="cls-2" d="M951,306.11h-138.04c-14.44,0-28.46,4.86-39.79,13.81l-63.57,50.31"></path><path class="cls-2" d="M694.45,306.11h-138.09c-14.44,0-28.45,4.86-39.78,13.81l-63.58,50.31"></path><path class="cls-2" d="M453.04,306.11h-224.49c-35.41,0-64.12,28.7-64.13,64.11v.03"></path><path class="cls-2" d="M951.01,626.78h-138.04c-14.44,0-28.46-4.86-39.8-13.81l-63.58-50.3"></path><path class="cls-2" d="M694.45,626.78h-138.09c-14.44,0-28.45-4.87-39.78-13.81l-63.58-50.3"></path><path class="cls-2" d="M453.04,626.78h-224.49c-35.42,0-64.13-28.71-64.13-64.13v-.02"></path><line class="cls-2" x1="164.42" y1="370.24" x2="164.42" y2="562.66"></line></g></g></g></svg>