<svg xmlns="http://www.w3.org/2000/svg" xmlns:xlink="http://www.w3.org/1999/xlink" id="Layer_2" viewBox="0 0 932.9 932.9"><defs><style>      .cls-1, .cls-2 {        fill: none;      }      .cls-3 {        fill: #ff8200;      }      .cls-2 {        stroke: #fff;        stroke-miterlimit: 10;        stroke-width: 6px;      }      .cls-4 {        clip-path: url(#clippath);      }    </style><clipPath id="clippath"><circle class="cls-1" cx="466.45" cy="466.45" r="466.45"></circle></clipPath></defs><g id="Layer_1-2" data-name="Layer_1"><circle class="cls-3" cx="466.45" cy="466.45" r="466.45"></circle><g class="cls-4"><g><line class="cls-2" x1="525.58" y1="372.58" x2="934.87" y2="372.58"></line><polyline class="cls-2" points="934.87 621.7 196.18 621.7 196.18 372.58 332.32 372.58"></polyline><path class="cls-2" d="M500.54,586.6l-173.5-220.72-.83-1.19c-10.48-15.5-16.07-33.79-16.04-52.5,0-25.93,10.51-49.4,51.33-114.66l57.21,9.13-5.26,57.64,59.38,10.79-5.69,59.02,60.04,10.73-3.53,61.31c-38.87,65.97-47.79,89.02-47.79,114.06,0,56.03,45.41,101.46,101.45,101.47h0"></path></g></g></g></svg>