<?xml version="1.0" encoding="UTF-8"?>
<svg id="Layer_2" xmlns="http://www.w3.org/2000/svg" xmlns:xlink="http://www.w3.org/1999/xlink" version="1.1" viewBox="0 0 128 186">
  <!-- Generator: Adobe Illustrator 29.8.5, SVG Export Plug-In . SVG Version: 2.1.1 Build 2)  -->
  <defs>
    <style>
      .st0, .st1, .st2, .st3 {
        fill: none;
      }

      .st4, .st2 {
        stroke-width: .4px;
      }

      .st4, .st5, .st6 {
        fill: #fff;
      }

      .st4, .st6 {
        stroke: #fff;
      }

      .st1 {
        stroke-width: .2px;
      }

      .st1, .st2, .st3 {
        stroke: #000;
      }

      .st3 {
        stroke-width: 1.3px;
      }

      .st7 {
        clip-path: url(#clippath-1);
      }

      .st6 {
        stroke-miterlimit: 10;
      }

      .st8 {
        clip-path: url(#clippath);
      }
    </style>
    <clipPath id="clippath">
      <rect class="st0" y="0" width="128" height="186"/>
    </clipPath>
    <clipPath id="clippath-1">
      <rect class="st0" y="0" width="128" height="186"/>
    </clipPath>
  </defs>
  <g id="Layer_1-2">
    <g>
      <path class="st5" d="M7,.6h113.9c3.5,0,6.4,2.8,6.4,6.4v135.8c0,3.5-2.9,6.4-6.4,6.4H7c-3.5,0-6.4-2.9-6.4-6.4V7c0-3.5,2.9-6.4,6.4-6.4h0Z"/>
      <g class="st8">
        <path class="st3" d="M7,.6h113.9c3.5,0,6.4,2.9,6.4,6.4v135.8c0,3.5-2.9,6.4-6.4,6.4H7c-3.5,0-6.4-2.9-6.4-6.4V7c0-3.5,2.9-6.4,6.4-6.4h0Z"/>
      </g>
      <path d="M35,119.1l-2-6.2h1.1l1,3.6.4,1.3c0,0,.1-.5.3-1.3l1-3.6h1.1l1,3.6.3,1.2.4-1.2,1.1-3.6h1.1l-2.1,6.2h-1.1l-1-3.7-.2-1.1-1.3,4.8h-1.1Z"/>
      <path d="M44.2,119.1l-2-6.2h1.2l1,3.6.4,1.3c0,0,.1-.5.3-1.3l1-3.6h1.1l1,3.6.3,1.2.4-1.2,1.1-3.6h1.1l-2.1,6.2h-1.1l-1-3.7-.2-1.1-1.3,4.8h-1.1Z"/>
      <path d="M53.4,119.1l-2-6.2h1.1l1,3.6.4,1.3c0,0,.1-.5.3-1.3l1-3.6h1.1l1,3.6.3,1.2.4-1.2,1.1-3.6h1.1l-2.1,6.2h-1.1l-1-3.7-.2-1.1-1.3,4.8h-1.1Z"/>
      <rect x="60.6" y="117.9" width="1.2" height="1.2"/>
      <path d="M63.7,119.1v-5.4h-1v-.8h1v-.7c0-.4,0-.7.1-.9.1-.3.3-.5.6-.7.3-.2.6-.2,1.1-.2s.6,0,1,.1l-.2.9c-.2,0-.4,0-.6,0-.3,0-.6,0-.7.2-.1.1-.2.4-.2.8v.6h1.3v.8h-1.3v5.4h-1.1Z"/>
      <path d="M66.6,117.2h1.1c0,.3.2.6.5.8.3.2.7.3,1.2.3s.9,0,1.1-.3c.2-.2.4-.4.4-.7s-.1-.4-.3-.6c-.2,0-.5-.2-1.1-.3-.8-.2-1.3-.4-1.7-.5-.3-.2-.6-.3-.7-.6-.2-.2-.2-.5-.2-.8s0-.5.2-.8c.1-.2.3-.4.5-.6.2-.1.4-.2.7-.3.3,0,.6-.1.9-.1.5,0,.9,0,1.3.2s.7.3.8.6c.2.2.3.6.4,1h-1.1c0-.2-.2-.4-.4-.6-.2-.2-.6-.3-1-.3s-.8,0-1.1.2c-.2.2-.3.3-.3.6s0,.3.1.4.2.2.4.3c0,0,.4.1.9.3.8.2,1.3.4,1.6.5.3.1.6.3.7.6.2.2.3.5.3.9s-.1.7-.3,1c-.2.3-.5.6-.9.7-.4.2-.8.3-1.4.3-.8,0-1.5-.2-1.9-.5s-.7-.8-.8-1.5h0Z"/>
      <path d="M77.4,116.8h1.1c-.1.8-.4,1.4-.9,1.8-.5.4-1.1.6-1.8.6s-1.6-.3-2.1-.8c-.5-.6-.8-1.3-.8-2.4s.1-1.3.3-1.8c.2-.5.6-.9,1.1-1.1s1-.4,1.5-.4,1.3.2,1.7.5c.4.3.7.8.8,1.5h-1.1c0-.3-.3-.6-.5-.8-.2-.2-.6-.3-.9-.3-.6,0-1,.2-1.3.6-.3.4-.5,1-.5,1.8s.2,1.4.5,1.8c.3.4.8.6,1.3.6s.8-.1,1.1-.4c.3-.2.5-.6.5-1.2h0Z"/>
      <rect x="79.6" y="117.9" width="1.2" height="1.2"/>
      <path d="M81.8,116c0-1.2.3-2,1-2.6.6-.5,1.2-.7,2-.7s1.6.3,2.2.8c.6.6.8,1.3.8,2.3s-.1,1.4-.4,1.9-.6.8-1.1,1.1c-.5.2-1,.4-1.6.4-.9,0-1.6-.3-2.2-.8-.6-.6-.8-1.4-.8-2.4h0ZM83,116c0,.8.2,1.4.6,1.8.4.4.8.6,1.4.6s1-.2,1.4-.6c.4-.4.6-1,.6-1.8s-.2-1.3-.6-1.8c-.4-.4-.8-.6-1.4-.6s-1,.2-1.4.6c-.4.4-.6,1-.6,1.8h0Z"/>
      <path d="M89.2,119.1v-6.2h1v.9c.3-.4.5-.7.7-.9s.4-.2.7-.2c.4,0,.8,0,1.1.3l-.4,1c-.3-.1-.5-.2-.8-.2s-.4,0-.6.2c-.2.1-.3.3-.4.6-.1.4-.2.8-.2,1.2v3.2h-1.1Z"/>
      <path d="M93,119.6h1.1c0,.5.2.7.4.8.3.2.6.3,1.1.3s.9,0,1.2-.3c.3-.2.5-.5.6-.8,0-.2,0-.7,0-1.4-.5.6-1.1.8-1.8.8s-1.6-.3-2.1-.9c-.5-.6-.7-1.3-.7-2.2s.1-1.1.3-1.6c.2-.5.6-.9,1-1.2.4-.3.9-.4,1.5-.4s1.4.3,1.9.9v-.8h1v5.4c0,1,0,1.6-.3,2.1-.2.4-.5.7-1,.9-.4.2-1,.3-1.6.3s-1.4-.2-1.9-.5c-.5-.3-.7-.8-.7-1.5h0ZM93.9,115.8c0,.8.2,1.4.5,1.8.3.4.8.6,1.3.6s.9-.2,1.3-.6c.3-.4.5-1,.5-1.8s-.2-1.3-.5-1.7c-.3-.4-.8-.6-1.3-.6s-.9.2-1.2.6c-.3.4-.5.9-.5,1.7h0Z"/>
      <path d="M66.3,11c-19.7,0-26.7,29.4-33.2,53-2.3-2.3-9.6-9.2-9.6-9.2-1.5-1.4-3.1-.9-4.1,0-1,1-1.2,2.8,0,3.9,0,0,9.8,9.3,13.1,12.6.9.9,2.3,1.4,3.6.6,1.4-.8,1.6-2.3,1.6-2.3,11.5-49.5,21.8-53.2,28.5-53.2s12.1,4,12.1,12c8.4,0,13.6,10.6,6.9,17.1,5.6,2.6,8.1,5.8,8.1,9.8s-3.5,8.2-8.7,8.2c-5.1,0-7.7-3.2-11.7-3.2-1.8,0-2.9,1.4-2.9,2.8v10h-7.5v-10c0-1.6-1.2-2.8-2.7-2.8s-.7,0-.6,0l-10.1,1.2c-1.2.2-2.3,1.4-2.3,2.7s1.3,2.8,3.1,2.8c.2,0,.5,0,.5,0,0,0,6.4-.8,6.4-.8v9.9c0,1.3,1.5,2.5,2.8,2.5h13.4c1.6,0,2.9-1.3,2.9-2.8v-9c2.8,1.6,6.7,2.3,8.7,2.3,7.5,0,14.7-5.7,14.6-13.9,0-7.5-6-11.3-6-11.3,3.5-9-2.2-17.7-9.6-20.1-2.7-9.3-10.9-12.9-17.3-12.9h0Z"/>
      <path d="M57.9,89.7c0,2.3,2.7,3.7,7.2,5.8,3.5,1.6,5.6,3.3,5.6,4.6,0,2.2-2.4,3-4.8,3-3.5,0-5.7-1.4-6.8-4.4v-.3h-.4c-.6,0-1.1,0-1.4.4-.2.3-.2.7,0,1.1,0,0,.8,3.1.8,3.1.2.8.5.9,1.8,1.1.6,0,3.4.6,5.9.6,6.8,0,9.8-2.6,9.8-5.3s-2-3.7-6.2-5.8l-1.9-.9c-2.9-1.3-4.7-2.1-4.7-3.5s1.8-2.3,4.4-2.3,4.3,1.8,4.7,3.4v.3h.4c.8,0,1.2,0,1.5-.3.2-.2.2-.4.2-.7l-.3-2.7c0-.9-.8-1-1.7-1.2-1.1-.2-2.5-.4-4.6-.4-5.9,0-9.4,1.7-9.4,4.4h0Z"/>
      <path d="M77.4,95.2c0,4.7,4.3,9.5,12.4,9.5s6.4-.9,8.2-1.8l.5-.2-.8-.8h0c-.2-.2-.3-.2-.6-.2h-.4c-.6.4-2.5,1.2-5.9,1.2s-8.8-2.6-8.8-8.4,4.9-7.5,9.1-7.5,4.6,1,4.9,3.2v.4h.4c.3,0,1.3,0,1.3-.7v-3.2c0-.8-.9-.9-1.3-1h-.4c-1-.2-1.9-.3-4.4-.3-8.3,0-14.3,4.2-14.3,9.9h0Z"/>
      <path d="M46.7,85.5h-7.3c0,0-4.9,0-4.9,0h-.7c-.4,0-.8.3-.8.7s0,.8.8.8c3,0,3.1.2,3.1,1.3v.7s0,2.9,0,2.9v6.2c0,1,0,2.7-.1,4,0,.4,0,.7-2.7.7s-1.2.1-1.2.8,0,.7.7.7h.2c.3,0,1.1,0,5.2,0s5.2,0,5.5,0h.2c.6,0,1.1,0,1.1-.7s-.7-.8-1.8-.8c-2.6,0-2.6-.4-2.7-.7,0-1.2-.1-2.9-.1-4v-2.2h2.2c3.4,0,3.8,0,4.2,2.6.1.5.6.6,1,.6.8,0,.9-.4.9-.6v-.9c-.1-.5-.2-1.2-.2-2.1v-3.8c0-.6-.7-.6-1.1-.6-.6,0-.8.4-1.2,2.2-.2.7-1.6,1.1-3.8,1.1h-2v-5.6c0-1.5.3-1.5.6-1.6,1.3,0,4.4-.2,5.3-.2s1.7.2,2.2.5c1.7,1,2.5,1.7,3,2.1.5.4.8.6,1.2.6s1,0,1-.6,0-.3-.3-.8c-.3-.6-.7-1.5-1.3-3-.2-.5-.7-.5-1.8-.5h-4.7s0,0,0,0Z"/>
      <path d="M90.4,13.9c1.1,0,2,.4,2.8,1.2.8.8,1.2,1.7,1.2,2.8s-.4,2-1.2,2.8c-.8.8-1.7,1.2-2.8,1.2s-2-.4-2.8-1.2-1.2-1.7-1.2-2.8.4-2,1.2-2.8,1.7-1.2,2.8-1.2h0ZM90.4,21.1c.9,0,1.7-.3,2.3-1,.7-.6,1-1.4,1-2.3s-.3-1.7-1-2.3c-.7-.6-1.4-1-2.3-1-.9,0-1.7.3-2.3,1-.6.6-1,1.4-1,2.3s.3,1.7,1,2.3c.7.6,1.4,1,2.3,1h0ZM92.2,20h-.8c-.5-1-.9-1.5-1-1.6s-.4-.2-.6-.2h-.4v1.8h-.7v-4.2h1.5c.4,0,.8,0,1,0s.4.2.6.4c.1.2.2.4.2.7s-.1.5-.3.8c-.2.2-.5.4-.9.4h0c.2,0,.6.4,1,1.1l.5.8h0ZM89.3,17.6h.8c.4,0,.7,0,.8-.2.2-.1.2-.3.2-.5s0-.4-.2-.5c-.1-.1-.4-.2-.9-.2h-.8s0,1.3,0,1.3Z"/>
      <path class="st2" d="M90.4,13.9c1.1,0,2,.4,2.8,1.2.8.8,1.2,1.7,1.2,2.8s-.4,2-1.2,2.8c-.8.8-1.7,1.2-2.8,1.2s-2-.4-2.8-1.2-1.2-1.7-1.2-2.8.4-2,1.2-2.8,1.7-1.2,2.8-1.2h0ZM90.4,21.1c.9,0,1.7-.3,2.3-1,.7-.6,1-1.4,1-2.3s-.3-1.7-1-2.3c-.7-.6-1.4-1-2.3-1-.9,0-1.7.3-2.3,1-.6.6-1,1.4-1,2.3s.3,1.7,1,2.3c.6.6,1.4,1,2.3,1h0ZM92.2,20h-.8c-.5-1-.9-1.5-1-1.6s-.4-.2-.6-.2h-.4v1.8h-.7v-4.2h1.5c.4,0,.8,0,1,0s.4.2.6.4c.1.2.2.4.2.7s-.1.5-.3.8c-.2.2-.5.4-.9.4h0c.2,0,.6.4,1,1.1l.5.8h0ZM89.3,17.6h.8c.4,0,.7,0,.8-.2.2-.1.2-.3.2-.5s0-.4-.2-.5c-.1-.1-.4-.2-.9-.2h-.8s0,1.3,0,1.3Z"/>
      <path d="M31.7,132.9h-4.2v2.4h3.6v.9h-3.6v3.5h-1v-7.7h5.2v.9h0Z"/>
      <path class="st2" d="M31.7,132.9h-4.2v2.4h3.6v.9h-3.6v3.5h-1v-7.7h5.2v.9h0Z"/>
      <path d="M38,134.2c0-.5-.2-.9-.5-1.1-.3-.2-.8-.4-1.3-.4s-1,.1-1.3.3c-.3.2-.5.5-.5.9s.1.6.4.7c.2.2.7.3,1.5.5.6.1,1.2.3,1.6.4.4.1.8.4,1,.7.3.3.4.7.4,1.2s-.3,1.2-.8,1.6c-.5.4-1.2.7-2.1.7s-1.9-.2-2.4-.7c-.5-.5-.8-1.1-.8-1.9h1c0,.5.3,1,.7,1.3s1,.4,1.6.4c.6,0,1-.1,1.4-.4.3-.2.5-.6.5-.9s-.2-.7-.5-.9-1-.4-1.8-.6c-.9-.2-1.5-.4-1.9-.8s-.6-.8-.6-1.3c0-.6.2-1.1.7-1.5.5-.4,1.2-.6,2-.6s1.5.2,2.1.6c.5.4.8,1,.8,1.7h-1c0,0,0,0,0,0Z"/>
      <path class="st2" d="M38,134.2c0-.5-.2-.9-.5-1.1-.3-.2-.8-.4-1.3-.4s-1,.1-1.3.3c-.3.2-.5.5-.5.9s.1.6.4.7c.2.2.7.3,1.5.5.6.1,1.2.3,1.6.4.4.1.8.4,1,.7s.4.7.4,1.2-.3,1.2-.8,1.6c-.5.4-1.2.7-2.1.7s-1.9-.2-2.4-.7c-.5-.5-.8-1.1-.9-1.9h1c0,.5.3,1,.7,1.3s1,.4,1.6.4c.6,0,1-.1,1.4-.4.3-.2.5-.6.5-.9s-.2-.7-.5-.9-1-.4-1.8-.6c-.9-.2-1.5-.4-1.9-.8s-.6-.8-.6-1.3c0-.6.2-1.1.7-1.5.5-.4,1.1-.6,2-.6s1.5.2,2.1.6c.5.4.8,1,.8,1.7h-1c0,0,0,0,0,0Z"/>
      <path d="M47.6,137.2c-.2.9-.6,1.5-1.2,1.9-.6.4-1.2.6-2,.6-1.3,0-2.2-.4-2.8-1.2-.6-.8-.9-1.7-.9-2.9,0-1.2.3-2.2,1-2.9.7-.7,1.5-1,2.6-1s1.4.2,1.9.6.9.9,1.1,1.7l-1,.2c-.2-.5-.4-.9-.8-1.2s-.8-.4-1.3-.4c-.8,0-1.5.3-1.9.8-.4.6-.7,1.3-.7,2.2s.2,1.9.7,2.4c.5.5,1,.8,1.8.8s1.1-.2,1.5-.5c.4-.3.6-.8.8-1.5l1,.2h0Z"/>
      <path class="st2" d="M47.6,137.2c-.2.9-.6,1.5-1.2,1.9-.6.4-1.2.6-2,.6-1.3,0-2.2-.4-2.8-1.2-.6-.8-.9-1.7-.9-2.9,0-1.2.3-2.2,1-2.9.7-.7,1.5-1,2.6-1s1.4.2,1.9.6c.5.4.9.9,1.1,1.7l-1,.2c-.2-.5-.4-.9-.8-1.2-.3-.3-.8-.4-1.3-.4-.8,0-1.5.3-1.9.8-.4.6-.7,1.3-.7,2.2s.2,1.9.7,2.4c.5.5,1.1.8,1.8.8s1.1-.2,1.5-.5c.4-.3.6-.8.8-1.5l1,.2h0Z"/>
      <path d="M51.2,131.9c.5,0,1,.2,1.4.6.4.4.6.9.6,1.4s-.2,1-.6,1.4c-.4.4-.8.6-1.4.6s-1-.2-1.4-.6c-.4-.4-.6-.9-.6-1.4s.2-1,.6-1.4.8-.6,1.4-.6h0ZM51.2,135.5c.5,0,.8-.2,1.2-.5.3-.3.5-.7.5-1.2s-.2-.8-.5-1.2c-.3-.3-.7-.5-1.2-.5-.5,0-.8.2-1.2.5-.3.3-.5.7-.5,1.2,0,.4.2.8.5,1.2s.7.5,1.2.5h0ZM52.2,135h-.4c-.3-.5-.4-.8-.5-.8s-.2,0-.3,0h-.2v.9h-.3v-2.1h.7c.2,0,.4,0,.5,0s.2.1.3.2c0,.1.1.2.1.3s0,.3-.2.4c0,.1-.3.2-.5.2h0c.1,0,.3.2.5.5l.3.4h0ZM50.7,133.8h.4c.2,0,.3,0,.4,0,0,0,.1-.1.1-.2s0-.2-.1-.2c0,0-.2,0-.4,0h-.4v.6h0Z"/>
      <path class="st1" d="M51.2,131.9c.5,0,1,.2,1.4.6.4.4.6.9.6,1.4s-.2,1-.6,1.4c-.4.4-.8.6-1.4.6s-1-.2-1.4-.6c-.4-.4-.6-.9-.6-1.4s.2-1,.6-1.4c.4-.4.9-.6,1.4-.6h0ZM51.2,135.5c.5,0,.8-.2,1.2-.5.3-.3.5-.7.5-1.2s-.2-.8-.5-1.2c-.3-.3-.7-.5-1.2-.5-.5,0-.8.2-1.2.5-.3.3-.5.7-.5,1.2,0,.4.2.8.5,1.2s.7.5,1.2.5h0ZM52.2,135h-.4c-.3-.5-.4-.8-.5-.8s-.2,0-.3,0h-.2v.9h-.3v-2.1h.7c.2,0,.4,0,.5,0s.2.1.3.2c0,.1.1.2.1.3s0,.3-.2.4c-.1.1-.3.2-.5.2h0c.1,0,.3.2.5.5l.3.4h0ZM50.7,133.8h.4c.2,0,.3,0,.4,0s.1-.1.1-.2,0-.2-.1-.2c0,0-.2,0-.4,0h-.4v.6h0Z"/>
      <path d="M65.4,137.2c-.2.9-.6,1.5-1.2,1.9-.6.4-1.2.6-2,.6-1.3,0-2.2-.4-2.8-1.2-.6-.8-.9-1.7-.9-2.9,0-1.2.3-2.2,1-2.9.7-.7,1.5-1,2.6-1s1.4.2,1.9.6c.5.4.9.9,1.1,1.7l-1,.2c-.2-.5-.4-.9-.8-1.2s-.8-.4-1.3-.4c-.8,0-1.5.3-1.9.8-.4.6-.7,1.3-.7,2.2s.2,1.9.7,2.4c.5.5,1.1.8,1.8.8s1.1-.2,1.5-.5c.4-.3.6-.8.8-1.5l1,.2h0Z"/>
      <path class="st2" d="M65.4,137.2c-.2.9-.6,1.5-1.2,1.9-.6.4-1.2.6-2,.6-1.3,0-2.2-.4-2.8-1.2-.6-.8-.9-1.7-.9-2.9,0-1.2.3-2.2,1-2.9.7-.7,1.5-1,2.6-1s1.4.2,1.9.6c.5.4.9.9,1.1,1.7l-1,.2c-.2-.5-.4-.9-.8-1.2s-.8-.4-1.3-.4c-.8,0-1.5.3-1.9.8-.4.6-.7,1.3-.7,2.2s.2,1.9.7,2.4c.5.5,1.1.8,1.8.8s1.1-.2,1.5-.5c.4-.3.6-.8.8-1.5l1,.2h0Z"/>
      <path d="M69.2,131.9c1.7,0,2.5,1.3,2.5,3.9s-.2,2.3-.7,2.9-1.1,1-1.9,1c-1.7,0-2.5-1.3-2.5-3.9s.2-2.3.7-3c.4-.6,1.1-1,1.9-1h0ZM69.2,139c.5,0,.9-.2,1.2-.7.3-.5.4-1.3.4-2.4s0-1.4-.2-1.8c-.1-.4-.3-.8-.5-1-.2-.2-.5-.3-.9-.3-.5,0-.9.2-1.2.8-.2.5-.4,1.3-.4,2.4s0,1.4.2,1.8c.1.4.3.8.5,1s.5.3.8.3h0Z"/>
      <path class="st2" d="M69.2,131.9c1.7,0,2.5,1.3,2.5,3.9s-.2,2.3-.7,2.9-1.1,1-1.9,1c-1.7,0-2.5-1.3-2.5-3.9s.2-2.3.7-3c.4-.6,1.1-1,1.9-1h0ZM69.2,139c.5,0,.9-.2,1.2-.7.3-.5.4-1.3.4-2.4s0-1.4-.2-1.8c-.1-.4-.3-.8-.5-1-.2-.2-.5-.3-.9-.3-.5,0-.9.2-1.2.8-.2.5-.4,1.3-.4,2.4s0,1.4.2,1.8c.1.4.3.8.5,1,.2.2.5.3.8.3h0Z"/>
      <path d="M75.7,131.9c1.7,0,2.5,1.3,2.5,3.9s-.2,2.3-.7,2.9-1.1,1-1.9,1c-1.7,0-2.5-1.3-2.5-3.9s.2-2.3.7-3c.4-.6,1.1-1,1.9-1h0ZM75.7,139c.5,0,.9-.2,1.2-.7.3-.5.4-1.3.4-2.4s0-1.4-.2-1.8c-.1-.4-.3-.8-.5-1-.2-.2-.5-.3-.9-.3-.5,0-.9.2-1.1.8-.3.5-.4,1.3-.4,2.4s0,1.4.2,1.8c.1.4.3.8.5,1,.2.2.5.3.8.3h0Z"/>
      <path class="st2" d="M75.7,131.9c1.7,0,2.5,1.3,2.5,3.9s-.2,2.3-.7,2.9-1.1,1-1.9,1c-1.7,0-2.5-1.3-2.5-3.9s.2-2.3.7-3c.4-.6,1.1-1,1.9-1h0ZM75.7,139c.5,0,.9-.2,1.2-.7.3-.5.4-1.3.4-2.4s0-1.4-.2-1.8c-.1-.4-.3-.8-.5-1-.2-.2-.5-.3-.9-.3-.5,0-.9.2-1.1.8-.3.5-.4,1.3-.4,2.4s0,1.4.2,1.8c.1.4.3.8.5,1,.2.2.5.3.8.3h0Z"/>
      <path d="M84.6,137.8h-1v1.8h-.9v-1.8h-3.3v-.9l3.5-5h.8v5h1s0,.9,0,.9ZM82.6,136.9v-3.5h0l-2.4,3.5s2.4,0,2.4,0Z"/>
      <path class="st2" d="M84.6,137.8h-1v1.8h-.9v-1.8h-3.3v-.9l3.5-5h.8v5h1s0,.9,0,.9ZM82.6,136.9v-3.5h0l-2.4,3.5s2.4,0,2.4,0Z"/>
      <path d="M89.6,135.5c.5,0,.8.3,1.1.7.2.4.4.8.4,1.2,0,.7-.2,1.3-.8,1.7-.5.4-1.1.7-1.8.7-.7,0-1.2-.2-1.7-.6-.4-.4-.7-.9-.8-1.6h.9c0,.4.3.8.5,1,.2.2.6.4,1,.4s.8-.1,1.1-.5c.3-.3.5-.7.5-1.1s-.1-.8-.4-1.1c-.3-.3-.6-.4-1.1-.4s-.4,0-.7.1v-.8c.4,0,.6,0,.7,0,.2,0,.3,0,.5-.2.2,0,.3-.2.4-.4.1-.2.2-.4.2-.7,0-.4-.1-.7-.4-.9-.2-.2-.6-.3-.9-.3s-.7.1-.9.4-.4.6-.5,1l-.9-.2c.1-.7.4-1.2.8-1.5.4-.3.9-.5,1.5-.5s1.2.2,1.6.6c.4.4.6.9.6,1.4s-.3,1.2-1.1,1.6h0s0,0,0,0Z"/>
      <path class="st2" d="M89.6,135.5c.5,0,.8.3,1.1.7.2.4.4.8.4,1.2,0,.7-.2,1.3-.8,1.7s-1.1.7-1.8.7c-.7,0-1.2-.2-1.7-.6-.4-.4-.7-.9-.8-1.6h.9c0,.4.3.8.5,1,.2.2.6.4,1,.4s.8-.1,1.1-.5c.3-.3.5-.7.5-1.1,0-.4-.1-.8-.4-1.1-.3-.3-.7-.4-1.1-.4s-.4,0-.7.1v-.8c.4,0,.6,0,.7,0,.2,0,.3,0,.5-.2.2,0,.3-.2.4-.4.1-.2.2-.4.2-.7,0-.4-.1-.7-.4-.9-.2-.2-.6-.3-.9-.3s-.7.1-.9.4-.4.6-.5,1l-.9-.2c.1-.7.4-1.2.8-1.5.4-.3.9-.5,1.5-.5s1.2.2,1.6.6c.4.4.6.9.6,1.4s-.3,1.2-1.1,1.6h0s0,0,0,0Z"/>
      <path d="M94.9,131.9c1.7,0,2.5,1.3,2.5,3.9s-.2,2.3-.7,2.9-1.1,1-1.9,1c-1.7,0-2.5-1.3-2.5-3.9s.2-2.3.7-3c.4-.6,1.1-1,1.9-1h0ZM94.9,139c.5,0,.9-.2,1.2-.7.3-.5.4-1.3.4-2.4s0-1.4-.2-1.8c-.1-.4-.3-.8-.5-1-.2-.2-.5-.3-.9-.3-.5,0-.9.2-1.1.8-.3.5-.4,1.3-.4,2.4s0,1.4.2,1.8c.1.4.3.8.5,1,.2.2.5.3.8.3h0Z"/>
      <path class="st2" d="M94.9,131.9c1.7,0,2.5,1.3,2.5,3.9s-.2,2.3-.7,2.9-1.1,1-1.9,1c-1.7,0-2.5-1.3-2.5-3.9s.2-2.3.7-3c.4-.6,1.1-1,1.9-1h0ZM94.9,139c.5,0,.9-.2,1.2-.7.3-.5.4-1.3.4-2.4s0-1.4-.2-1.8c-.1-.4-.3-.8-.5-1-.2-.2-.5-.3-.9-.3-.5,0-.9.2-1.1.8-.3.5-.4,1.3-.4,2.4s0,1.4.2,1.8c.1.4.3.8.5,1,.2.2.5.3.8.3h0Z"/>
      <path d="M102.9,136c-.2.3-.4.6-.8.7s-.7.3-1.1.3c-.6,0-1.2-.2-1.6-.7-.4-.5-.7-1.1-.7-1.8,0-.8.2-1.4.7-1.9.4-.5,1-.7,1.8-.7s1.3.3,1.9.8c.5.6.8,1.5.8,2.9s-.2,2.4-.7,3.1c-.5.7-1.2,1-2.1,1s-1.1-.2-1.4-.5-.6-.8-.7-1.4h.9c.1.7.6,1.1,1.3,1.1s1-.3,1.3-.8.5-1.2.5-2.2h0,0ZM101.3,136.2c.5,0,.8-.2,1.1-.5.3-.3.4-.7.4-1.2s-.1-.9-.4-1.3c-.3-.3-.6-.5-1.1-.5-.4,0-.8.2-1.1.5s-.4.8-.4,1.3.2.9.4,1.2c.3.3.7.5,1.1.5h0Z"/>
      <path class="st2" d="M102.9,136c-.2.3-.4.6-.8.7s-.7.3-1.1.3c-.6,0-1.2-.2-1.6-.7-.4-.5-.7-1.1-.7-1.8,0-.8.2-1.4.7-1.9s1-.7,1.8-.7,1.3.3,1.9.8c.5.6.8,1.5.8,2.9s-.2,2.4-.7,3.1c-.5.7-1.2,1-2.1,1s-1.1-.2-1.4-.5-.6-.8-.7-1.4h.9c.1.7.6,1.1,1.3,1.1s1-.3,1.3-.8.5-1.2.5-2.2h0,0ZM101.3,136.2c.5,0,.8-.2,1.1-.5.3-.3.4-.7.4-1.2s-.1-.9-.4-1.3c-.3-.3-.6-.5-1.1-.5-.4,0-.8.2-1.1.5s-.4.8-.4,1.3.2.9.4,1.2c.3.3.7.5,1.1.5h0Z"/>
      <path class="st6" d="M39.5,164.1h-2.5v6.8h-1v-6.8h-2.5v-.9h6.1v.9h0Z"/>
      <path class="st4" d="M39.5,164.1h-2.5v6.8h-1v-6.8h-2.5v-.9h6.1v.9h0Z"/>
      <path class="st6" d="M45.4,170.9h-1v-3.5c0-.4,0-.8-.3-1-.2-.2-.5-.3-.9-.3s-.7.1-1,.4c-.3.3-.5.8-.5,1.4v3h-1v-7.7h1v2.8c.5-.5,1-.8,1.7-.8s.7,0,1,.2.6.4.7.7c.1.3.2.7.2,1.3v3.5h0Z"/>
      <path class="st4" d="M45.4,170.9h-1v-3.5c0-.4,0-.8-.3-1-.2-.2-.5-.3-.9-.3s-.7.1-1,.4c-.3.3-.5.8-.5,1.4v3h-1v-7.7h1v2.8c.5-.5,1-.8,1.7-.8s.7,0,1,.2.6.4.7.7c.1.3.2.7.2,1.3v3.5h0Z"/>
      <path class="st6" d="M52.1,168.3h-4.2c0,.6.2,1.1.5,1.4.3.3.7.5,1.2.5s.7,0,.9-.3.4-.5.6-.9h1c-.2.7-.4,1.1-.9,1.5-.4.3-1,.5-1.6.5s-1.5-.2-2-.8c-.5-.5-.7-1.2-.7-2.1s.2-1.6.7-2.1c.5-.5,1.1-.8,1.9-.8s.8,0,1.2.3c.4.2.7.5,1,.9.3.4.4,1.1.4,2h0ZM51.2,167.6c0-.6-.2-1-.5-1.2-.3-.2-.7-.4-1-.4s-.8.1-1.1.4c-.3.3-.5.7-.5,1.2,0,0,3.2,0,3.2,0Z"/>
      <path class="st4" d="M52.1,168.3h-4.2c0,.6.2,1.1.5,1.4.3.3.7.5,1.2.5s.7,0,.9-.3.4-.5.6-.9h1c-.2.7-.4,1.1-.9,1.5-.4.3-1,.5-1.6.5s-1.5-.2-2-.8c-.5-.5-.7-1.2-.7-2.1s.2-1.6.7-2.1c.5-.5,1.1-.8,1.9-.8s.8,0,1.2.3c.4.2.7.5,1,.9.3.4.4,1.1.4,2h0ZM51.2,167.6c0-.6-.2-1-.5-1.2-.3-.2-.7-.4-1-.4-.4,0-.8.1-1.1.4-.3.3-.5.7-.5,1.2h3.2,0Z"/>
      <path class="st6" d="M64.7,170.9h-1v-3.5c0-.3,0-.5,0-.7,0-.2-.1-.3-.3-.5-.1-.1-.4-.2-.7-.2s-.7.1-1,.4-.4.7-.4,1.3v3.2h-.9v-3.6c0-.5,0-.8-.2-1-.2-.2-.4-.3-.7-.3s-.7.1-1,.4-.4.8-.4,1.6v2.9h-1v-5.6h.8v.8h0c.4-.6.9-.9,1.7-.9s.8,0,1,.2.5.4.6.7c.4-.6,1-1,1.7-1s1,.2,1.3.5.4.8.4,1.4v3.8h0Z"/>
      <path class="st4" d="M64.7,170.9h-1v-3.5c0-.3,0-.5,0-.7,0-.2-.1-.3-.3-.5-.1-.1-.4-.2-.7-.2s-.7.1-1,.4-.4.7-.4,1.3v3.2h-.9v-3.6c0-.5,0-.8-.2-1-.2-.2-.4-.3-.7-.3s-.7.1-1,.4-.4.8-.4,1.6v2.9h-1v-5.6h.9v.8h0c.4-.6.9-.9,1.7-.9s.8,0,1,.2.5.4.6.7c.4-.6,1-1,1.7-1s1,.2,1.3.5.4.8.4,1.4v3.8h0Z"/>
      <path class="st6" d="M71.3,170.9h-1c0-.2-.2-.4-.2-.7-.6.5-1.3.8-2.1.8s-1.1-.1-1.4-.4c-.3-.3-.5-.7-.5-1.2s.2-.8.5-1.1c.3-.3.9-.5,1.7-.6h.9c.3-.2.6-.2.8-.3,0-.3,0-.5,0-.6,0-.1,0-.2-.2-.4,0-.1-.2-.2-.4-.3-.2,0-.4-.1-.8-.1-.4,0-.7,0-1,.2-.2.1-.4.4-.5.8h-.9c0-.7.4-1.1.8-1.4.4-.3,1-.4,1.7-.4s1.2.1,1.5.3c.3.2.5.4.6.7,0,.3.1.6.1,1.1v1.3c0,.8,0,1.3,0,1.6,0,.3.1.5.3.8h0ZM70.1,168.4v-.3c-.5.2-1.1.3-1.8.4-.7,0-1.1.4-1.1.9s0,.5.3.6c.2.2.5.2.8.2s.9-.1,1.2-.4c.4-.3.5-.8.5-1.4h0Z"/>
      <path class="st4" d="M71.3,170.9h-1c0-.2-.2-.4-.2-.7-.6.5-1.3.8-2.1.8s-1.1-.1-1.4-.4c-.3-.3-.5-.7-.5-1.2s.2-.8.5-1.1c.3-.3.9-.5,1.7-.6h.9c.3-.2.6-.2.8-.3,0-.3,0-.5,0-.6,0-.1,0-.2-.2-.4,0-.1-.2-.2-.4-.3-.2,0-.4-.1-.8-.1-.4,0-.7,0-1,.2-.2.1-.4.4-.5.8h-.9c0-.7.4-1.1.8-1.4.4-.3,1-.4,1.7-.4s1.2.1,1.5.3c.3.2.5.4.6.7,0,.3.1.6.1,1.1v1.3c0,.8,0,1.3,0,1.6,0,.3.1.5.3.8h0ZM70.1,168.4v-.3c-.5.2-1.1.3-1.8.4-.7,0-1.1.4-1.1.9s0,.5.3.6c.2.2.5.2.8.2s.9-.1,1.2-.4c.4-.3.5-.8.5-1.4h0Z"/>
      <path class="st6" d="M75.9,165.5l-.3.9c-.2-.1-.5-.2-.7-.2-.4,0-.6.2-.8.5s-.3.8-.3,1.3v2.9h-.9v-5.6h.9v.8h0c.3-.6.7-1,1.2-1s.6.1,1,.3h0Z"/>
      <path class="st4" d="M75.9,165.5l-.3.9c-.2-.1-.5-.2-.7-.2-.4,0-.6.2-.8.5s-.3.8-.3,1.3v2.9h-.9v-5.6h.9v.8h0c.3-.6.7-1,1.2-1s.6.1,1,.3h0Z"/>
      <path class="st6" d="M81.6,170.9h-1.2l-1.8-2.8-.7.6v2.2h-.9v-7.7h.9v4.4l2.2-2.2h1.2l-2.1,2.1,2.3,3.5h0Z"/>
      <path class="st4" d="M81.6,170.9h-1.2l-1.8-2.8-.7.6v2.2h-.9v-7.7h.9v4.4l2.2-2.2h1.2l-2.1,2.1,2.3,3.5h0Z"/>
      <path class="st6" d="M88.4,165.2c.8,0,1.4.2,1.9.7.5.5.8,1.2.8,2.1s-.3,1.9-.8,2.3c-.5.4-1.1.7-1.8.7s-1.3-.2-1.8-.7c-.5-.5-.8-1.2-.8-2.2s.2-1.7.8-2.2,1.1-.7,1.9-.7h0ZM88.4,170.2c.5,0,.9-.2,1.2-.6.3-.4.4-.9.4-1.6s-.2-1.2-.5-1.6c-.3-.4-.7-.5-1.2-.5s-.9.2-1.2.5c-.3.4-.5.9-.5,1.6s.2,1.2.5,1.6c.3.4.7.5,1.2.5h0Z"/>
      <path class="st4" d="M88.4,165.2c.8,0,1.4.2,1.9.7.5.5.8,1.2.8,2.1s-.3,1.9-.8,2.3c-.5.4-1.1.7-1.8.7s-1.3-.2-1.8-.7-.8-1.2-.8-2.2.2-1.7.8-2.2,1.1-.7,1.9-.7h0ZM88.4,170.2c.5,0,.9-.2,1.2-.6.3-.4.4-.9.4-1.6s-.2-1.2-.5-1.6c-.3-.4-.7-.5-1.2-.5s-.9.2-1.2.5c-.3.4-.5.9-.5,1.6s.2,1.2.5,1.6c.3.4.7.5,1.2.5h0Z"/>
      <path class="st6" d="M95.2,163.1v.8c-.3,0-.5,0-.7,0s-.4,0-.6.1c-.2,0-.2.3-.2.7v.5h1.1v.7h-1.1v4.8h-.9v-4.8h-.8v-.7h.8v-.6c0-.3,0-.5,0-.8s.2-.4.4-.6c.2-.2.6-.3,1.1-.3.3,0,.6,0,.9,0h0Z"/>
      <path class="st4" d="M95.2,163.1l-.2.8c-.2,0-.4,0-.6,0s-.4,0-.6.1c-.2,0-.2.3-.2.7v.5h1.1v.7h-1.1v4.8h-.9v-4.8h-.8v-.7h.8v-.6c0-.3,0-.5,0-.8s.2-.4.4-.6c.2-.2.6-.3,1.1-.3.3,0,.6,0,.9,0h0Z"/>
      <path class="st6" d="M16.7,177.6l-.3.9c-.2-.1-.5-.2-.7-.2-.4,0-.6.2-.8.5-.2.3-.3.8-.3,1.3v2.9h-.9v-5.6h.9v.8h0c.3-.6.7-1,1.2-1s.6.1,1,.3h0Z"/>
      <path class="st4" d="M16.7,177.6l-.3.9c-.2-.1-.5-.2-.7-.2-.4,0-.6.2-.8.5-.2.3-.3.8-.3,1.3v2.9h-.9v-5.6h.9v.8h0c.3-.6.7-1,1.2-1s.6.1,1,.3h0Z"/>
      <path class="st6" d="M22.6,180.4h-4.2c0,.6.2,1.1.5,1.4.3.3.7.5,1.2.5s.7,0,.9-.3.4-.5.6-.9h1c-.2.7-.5,1.1-.9,1.5s-1,.5-1.6.5-1.5-.2-2-.8c-.5-.5-.7-1.2-.7-2.1s.2-1.6.7-2.1c.5-.6,1.1-.8,1.9-.8s.8,0,1.2.3c.4.2.7.5,1,.9.3.4.4,1.1.4,2h0ZM21.6,179.7c0-.6-.2-1-.5-1.2-.3-.2-.7-.4-1-.4-.4,0-.8.1-1.1.4s-.5.7-.5,1.1h3.2Z"/>
      <path class="st4" d="M22.6,180.4h-4.2c0,.6.2,1.1.5,1.4.3.3.7.5,1.2.5s.7,0,.9-.3.4-.5.6-.9h1c-.2.7-.5,1.1-.9,1.5s-1,.5-1.6.5-1.5-.2-2-.8c-.5-.5-.7-1.2-.7-2.1s.2-1.6.7-2.1c.5-.6,1.1-.8,1.9-.8s.8,0,1.2.3c.4.2.7.5,1,.9.3.4.4,1.1.4,2h0ZM21.6,179.7c0-.6-.2-1-.5-1.2-.3-.2-.7-.4-1-.4-.4,0-.8.1-1.1.4s-.5.7-.5,1.1h3.2Z"/>
      <path class="st6" d="M27.2,179c0-.3-.2-.5-.4-.7-.2-.1-.5-.2-.9-.2s-.6,0-.9.2c-.2.1-.3.3-.3.5,0,.2,0,.4.3.5.2,0,.5.2,1,.4.6.1,1,.3,1.3.4.3.1.5.3.7.5.2.2.2.5.2.9s-.2.9-.6,1.2c-.4.3-1,.5-1.6.5s-1.3-.1-1.7-.4c-.4-.3-.6-.8-.7-1.4h.9c0,.2.2.5.4.7.2.2.6.3,1,.3s.7,0,1-.2c.2-.2.3-.4.3-.6s0-.3-.1-.4c-.1-.1-.2-.2-.4-.2s-.5-.1-1-.3c-.8-.2-1.3-.4-1.6-.7-.2-.3-.4-.6-.4-1s.2-.9.5-1.1c.4-.3.9-.4,1.5-.4s1.2.1,1.5.4c.4.3.6.6.7,1.2h-.9c0,.1,0,.1,0,.1Z"/>
      <path class="st4" d="M27.2,179c0-.3-.2-.5-.4-.7-.2-.1-.5-.2-.9-.2s-.6,0-.9.2c-.2.1-.3.3-.3.5,0,.2,0,.4.3.5.2,0,.5.2,1,.4.6.1,1,.3,1.3.4.3.1.5.3.7.5.2.2.2.5.2.9s-.2.9-.6,1.2-1,.5-1.6.5-1.3-.1-1.7-.4c-.4-.3-.6-.8-.7-1.4h.9c0,.2.2.5.4.7s.6.3,1,.3.7,0,1-.2c.2-.2.3-.4.3-.6s0-.3-.1-.4c-.1-.1-.2-.2-.4-.2s-.5-.1-1-.3c-.8-.2-1.3-.4-1.6-.7-.2-.3-.4-.6-.4-1s.2-.9.5-1.1c.4-.3.9-.4,1.5-.4s1.2.1,1.6.4c.4.3.6.6.7,1.2h-.9c0,.1,0,.1,0,.1Z"/>
      <path class="st6" d="M30.8,178.1c.4-.6.9-.8,1.6-.8s1.3.3,1.7.8c.4.5.6,1.2.6,2.1s-.2,1.6-.7,2.2-1,.8-1.7.8-1.1-.2-1.4-.7h0v2.7h-1v-7.7h.9v.7h0ZM32.3,182.3c.4,0,.8-.2,1.1-.5.3-.4.4-.9.4-1.6,0-.7-.1-1.2-.4-1.6s-.6-.6-1.1-.6-.8.2-1.1.6-.4.9-.4,1.6.1,1.2.4,1.6c.3.4.6.5,1.1.5h0Z"/>
      <path class="st4" d="M30.8,178.1c.4-.6.9-.8,1.6-.8s1.3.3,1.7.8c.4.5.6,1.2.6,2.1s-.2,1.6-.7,2.2c-.5.5-1,.8-1.7.8s-1.1-.2-1.4-.7h0v2.7h-1v-7.7h.9v.7h0ZM32.3,182.3c.4,0,.8-.2,1.1-.5.3-.4.4-.9.4-1.6,0-.7-.1-1.2-.4-1.6s-.6-.6-1.1-.6-.8.2-1.1.6-.4.9-.4,1.6.1,1.2.4,1.6c.3.4.6.5,1.1.5h0Z"/>
      <path class="st6" d="M38.6,177.3c.8,0,1.4.2,1.9.7.5.5.7,1.2.8,2.1,0,1.1-.3,1.9-.8,2.3-.5.4-1.1.7-1.8.7s-1.3-.2-1.8-.7-.8-1.2-.8-2.2.2-1.7.8-2.2c.5-.5,1.1-.7,1.9-.7h0ZM38.6,182.3c.5,0,1-.2,1.2-.6.3-.4.4-.9.4-1.6s-.2-1.2-.5-1.6c-.3-.4-.7-.5-1.2-.5s-.9.2-1.2.5c-.3.4-.5.9-.5,1.6s.2,1.2.5,1.6c.3.4.7.5,1.2.5h0Z"/>
      <path class="st4" d="M38.6,177.3c.8,0,1.4.2,1.9.7.5.5.7,1.2.8,2.1,0,1.1-.3,1.9-.8,2.3-.5.4-1.2.7-1.8.7s-1.3-.2-1.8-.7c-.5-.5-.8-1.2-.8-2.2s.2-1.7.8-2.2c.5-.5,1.1-.7,1.9-.7h0ZM38.6,182.3c.5,0,1-.2,1.2-.6.3-.4.4-.9.4-1.6s-.2-1.2-.5-1.6c-.3-.4-.7-.5-1.2-.5s-.9.2-1.2.5c-.3.4-.5.9-.5,1.6s.2,1.2.5,1.6c.3.4.7.5,1.2.5h0Z"/>
      <path class="st6" d="M47.3,183h-1v-3.4c0-.6,0-1-.3-1.2-.2-.2-.5-.3-.8-.3s-.5,0-.8.2-.4.3-.5.6-.2.6-.2,1.1v3h-1v-5.6h.8v.8h0c.2-.3.5-.5.7-.7.3-.1.6-.2,1-.2s.6,0,.9.2c.3.1.5.3.7.5.2.2.3.4.3.7,0,.2,0,.6,0,1v3.4h0Z"/>
      <path class="st4" d="M47.3,183h-1v-3.4c0-.6,0-1-.3-1.2-.2-.2-.5-.3-.9-.3s-.5,0-.8.2-.4.3-.5.6c-.1.2-.2.6-.2,1.1v3h-1v-5.6h.8v.8h0c.2-.3.5-.5.7-.7s.6-.2,1-.2.6,0,.9.2c.3.1.5.3.7.5.2.2.3.4.3.7,0,.2,0,.6,0,1v3.4h0Z"/>
      <path class="st6" d="M52.3,179c0-.3-.2-.5-.4-.7-.2-.1-.5-.2-.9-.2s-.7,0-.9.2c-.2.1-.3.3-.3.5s0,.4.3.5.5.2,1,.4c.6.1,1,.3,1.3.4.3.1.5.3.7.5.2.2.2.5.2.9s-.2.9-.6,1.2c-.4.3-1,.5-1.6.5s-1.3-.1-1.7-.4c-.4-.3-.6-.8-.7-1.4h.9c0,.2.2.5.4.7.2.2.6.3,1,.3s.7,0,1-.2.3-.4.3-.6,0-.3-.2-.4c0-.1-.2-.2-.4-.2s-.5-.1-1-.3c-.8-.2-1.3-.4-1.6-.7-.2-.3-.4-.6-.4-1s.2-.9.6-1.1c.4-.3.9-.4,1.5-.4s1.2.1,1.5.4.6.6.7,1.2h-.9c0,.1,0,.1,0,.1Z"/>
      <path class="st4" d="M52.3,179c0-.3-.2-.5-.4-.7-.2-.1-.5-.2-.9-.2s-.7,0-.9.2c-.2.1-.3.3-.3.5s0,.4.3.5.5.2,1,.4c.6.1,1,.3,1.3.4.3.1.5.3.7.5.2.2.2.5.2.9s-.2.9-.6,1.2-1,.5-1.6.5-1.3-.1-1.7-.4c-.4-.3-.6-.8-.7-1.4h.9c0,.2.2.5.4.7s.6.3,1,.3.7,0,1-.2.3-.4.3-.6,0-.3-.2-.4c0-.1-.2-.2-.4-.2s-.5-.1-1-.3c-.8-.2-1.3-.4-1.6-.7-.2-.3-.4-.6-.4-1s.2-.9.6-1.1c.4-.3.9-.4,1.5-.4s1.2.1,1.5.4.6.6.7,1.2h-.9c0,.1,0,.1,0,.1Z"/>
      <path class="st6" d="M55.9,183h-1v-5.6h1v5.6ZM55.9,176.4h-1v-1.1h1v1.1Z"/>
      <path class="st4" d="M55.9,183h-1v-5.6h1v5.6ZM55.9,176.4h-1v-1.1h1v1.1Z"/>
      <path class="st6" d="M58.8,178.1c.3-.5.8-.8,1.5-.8s1.3.3,1.7.8.7,1.2.7,2-.2,1.7-.7,2.2c-.5.5-1,.8-1.7.8-.7,0-1.2-.3-1.5-.8h0v.7h-.9v-7.7h1v2.8h0,0ZM60.2,182.3c.4,0,.8-.2,1.1-.6s.4-.9.4-1.6-.1-1.2-.4-1.6c-.3-.4-.6-.6-1.1-.6s-.8.2-1.1.6-.4.9-.4,1.5,0,1,.2,1.3c.1.2.3.5.5.6.2.2.5.3.8.3h0Z"/>
      <path class="st4" d="M58.8,178.1c.3-.5.8-.8,1.5-.8s1.3.3,1.7.8.7,1.2.7,2-.2,1.7-.7,2.2c-.5.5-1,.8-1.7.8-.7,0-1.2-.3-1.5-.8h0v.7h-.9v-7.7h.9v2.8h0ZM60.2,182.3c.4,0,.8-.2,1.1-.6.3-.4.4-.9.4-1.6s-.1-1.2-.4-1.6c-.3-.4-.6-.6-1.1-.6s-.8.2-1.1.6-.4.9-.4,1.5,0,1,.2,1.3c.1.2.3.5.5.6s.5.3.8.3h0Z"/>
      <rect class="st6" x="64.2" y="175.3" width=".9" height="7.7"/>
      <rect class="st4" x="64.2" y="175.3" width=".9" height="7.7"/>
      <path class="st6" d="M71.9,180.4h-4.2c0,.6.2,1.1.5,1.4.3.3.7.5,1.2.5s.7,0,.9-.3.4-.5.6-.9h1c-.2.7-.4,1.1-.9,1.5-.4.3-.9.5-1.6.5s-1.5-.2-2-.8-.7-1.2-.7-2.1.2-1.6.7-2.1c.5-.6,1.1-.8,1.9-.8s.8,0,1.2.3c.4.2.7.5,1,.9.3.4.4,1.1.4,2h0ZM70.9,179.7c0-.6-.2-1-.5-1.2s-.7-.4-1-.4c-.4,0-.8.1-1.1.4-.3.3-.4.7-.5,1.1h3.2,0Z"/>
      <path class="st4" d="M71.9,180.4h-4.2c0,.6.2,1.1.5,1.4.3.3.7.5,1.2.5s.7,0,.9-.3.4-.5.6-.9h1c-.2.7-.4,1.1-.9,1.5-.4.3-.9.5-1.6.5s-1.5-.2-2-.8c-.5-.5-.7-1.2-.7-2.1s.2-1.6.7-2.1c.5-.6,1.1-.8,1.9-.8s.8,0,1.2.3c.4.2.7.5,1,.9.3.4.4,1.1.4,2h0ZM70.9,179.7c0-.6-.2-1-.5-1.2s-.7-.4-1-.4c-.4,0-.8.1-1.1.4-.3.3-.4.7-.5,1.1h3.2,0Z"/>
      <path class="st6" d="M79.5,175.3v.8c-.3,0-.5,0-.7,0s-.4,0-.6.1c-.1.1-.2.3-.2.7v.5h1.1v.7h-1.1v4.8h-.9v-4.8h-.8v-.7h.8v-.6c0-.3,0-.5,0-.8,0-.2.2-.4.4-.6.2-.2.6-.3,1.1-.3s.6,0,.9.1h0Z"/>
      <path class="st4" d="M79.5,175.3v.8c-.3,0-.5,0-.7,0s-.4,0-.6.1c-.1.1-.2.3-.2.7v.5h1.1v.7h-1.1v4.8h-.9v-4.8h-.8v-.7h.8v-.6c0-.3,0-.5,0-.8,0-.2.2-.4.4-.6.2-.2.6-.3,1.1-.3s.6,0,.9.1h0Z"/>
      <path class="st6" d="M82.6,177.3c.8,0,1.4.2,1.9.7.5.5.8,1.2.8,2.1s-.3,1.9-.8,2.3c-.5.4-1.1.7-1.8.7s-1.3-.2-1.8-.7-.8-1.2-.8-2.2.2-1.7.8-2.2c.5-.5,1.1-.7,1.9-.7h0ZM82.6,182.3c.5,0,.9-.2,1.2-.6.3-.4.4-.9.4-1.6s-.2-1.2-.5-1.6c-.3-.4-.7-.5-1.2-.5s-.9.2-1.2.5c-.3.4-.5.9-.5,1.6s.2,1.2.5,1.6c.3.4.7.5,1.2.5h0Z"/>
      <path class="st4" d="M82.6,177.3c.8,0,1.4.2,1.9.7.5.5.8,1.2.8,2.1s-.3,1.9-.8,2.3c-.5.4-1.1.7-1.8.7s-1.3-.2-1.8-.7c-.5-.5-.8-1.2-.8-2.2s.2-1.7.8-2.2c.5-.5,1.1-.7,1.9-.7h0ZM82.6,182.3c.5,0,.9-.2,1.2-.6.3-.4.4-.9.4-1.6s-.2-1.2-.5-1.6c-.3-.4-.7-.5-1.2-.5s-.9.2-1.2.5c-.3.4-.5.9-.5,1.6s.2,1.2.5,1.6c.3.4.7.5,1.2.5h0Z"/>
      <path class="st6" d="M89.7,177.6l-.3.9c-.2-.1-.5-.2-.7-.2-.4,0-.6.2-.8.5-.2.3-.3.8-.3,1.3v2.9h-.9v-5.6h.9v.8h0c.3-.6.7-1,1.2-1s.7.1,1,.3h0Z"/>
      <path class="st4" d="M89.7,177.6l-.3.9c-.2-.1-.5-.2-.7-.2-.3,0-.6.2-.8.5-.2.3-.3.8-.3,1.3v2.9h-.9v-5.6h.9v.8h0c.3-.6.7-1,1.2-1s.7.1,1,.3h0Z"/>
      <path class="st6" d="M95.6,180.4h-4.2c0,.6.2,1.1.5,1.4.3.3.7.5,1.2.5s.7,0,.9-.3.4-.5.6-.9h1c-.2.7-.4,1.1-.9,1.5-.4.3-.9.5-1.6.5s-1.5-.2-2-.8-.7-1.2-.7-2.1.2-1.6.7-2.1c.5-.6,1.1-.8,1.9-.8s.8,0,1.2.3c.4.2.7.5,1,.9.3.4.4,1.1.4,2h0ZM94.6,179.7c0-.6-.2-1-.5-1.2-.3-.2-.7-.4-1-.4-.4,0-.8.1-1.1.4s-.4.7-.5,1.1h3.2,0Z"/>
      <path class="st4" d="M95.6,180.4h-4.2c0,.6.2,1.1.5,1.4.3.3.7.5,1.2.5s.7,0,.9-.3.4-.5.6-.9h1c-.2.7-.4,1.1-.9,1.5-.4.3-.9.5-1.6.5s-1.5-.2-2-.8c-.5-.5-.7-1.2-.7-2.1s.2-1.6.7-2.1c.5-.6,1.1-.8,1.9-.8s.8,0,1.2.3c.4.2.7.5,1,.9.3.4.4,1.1.4,2h0ZM94.6,179.7c0-.6-.2-1-.5-1.2-.3-.2-.7-.4-1-.4-.4,0-.8.1-1.1.4s-.4.7-.5,1.1h3.2,0Z"/>
      <path class="st6" d="M100.2,179c0-.3-.2-.5-.4-.7-.2-.1-.5-.2-.8-.2s-.7,0-.9.2c-.2.1-.3.3-.3.5,0,.2,0,.4.3.5.2,0,.5.2,1.1.4.6.1,1,.3,1.3.4.3.1.5.3.7.5.2.2.2.5.2.9s-.2.9-.6,1.2c-.4.3-.9.5-1.6.5s-1.3-.1-1.7-.4c-.4-.3-.7-.8-.7-1.4h.9c0,.2.2.5.4.7.2.2.6.3,1,.3s.7,0,.9-.2c.2-.2.3-.4.3-.6s0-.3-.2-.4c0-.1-.2-.2-.4-.2-.2,0-.5-.1-1-.3-.8-.2-1.3-.4-1.6-.7-.2-.3-.4-.6-.4-1,0-.5.2-.9.6-1.1.4-.3.9-.4,1.5-.4s1.2.1,1.6.4.6.6.7,1.2h-.9c0,.1,0,.1,0,.1Z"/>
      <path class="st4" d="M100.2,179c0-.3-.2-.5-.4-.7-.2-.1-.5-.2-.8-.2s-.7,0-.9.2c-.2.1-.3.3-.3.5,0,.2,0,.4.3.5.2,0,.5.2,1.1.4.6.1,1,.3,1.3.4.3.1.5.3.7.5.2.2.2.5.2.9s-.2.9-.6,1.2-.9.5-1.6.5-1.3-.1-1.7-.4-.7-.8-.7-1.4h.9c0,.2.2.5.4.7s.6.3,1,.3.7,0,.9-.2c.2-.2.3-.4.3-.6s0-.3-.2-.4c0-.1-.2-.2-.4-.2-.2,0-.5-.1-1-.3-.8-.2-1.3-.4-1.6-.7-.2-.3-.4-.6-.4-1,0-.5.2-.9.6-1.1.4-.3.9-.4,1.5-.4s1.2.1,1.6.4.6.6.7,1.2h-.9c0,.1,0,.1,0,.1Z"/>
      <path class="st6" d="M105.1,183c-.3,0-.5,0-.7,0-.4,0-.7,0-.9-.2-.2-.1-.3-.3-.3-.6,0-.2,0-.5,0-.9v-3.2h-.7v-.7h.7v-1.4l.9-.6v2h.9v.7h-.9v3.3c0,.3,0,.5,0,.6,0,.1.2.2.4.2s.3,0,.4,0v.8c.1,0,.1,0,.1,0Z"/>
      <path class="st4" d="M105.1,183c-.3,0-.5,0-.7,0-.4,0-.7,0-.9-.2-.2-.1-.3-.3-.3-.6,0-.2,0-.5,0-.9v-3.2h-.7v-.7h.7v-1.4l.9-.6v2h.9v.7h-.9v3.3c0,.3,0,.5,0,.6,0,.1.2.2.4.2s.3,0,.4,0v.8c.1,0,.1,0,.1,0Z"/>
      <path class="st6" d="M109.3,177.6l-.3.9c-.2-.1-.5-.2-.7-.2-.3,0-.6.2-.8.5-.2.3-.3.8-.3,1.3v2.9h-.9v-5.6h.9v.8h0c.3-.6.7-1,1.2-1s.7.1,1,.3h0Z"/>
      <path class="st4" d="M109.3,177.6l-.3.9c-.2-.1-.5-.2-.7-.2-.3,0-.6.2-.8.5-.2.3-.3.8-.3,1.3v2.9h-.9v-5.6h.9v.8h0c.3-.6.7-1,1.2-1s.7.1,1,.3h0Z"/>
      <path class="st6" d="M114.9,177.4l-2.1,5.7s0,0,0,0c-.2.6-.4,1.1-.7,1.5s-.7.6-1.2.6-.4,0-.6-.1v-.9c0,0,.3,0,.4,0,.3,0,.6,0,.7-.3.1-.2.3-.5.5-1l-2.1-5.6h1l1.3,3.6c0,.2.2.5.2.9h0c0-.4.2-.8.3-1.2l1.2-3.4h1,0Z"/>
      <g class="st7">
        <path class="st4" d="M114.9,177.4l-2.1,5.7s0,0,0,0c-.2.6-.4,1.1-.7,1.5s-.7.6-1.2.6-.4,0-.6-.1v-.9c0,0,.3,0,.4,0,.3,0,.6,0,.7-.3.1-.2.3-.5.5-1l-2.1-5.6h1l1.3,3.6c0,.2.2.5.2.9h0c0-.4.2-.8.3-1.2l1.2-3.4h1,0Z"/>
      </g>
    </g>
  </g>
</svg>