<svg xmlns="http://www.w3.org/2000/svg" xmlns:xlink="http://www.w3.org/1999/xlink" id="Layer_2" viewBox="0 0 128 186"><defs><style>      .cls-1, .cls-2, .cls-3, .cls-4 {        fill: none;      }      .cls-2 {        stroke-width: .21px;      }      .cls-2, .cls-3, .cls-4 {        stroke: #000;      }      .cls-3 {        stroke-width: .42px;      }      .cls-4 {        stroke-width: 1.28px;      }      .cls-5 {        clip-path: url(#clippath-1);      }      .cls-6 {        fill: #fff;      }      .cls-7 {        clip-path: url(#clippath);      }    </style><clipPath id="clippath"><rect class="cls-1" width="128" height="186"></rect></clipPath><clipPath id="clippath-1"><rect class="cls-1" width="128" height="186"></rect></clipPath></defs><g id="Layer_1-2" data-name="Layer_1"><g><path class="cls-6" d="M7.04.64h113.92c3.54,0,6.4,2.85,6.4,6.38v135.81c0,3.52-2.86,6.38-6.4,6.38H7.04c-3.54,0-6.4-2.86-6.4-6.38V7.01C.64,3.49,3.5.64,7.04.64h0Z"></path><g class="cls-7"><path class="cls-4" d="M7.04.64h113.92c3.54,0,6.4,2.86,6.4,6.37v135.81c0,3.52-2.86,6.37-6.4,6.37H7.04c-3.54,0-6.4-2.86-6.4-6.37V7.01C.64,3.49,3.5.64,7.04.64h0Z"></path></g><path d="M34.95,119.06l-1.99-6.2h1.14l1.04,3.57.37,1.34c.02-.06.13-.48.35-1.27l1.03-3.64h1.12l.96,3.59.32,1.19.38-1.19,1.13-3.59h1.07l-2.07,6.2h-1.11l-1.01-3.71-.25-1.05-1.33,4.77h-1.14Z"></path><path d="M44.18,119.06l-1.99-6.2h1.15l1.04,3.57.37,1.34c.02-.06.13-.48.35-1.27l1.02-3.64h1.12l.97,3.59.31,1.19.38-1.19,1.14-3.59h1.07l-2.08,6.2h-1.1l-1.02-3.71-.25-1.05-1.34,4.77h-1.13Z"></path><path d="M53.41,119.06l-1.98-6.2h1.14l1.04,3.57.37,1.34c.01-.06.13-.48.34-1.27l1.03-3.64h1.12l.96,3.59.31,1.19.38-1.19,1.14-3.59h1.07l-2.07,6.2h-1.11l-1.01-3.71-.25-1.05-1.33,4.77h-1.14Z"></path><rect x="60.56" y="117.87" width="1.24" height="1.19"></rect><path d="M63.67,119.06v-5.39h-.95v-.81h.95v-.66c0-.42.04-.72.11-.93.11-.27.3-.49.56-.66.26-.17.64-.25,1.12-.25.3,0,.64.04,1.02.11l-.16.91c-.23-.04-.45-.06-.64-.06-.33,0-.57.06-.7.2-.14.14-.21.39-.21.77v.57h1.26v.82h-1.26v5.38h-1.09Z"></path><path d="M66.58,117.19l1.1-.14c.06.41.22.73.5.96.28.21.66.32,1.16.32s.87-.1,1.11-.29c.24-.2.36-.43.36-.7,0-.24-.11-.43-.32-.56-.15-.09-.52-.21-1.11-.35-.79-.19-1.34-.36-1.65-.5-.32-.15-.55-.34-.71-.59-.16-.25-.24-.53-.24-.83,0-.28.06-.54.2-.76.12-.24.3-.43.53-.59.18-.11.4-.21.7-.31.3-.08.61-.12.94-.12.5,0,.94.07,1.32.21.38.14.66.33.84.57.18.24.3.57.38.96l-1.07.14c-.05-.32-.19-.58-.41-.76-.23-.18-.56-.27-.97-.27-.5,0-.85.08-1.06.24-.22.16-.32.34-.32.56,0,.14.04.26.13.37.09.11.23.21.42.28.1.04.42.13.95.27.76.2,1.3.36,1.61.48.31.13.55.31.72.55.17.24.26.54.26.9s-.11.67-.32.99c-.21.31-.51.55-.91.71-.4.17-.85.26-1.36.26-.83,0-1.47-.16-1.91-.5-.44-.34-.72-.84-.84-1.5h0Z"></path><path d="M77.36,116.8l1.07.14c-.12.71-.42,1.26-.89,1.66-.49.4-1.08.6-1.78.6-.88,0-1.59-.28-2.12-.82-.54-.56-.8-1.35-.8-2.38,0-.67.12-1.26.34-1.77.23-.5.58-.87,1.05-1.12.47-.25.98-.38,1.54-.38.7,0,1.26.17,1.71.52.44.34.73.83.85,1.47l-1.07.14c-.1-.41-.28-.73-.54-.94-.25-.21-.56-.31-.93-.31-.55,0-.99.19-1.33.56-.34.38-.52.99-.52,1.81s.17,1.44.5,1.81c.33.38.76.57,1.29.57.43,0,.78-.13,1.07-.38.28-.25.47-.64.54-1.16h0Z"></path><rect x="79.6" y="117.87" width="1.24" height="1.19"></rect><path d="M81.85,115.97c0-1.16.33-2,1-2.56.55-.46,1.23-.68,2.03-.68.89,0,1.61.28,2.18.83.56.56.84,1.33.84,2.32,0,.8-.12,1.42-.37,1.88-.25.46-.61.81-1.09,1.07-.47.25-1,.38-1.56.38-.91,0-1.63-.28-2.19-.83-.55-.56-.84-1.36-.84-2.4h0ZM82.98,115.96c0,.79.18,1.39.55,1.79.36.39.82.59,1.36.59s1-.2,1.36-.6c.36-.39.55-1,.55-1.81,0-.77-.18-1.35-.55-1.75-.36-.39-.82-.59-1.36-.59s-1,.2-1.36.59c-.37.39-.55,1-.55,1.79h0Z"></path><path d="M89.17,119.06v-6.2h.97v.95c.26-.44.49-.74.7-.88.21-.14.45-.21.7-.21.37,0,.75.1,1.13.34l-.39.96c-.26-.14-.52-.2-.79-.2-.23,0-.44.07-.64.2-.18.14-.32.33-.4.58-.12.37-.18.77-.18,1.22v3.24h-1.09Z"></path><path d="M93,119.57l1.09.14c.05.32.16.55.37.7.27.2.64.3,1.11.3.5,0,.9-.1,1.17-.3.27-.2.46-.47.56-.82.05-.21.08-.67.07-1.36-.48.55-1.08.82-1.79.82-.9,0-1.59-.31-2.07-.92-.49-.62-.73-1.35-.73-2.21,0-.59.11-1.14.33-1.64.23-.5.55-.89.98-1.16.42-.28.92-.41,1.49-.41.77,0,1.39.3,1.89.91v-.77h1v5.36c0,.96-.1,1.64-.31,2.05-.2.4-.53.72-.97.95-.45.23-.99.35-1.64.35-.77,0-1.39-.16-1.87-.49-.47-.34-.7-.84-.68-1.51h0ZM93.9,115.85c0,.81.18,1.41.51,1.78.34.38.77.56,1.27.56s.93-.18,1.28-.55c.34-.38.51-.96.51-1.76s-.17-1.34-.53-1.72c-.35-.38-.77-.58-1.27-.58s-.91.19-1.25.57c-.34.39-.52.95-.52,1.7h0Z"></path><path d="M66.29,11.02c-19.73,0-26.7,29.4-33.19,53.05-2.34-2.28-9.56-9.18-9.57-9.17-1.45-1.38-3.12-.93-4.14.03-1.02.99-1.17,2.81,0,3.92.06.05,9.79,9.35,13.15,12.57.93.87,2.27,1.38,3.6.62,1.39-.81,1.59-2.27,1.62-2.27,11.52-49.5,21.82-53.19,28.5-53.19,5.62,0,12.1,3.98,12.1,11.95,8.39,0,13.64,10.56,6.89,17.06,5.6,2.59,8.09,5.79,8.09,9.82s-3.54,8.17-8.68,8.16c-5.1,0-7.71-3.15-11.69-3.16-1.8,0-2.9,1.4-2.9,2.77v10h-7.52v-9.96c-.01-1.56-1.21-2.79-2.7-2.79-.03,0-.65.02-.63.03l-10.07,1.2c-1.22.16-2.34,1.42-2.34,2.74,0,1.53,1.3,2.8,3.09,2.78.22,0,.53,0,.5-.02-.01,0,6.38-.79,6.38-.79v9.86c0,1.26,1.48,2.47,2.8,2.48h13.38c1.56,0,2.91-1.29,2.91-2.8v-9.01c2.8,1.64,6.69,2.28,8.69,2.28,7.5,0,14.66-5.66,14.63-13.94-.03-7.53-6.02-11.28-6.02-11.28,3.52-8.99-2.17-17.67-9.56-20.09-2.66-9.28-10.92-12.87-17.31-12.87h0Z"></path><path d="M57.87,89.73c0,2.33,2.71,3.73,7.16,5.76,3.54,1.59,5.57,3.27,5.57,4.61,0,2.18-2.45,2.96-4.75,2.96-3.55,0-5.65-1.36-6.81-4.4l-.09-.26h-.29c-.63,0-1.12.03-1.4.36-.25.3-.18.71-.07,1.1-.01,0,.78,3.12.78,3.12.21.77.5.89,1.76,1.12.56.09,3.43.57,5.86.57,6.79,0,9.82-2.64,9.82-5.26,0-1.91-1.97-3.73-6.22-5.76l-1.94-.89c-2.91-1.33-4.66-2.12-4.66-3.52s1.82-2.3,4.43-2.3c3.39,0,4.3,1.82,4.71,3.4l.08.3h.32c.75,0,1.23-.06,1.51-.35.17-.16.23-.39.2-.66l-.27-2.71c-.07-.86-.76-.99-1.72-1.17-1.14-.2-2.5-.43-4.57-.43-5.89,0-9.41,1.65-9.41,4.41h0Z"></path><path d="M77.4,95.21c0,4.7,4.26,9.48,12.41,9.48,4.11,0,6.43-.9,8.15-1.78l.47-.24-.76-.8.04.04c-.18-.25-.32-.29-.59-.29l-.4.13c-.62.28-2.5,1.11-5.93,1.11-4.21,0-8.76-2.64-8.76-8.44s4.93-7.48,9.13-7.48c3.03,0,4.64,1.04,4.93,3.18l.04.36h.38c.35,0,1.32,0,1.32-.69v-3.22c0-.79-.95-.91-1.35-.96l-.39-.05c-.97-.13-1.89-.24-4.36-.24-8.3,0-14.33,4.17-14.33,9.9h0Z"></path><path d="M46.68,85.54l-7.34.06-4.9-.08h-.74c-.44-.01-.75.29-.75.72,0,.2,0,.83.81.83,2.96,0,3.07.24,3.1,1.32l.02.69.04,2.9v6.24c0,1.04-.03,2.68-.11,4.01-.02.38-.04.74-2.66.74-.73,0-1.17.14-1.17.83,0,.2,0,.74.71.74h.16c.31-.02,1.14-.06,5.23-.06,4.35,0,5.23.04,5.52.05h.16c.57,0,1.07-.05,1.07-.73,0-.77-.66-.83-1.77-.83-2.62,0-2.64-.36-2.66-.74-.06-1.22-.11-2.87-.11-4.01v-2.25h2.19c3.37,0,3.75.09,4.24,2.57.13.54.58.61.96.61.79,0,.88-.41.88-.6l-.07-.93c-.05-.54-.11-1.2-.11-2.11v-3.82c0-.58-.71-.58-1.1-.58-.64,0-.78.39-1.19,2.2-.18.69-1.57,1.09-3.81,1.09h-1.98v-5.62c0-1.53.28-1.54.63-1.55,1.29-.05,4.41-.16,5.35-.16.89,0,1.71.2,2.24.53,1.66,1,2.52,1.67,3.04,2.07.5.39.79.62,1.2.62.24,0,.95,0,.95-.59,0-.15-.06-.28-.29-.76-.27-.58-.73-1.53-1.31-2.98-.16-.46-.72-.46-1.75-.46l-4.67.04Z"></path><path d="M90.38,13.86c1.08,0,2.02.39,2.79,1.16.78.77,1.17,1.7,1.17,2.79s-.39,2.02-1.16,2.8c-.78.77-1.71,1.16-2.8,1.16s-2.03-.39-2.81-1.16c-.78-.77-1.17-1.71-1.17-2.8s.39-2.02,1.17-2.79c.78-.77,1.72-1.16,2.81-1.16h0ZM90.37,21.12c.91,0,1.69-.32,2.34-.97.65-.65.98-1.43.98-2.34,0-.91-.32-1.68-.97-2.33-.65-.64-1.43-.96-2.34-.97-.91,0-1.69.32-2.34.96-.64.65-.97,1.42-.97,2.33,0,.91.32,1.69.97,2.34.65.64,1.43.97,2.34.97h0ZM92.22,20h-.84c-.53-.96-.88-1.5-1.04-1.62-.16-.12-.36-.18-.61-.18h-.41v1.81h-.69v-4.25h1.48c.44,0,.78.03,1.02.09.24.06.43.19.58.4.14.2.22.42.22.66,0,.29-.11.55-.31.79-.21.24-.51.37-.91.4v.02c.25.06.59.41.99,1.06l.52.83ZM89.32,17.61h.84c.38,0,.65-.05.8-.17.15-.11.23-.27.23-.48s-.07-.36-.21-.47c-.14-.11-.43-.16-.87-.16h-.79v1.28Z"></path><path class="cls-3" d="M90.38,13.86c1.08,0,2.02.39,2.79,1.16.78.77,1.17,1.7,1.17,2.79s-.39,2.02-1.16,2.8c-.78.77-1.71,1.16-2.8,1.16s-2.03-.39-2.81-1.16c-.78-.77-1.17-1.71-1.17-2.8s.39-2.02,1.17-2.79c.78-.77,1.72-1.16,2.81-1.16h0ZM90.37,21.12c.91,0,1.69-.32,2.34-.97.65-.65.98-1.43.98-2.34,0-.91-.32-1.68-.97-2.33-.65-.64-1.43-.96-2.34-.97-.91,0-1.69.32-2.34.96-.64.64-.97,1.42-.97,2.33,0,.91.32,1.69.97,2.34.64.64,1.43.97,2.34.97h0ZM92.22,20h-.84c-.53-.96-.88-1.5-1.04-1.62-.16-.12-.36-.18-.61-.18h-.41v1.81h-.69v-4.25h1.48c.44,0,.78.03,1.02.09.24.06.43.2.58.4.14.2.22.42.22.66,0,.29-.11.55-.31.79-.21.24-.51.37-.91.4v.02c.25.06.59.41.99,1.06l.52.83ZM89.32,17.61h.84c.38,0,.65-.05.8-.17.15-.11.23-.27.23-.48s-.07-.36-.21-.47c-.14-.11-.43-.16-.87-.16h-.79v1.28Z"></path><path d="M31.67,132.85h-4.18v2.38h3.62v.91h-3.62v3.48h-1.02v-7.69h5.2v.91Z"></path><path class="cls-3" d="M31.67,132.86h-4.18v2.38h3.63v.91h-3.63v3.48h-1.02v-7.69h5.2v.91Z"></path><path d="M38.02,134.2c-.04-.49-.22-.85-.53-1.1-.31-.24-.76-.37-1.34-.37-.53,0-.95.1-1.29.29-.33.19-.49.48-.49.86,0,.33.12.58.38.74.25.16.74.32,1.46.49.64.14,1.16.28,1.56.43.41.15.75.38,1.04.68.29.31.43.73.43,1.25,0,.66-.26,1.21-.79,1.64-.52.44-1.21.66-2.07.66-1.09,0-1.89-.24-2.43-.72-.53-.48-.82-1.11-.85-1.88l.97-.08c.04.61.28,1.06.71,1.34.43.28.95.42,1.56.43.57,0,1.03-.12,1.38-.35.35-.23.53-.55.53-.95,0-.42-.18-.73-.55-.92-.37-.19-.98-.38-1.85-.57-.87-.18-1.49-.45-1.88-.79-.39-.34-.58-.78-.57-1.32,0-.61.24-1.12.73-1.52.48-.4,1.15-.61,1.98-.61s1.55.2,2.06.6c.52.4.8.97.83,1.71l-.98.08Z"></path><path class="cls-3" d="M38.02,134.2c-.04-.49-.22-.86-.53-1.1-.31-.24-.76-.37-1.34-.37-.53,0-.95.1-1.29.29-.33.2-.49.48-.49.85,0,.33.12.58.38.74.25.16.74.32,1.46.49.64.14,1.16.28,1.56.43.41.15.75.37,1.04.68.29.31.43.73.43,1.25,0,.66-.26,1.21-.79,1.64-.52.44-1.22.66-2.07.66-1.09,0-1.9-.24-2.43-.72-.54-.48-.82-1.11-.86-1.88l.97-.08c.04.61.28,1.06.71,1.34.43.28.95.42,1.56.43.57,0,1.03-.12,1.38-.35.35-.23.53-.55.53-.95,0-.42-.18-.73-.55-.92-.37-.19-.98-.38-1.85-.57-.87-.18-1.49-.45-1.88-.79-.39-.34-.58-.78-.57-1.32,0-.61.24-1.12.73-1.52.48-.4,1.14-.61,1.98-.61s1.55.2,2.06.6c.52.4.8.97.83,1.71l-.98.08Z"></path><path d="M47.58,137.19c-.23.86-.62,1.51-1.18,1.93-.56.43-1.23.64-2.01.64-1.26,0-2.18-.4-2.76-1.18-.57-.78-.86-1.73-.87-2.85,0-1.23.34-2.18,1.01-2.88.68-.69,1.55-1.04,2.62-1.04.75,0,1.39.19,1.93.57.54.38.91.94,1.12,1.67l-1,.23c-.17-.53-.43-.94-.77-1.21-.34-.27-.77-.4-1.29-.4-.84,0-1.48.27-1.91.82-.44.55-.65,1.29-.65,2.22,0,1.07.23,1.86.68,2.38.46.52,1.05.78,1.79.78.61,0,1.09-.16,1.47-.49.38-.32.64-.81.8-1.46l1.02.25Z"></path><path class="cls-3" d="M47.58,137.19c-.23.86-.62,1.51-1.18,1.93-.56.43-1.23.64-2.02.64-1.26,0-2.18-.39-2.76-1.18-.57-.79-.86-1.73-.87-2.85,0-1.23.34-2.18,1.02-2.88.68-.69,1.55-1.04,2.62-1.04.75,0,1.4.19,1.93.57.54.38.91.94,1.12,1.67l-1,.23c-.17-.53-.42-.94-.77-1.21-.34-.27-.77-.4-1.29-.4-.84,0-1.48.27-1.91.82-.44.55-.65,1.29-.65,2.22,0,1.07.23,1.86.68,2.38.46.52,1.06.78,1.79.78.61,0,1.09-.16,1.47-.49.38-.32.64-.81.8-1.47l1.02.25Z"></path><path d="M51.25,131.9c.54,0,1.01.19,1.4.58.39.39.59.85.59,1.4s-.2,1.01-.58,1.39c-.39.39-.85.58-1.4.58s-1.02-.19-1.4-.58c-.39-.39-.59-.85-.59-1.4s.2-1.01.59-1.4c.39-.39.85-.58,1.4-.58h0ZM51.24,135.53c.45,0,.84-.16,1.17-.48.32-.32.49-.71.49-1.17,0-.46-.16-.84-.49-1.16-.32-.32-.71-.48-1.17-.49-.46,0-.84.16-1.17.48-.32.32-.48.71-.49,1.17,0,.45.16.84.48,1.16.32.32.71.49,1.17.49h0ZM52.17,134.97h-.42c-.26-.48-.44-.75-.52-.81-.08-.06-.18-.09-.3-.09h-.21v.9h-.34v-2.12h.74c.22,0,.39.02.51.05.12.03.22.1.29.2.07.1.11.21.11.33,0,.14-.05.28-.16.39-.1.12-.26.19-.45.2h0c.13.04.29.22.5.54l.26.41ZM50.72,133.77h.42c.19,0,.33-.03.4-.08.07-.06.11-.14.11-.24s-.03-.18-.11-.23c-.07-.05-.22-.08-.43-.08h-.39v.64Z"></path><path class="cls-2" d="M51.25,131.9c.54,0,1.01.19,1.4.58.39.39.58.85.58,1.4s-.19,1.01-.58,1.39c-.39.39-.85.58-1.4.58s-1.02-.19-1.4-.58c-.39-.39-.59-.85-.59-1.4s.2-1.01.59-1.39c.39-.39.86-.58,1.4-.58h0ZM51.24,135.53c.45,0,.84-.16,1.17-.48.32-.32.49-.72.49-1.17,0-.46-.16-.84-.49-1.16-.32-.32-.71-.48-1.17-.49-.46,0-.84.16-1.17.48-.32.32-.48.71-.49,1.17,0,.45.16.84.48,1.16.32.32.71.49,1.17.49h0ZM52.17,134.97h-.42c-.26-.48-.44-.75-.52-.81-.08-.06-.18-.09-.3-.09h-.21v.9h-.34v-2.12h.74c.22,0,.39.02.51.05.12.03.22.1.29.2.07.1.11.21.11.33,0,.14-.05.28-.16.39-.11.12-.26.19-.45.2h0c.13.04.29.22.5.54l.26.41ZM50.72,133.77h.42c.19,0,.33-.03.4-.08.07-.05.11-.14.11-.24s-.03-.18-.11-.23c-.07-.05-.22-.08-.43-.08h-.39v.64Z"></path><path d="M65.41,137.19c-.23.86-.62,1.51-1.18,1.93-.56.43-1.23.64-2.02.64-1.26,0-2.18-.4-2.76-1.18-.57-.78-.86-1.73-.87-2.85,0-1.23.34-2.18,1.01-2.88.68-.69,1.55-1.04,2.62-1.04.75,0,1.39.19,1.93.57.53.38.91.94,1.12,1.67l-1,.23c-.17-.53-.43-.94-.77-1.21-.34-.27-.77-.4-1.29-.4-.84,0-1.48.27-1.91.82-.44.55-.65,1.29-.65,2.22,0,1.07.23,1.86.68,2.38.46.52,1.06.78,1.79.78.61,0,1.09-.16,1.47-.49.38-.32.64-.81.8-1.46l1.02.25Z"></path><path class="cls-3" d="M65.41,137.19c-.23.86-.62,1.51-1.18,1.93-.56.43-1.23.64-2.02.64-1.26,0-2.18-.39-2.76-1.18-.57-.79-.86-1.73-.87-2.85,0-1.23.34-2.18,1.01-2.88.68-.69,1.55-1.04,2.62-1.04.75,0,1.39.19,1.93.57.53.38.91.94,1.12,1.67l-1,.23c-.17-.53-.43-.94-.77-1.21-.34-.27-.77-.4-1.29-.4-.84,0-1.48.27-1.91.82-.44.55-.65,1.29-.65,2.22,0,1.07.23,1.86.68,2.38.46.52,1.06.78,1.79.78.61,0,1.09-.16,1.47-.49.38-.32.64-.81.8-1.47l1.02.25Z"></path><path d="M69.25,131.91c1.68,0,2.52,1.31,2.52,3.93,0,1.32-.22,2.31-.65,2.95-.43.64-1.06.97-1.87.97-1.68,0-2.51-1.31-2.51-3.92,0-1.32.22-2.31.65-2.96.43-.64,1.05-.97,1.86-.97h0ZM69.25,138.98c.51,0,.89-.24,1.15-.73.26-.49.39-1.3.39-2.41,0-.78-.06-1.39-.17-1.83-.11-.45-.28-.78-.52-1-.23-.22-.52-.33-.87-.33-.51,0-.89.25-1.15.75-.25.5-.38,1.3-.38,2.41,0,.76.06,1.37.18,1.82.11.44.28.78.51,1,.23.22.51.33.85.33h0Z"></path><path class="cls-3" d="M69.25,131.91c1.68,0,2.52,1.31,2.52,3.93,0,1.32-.22,2.31-.65,2.95-.43.64-1.06.96-1.87.97-1.68,0-2.51-1.31-2.51-3.92,0-1.32.22-2.31.65-2.96.43-.64,1.05-.97,1.86-.97h0ZM69.25,138.98c.51,0,.89-.24,1.15-.73.26-.49.39-1.3.39-2.41,0-.78-.06-1.39-.17-1.83-.11-.45-.28-.78-.52-1-.23-.22-.52-.33-.87-.33-.51,0-.89.25-1.15.75-.25.5-.38,1.3-.38,2.41,0,.77.06,1.37.18,1.82.11.45.29.78.52,1,.23.21.51.33.85.33h0Z"></path><path d="M75.66,131.91c1.68,0,2.52,1.31,2.52,3.93,0,1.32-.22,2.31-.65,2.95-.43.64-1.05.97-1.87.97-1.67,0-2.51-1.31-2.51-3.92,0-1.32.22-2.31.65-2.96.43-.64,1.05-.97,1.86-.97h0ZM75.66,138.98c.51,0,.9-.24,1.15-.73.26-.49.39-1.3.39-2.41,0-.78-.06-1.39-.17-1.83-.11-.45-.29-.78-.52-1-.23-.22-.52-.33-.87-.33-.51,0-.89.25-1.14.75-.26.5-.39,1.3-.39,2.41,0,.76.06,1.37.18,1.82.11.44.29.78.52,1,.23.22.51.33.85.33h0Z"></path><path class="cls-3" d="M75.66,131.91c1.68,0,2.52,1.31,2.52,3.93,0,1.32-.22,2.31-.65,2.95-.43.64-1.05.96-1.87.97-1.67,0-2.51-1.31-2.51-3.92,0-1.32.22-2.31.65-2.96.43-.64,1.05-.97,1.86-.97h0ZM75.66,138.98c.51,0,.9-.24,1.15-.73.26-.49.39-1.3.39-2.41,0-.78-.06-1.39-.17-1.83-.11-.45-.29-.78-.52-1-.23-.22-.52-.33-.87-.33-.51,0-.89.25-1.14.75-.26.5-.39,1.3-.39,2.41,0,.77.06,1.37.18,1.82.11.45.28.78.52,1,.23.21.51.33.85.33h0Z"></path><path d="M84.58,137.8h-1.04v1.84h-.95v-1.84h-3.34v-.87l3.51-4.98h.78v4.98h1.04v.87ZM82.59,136.93v-3.47h-.02l-2.39,3.47h2.41Z"></path><path class="cls-3" d="M84.58,137.8h-1.04v1.84h-.95v-1.84h-3.34v-.87l3.51-4.98h.78v4.98h1.04v.87ZM82.59,136.93v-3.47h-.02l-2.39,3.47h2.41Z"></path><path d="M89.59,135.47c.48.09.84.32,1.08.69.24.37.36.77.37,1.21,0,.7-.25,1.27-.76,1.72-.51.44-1.12.67-1.84.68-.68,0-1.24-.2-1.69-.59-.44-.39-.7-.91-.77-1.57l.95-.13c.09.5.27.88.52,1.14.25.25.58.38,1,.38.44,0,.81-.15,1.12-.46.31-.3.46-.69.46-1.14,0-.43-.14-.79-.41-1.07-.28-.28-.64-.42-1.1-.42-.18,0-.4.03-.67.1l.11-.83c.25,0,.45-.01.6-.03.15-.03.31-.09.5-.18.18-.09.33-.23.45-.4.12-.18.18-.4.18-.66,0-.38-.12-.68-.38-.88-.25-.21-.55-.32-.88-.32-.38,0-.69.12-.93.36-.24.24-.39.59-.46,1.03l-.95-.17c.12-.67.4-1.17.81-1.5.42-.33.92-.5,1.51-.5.64,0,1.18.19,1.61.57.43.39.64.86.64,1.42,0,.71-.35,1.23-1.05,1.55v.02Z"></path><path class="cls-3" d="M89.59,135.47c.48.09.84.32,1.08.69.24.37.36.77.37,1.21,0,.7-.25,1.27-.76,1.72-.51.45-1.12.67-1.84.68-.68,0-1.24-.2-1.69-.59-.44-.39-.7-.91-.77-1.57l.95-.13c.09.5.27.88.52,1.14.25.25.58.37,1,.37.44,0,.81-.15,1.12-.46.31-.3.46-.69.47-1.14,0-.43-.14-.79-.41-1.07-.28-.28-.65-.42-1.1-.42-.18,0-.4.03-.67.1l.11-.83c.25,0,.45-.01.6-.03.15-.03.31-.09.5-.18.18-.09.33-.23.45-.4.12-.18.18-.4.18-.66,0-.38-.12-.68-.38-.88-.25-.21-.55-.32-.88-.32-.38,0-.69.12-.93.36-.24.24-.39.59-.46,1.03l-.95-.17c.12-.67.4-1.17.81-1.5.42-.33.92-.5,1.51-.5.64,0,1.18.19,1.61.57.43.39.64.86.64,1.42,0,.71-.35,1.23-1.05,1.55v.02Z"></path><path d="M94.91,131.91c1.68,0,2.52,1.31,2.52,3.93,0,1.32-.22,2.31-.65,2.95-.43.64-1.05.97-1.87.97-1.67,0-2.51-1.31-2.51-3.92,0-1.32.22-2.31.65-2.96.43-.64,1.05-.97,1.86-.97h0ZM94.91,138.98c.51,0,.89-.24,1.15-.73.26-.49.39-1.3.39-2.41,0-.78-.06-1.39-.17-1.83-.11-.45-.29-.78-.51-1-.24-.22-.52-.33-.87-.33-.51,0-.89.25-1.14.75-.26.5-.39,1.3-.39,2.41,0,.76.06,1.37.18,1.82.11.44.29.78.52,1,.23.22.51.33.85.33h0Z"></path><path class="cls-3" d="M94.91,131.91c1.68,0,2.52,1.31,2.52,3.93,0,1.32-.22,2.31-.65,2.95-.43.64-1.05.96-1.87.97-1.67,0-2.51-1.31-2.51-3.92,0-1.32.22-2.31.65-2.96.43-.64,1.05-.97,1.86-.97h0ZM94.91,138.98c.51,0,.89-.24,1.15-.73.26-.49.39-1.3.39-2.41,0-.78-.06-1.39-.17-1.83-.11-.45-.28-.78-.52-1-.23-.22-.52-.33-.87-.33-.51,0-.89.25-1.14.75-.26.5-.39,1.3-.39,2.41,0,.77.06,1.37.18,1.82.11.45.29.78.52,1,.23.21.51.33.85.33h0Z"></path><path d="M102.9,136.01c-.19.3-.44.55-.76.73-.32.18-.68.28-1.06.28-.64,0-1.17-.23-1.62-.69-.44-.46-.66-1.07-.67-1.82,0-.76.23-1.39.68-1.87.45-.49,1.04-.73,1.75-.73s1.34.28,1.86.83c.52.55.78,1.52.78,2.88s-.24,2.43-.72,3.11c-.48.68-1.16,1.03-2.05,1.03-.58,0-1.06-.16-1.45-.47-.39-.31-.62-.79-.71-1.44l.9-.08c.14.81.57,1.21,1.28,1.21.58,0,1.03-.26,1.34-.79.31-.53.46-1.25.46-2.18h-.02ZM101.3,136.19c.46,0,.83-.16,1.1-.48.27-.33.41-.74.41-1.25,0-.5-.14-.93-.42-1.27-.28-.34-.63-.51-1.07-.52-.44,0-.81.18-1.11.54-.3.36-.45.8-.45,1.32,0,.49.15.88.44,1.19.3.31.66.46,1.1.46h0Z"></path><path class="cls-3" d="M102.9,136.01c-.19.3-.44.55-.76.73-.32.18-.68.28-1.06.28-.64,0-1.17-.23-1.62-.69-.44-.46-.66-1.07-.67-1.82,0-.76.23-1.39.68-1.87.45-.48,1.04-.73,1.75-.73s1.34.28,1.86.83c.52.55.78,1.52.78,2.88s-.24,2.43-.72,3.11c-.48.68-1.16,1.03-2.05,1.03-.58,0-1.06-.16-1.45-.47-.39-.31-.63-.79-.71-1.44l.9-.07c.14.81.57,1.21,1.28,1.21.58,0,1.03-.26,1.34-.79.31-.53.46-1.25.46-2.18h-.02ZM101.3,136.19c.46,0,.83-.16,1.1-.48.27-.33.41-.74.41-1.25,0-.5-.14-.93-.42-1.27-.28-.34-.63-.51-1.07-.52-.44,0-.81.18-1.11.54-.3.36-.45.8-.45,1.32,0,.49.15.88.44,1.19.3.31.66.46,1.1.46h0Z"></path><path d="M39.49,164.1h-2.55v6.77h-1.02v-6.77h-2.53v-.91h6.11v.91Z"></path><path class="cls-3" d="M39.49,164.1h-2.55v6.77h-1.02v-6.77h-2.53v-.91h6.11v.91Z"></path><path d="M45.43,170.87h-.95v-3.51c0-.45-.1-.79-.29-1.02-.2-.23-.49-.34-.88-.34s-.73.13-1.03.4c-.3.26-.46.75-.46,1.44v3.04h-.95v-7.68h.95v2.76c.45-.51,1.01-.76,1.68-.76.36,0,.71.07,1.04.22.33.15.56.38.7.68.13.3.2.73.2,1.27v3.52Z"></path><path class="cls-3" d="M45.43,170.87h-.95v-3.51c0-.45-.1-.79-.29-1.02-.2-.23-.49-.34-.88-.34s-.73.13-1.03.4c-.3.27-.46.75-.46,1.44v3.04h-.95v-7.68h.95v2.76c.45-.51,1.01-.76,1.68-.76.36,0,.71.07,1.04.22.33.15.56.38.7.68.13.3.2.73.2,1.27v3.52Z"></path><path d="M52.14,168.33h-4.18c.04.62.21,1.09.53,1.41.31.33.71.49,1.18.49.36,0,.66-.09.91-.28.25-.19.43-.48.56-.87l.97.12c-.16.58-.44,1.03-.87,1.34-.42.31-.95.47-1.58.47-.84,0-1.49-.25-1.96-.77-.47-.51-.71-1.21-.71-2.1,0-.88.23-1.59.68-2.14.46-.54,1.1-.82,1.94-.82.41,0,.8.09,1.18.27.38.18.7.48.96.91.27.43.4,1.08.4,1.97h0ZM51.16,167.55c-.04-.57-.21-.97-.53-1.22-.31-.25-.66-.38-1.03-.38-.44,0-.81.15-1.1.44-.29.3-.46.68-.5,1.16h3.16Z"></path><path class="cls-3" d="M52.14,168.33h-4.18c.04.62.21,1.09.53,1.41.31.33.71.49,1.18.49.36,0,.66-.09.91-.28.25-.19.43-.48.56-.87l.97.12c-.16.58-.44,1.03-.87,1.34-.42.31-.95.47-1.58.47-.84,0-1.49-.25-1.97-.77-.47-.51-.71-1.21-.71-2.1,0-.88.23-1.59.68-2.14.46-.54,1.1-.82,1.94-.82.41,0,.8.09,1.18.27.37.18.7.48.96.91.27.43.4,1.08.4,1.97h0ZM51.16,167.56c-.04-.57-.22-.97-.53-1.22-.31-.25-.66-.37-1.03-.38-.44,0-.81.15-1.1.45-.29.3-.46.68-.5,1.16h3.16Z"></path><path d="M64.68,170.87h-.95v-3.51c0-.26-.02-.48-.05-.66-.04-.18-.12-.34-.27-.49-.14-.15-.37-.21-.68-.21-.37,0-.69.13-.96.39-.27.26-.41.68-.41,1.26v3.23h-.94v-3.62c0-.48-.09-.81-.25-.99-.17-.18-.41-.27-.73-.27-.41,0-.74.14-1,.42-.26.28-.39.8-.4,1.57v2.89h-.95v-5.56h.85v.78h.02c.38-.6.93-.9,1.67-.9.41,0,.75.08,1.01.24.26.16.46.41.58.73.41-.65.99-.98,1.72-.98.58,0,1.01.16,1.3.47.29.31.43.78.44,1.4v3.82Z"></path><path class="cls-3" d="M64.68,170.87h-.95v-3.51c0-.26-.02-.48-.05-.66-.04-.18-.12-.34-.27-.49-.14-.14-.37-.22-.68-.22-.37,0-.69.13-.96.39-.27.26-.41.68-.41,1.26v3.23h-.94v-3.62c0-.48-.09-.81-.25-.99-.17-.18-.41-.27-.73-.27-.41,0-.74.14-1,.42-.26.28-.39.8-.4,1.57v2.89h-.95v-5.56h.86v.78h.02c.38-.6.93-.9,1.67-.9.41,0,.75.08,1.01.24.26.16.46.41.58.73.41-.65.99-.98,1.72-.98.58,0,1.01.16,1.3.47.29.31.43.78.44,1.4v3.82Z"></path><path d="M71.35,170.87h-.99c-.09-.17-.16-.4-.2-.68-.64.54-1.32.82-2.06.82-.59,0-1.05-.15-1.39-.44-.34-.29-.51-.68-.51-1.16,0-.46.16-.84.49-1.14.32-.3.9-.5,1.71-.6l.88-.13c.33-.05.6-.12.82-.19,0-.29,0-.48-.03-.6-.02-.12-.07-.24-.15-.37-.09-.13-.22-.23-.41-.3-.2-.07-.45-.11-.77-.12-.41,0-.73.08-.96.23-.24.15-.4.43-.49.84l-.93-.12c.1-.57.36-1,.79-1.29.42-.29,1-.43,1.74-.43.67,0,1.16.1,1.47.29.31.19.5.44.58.72.07.29.11.65.11,1.08v1.27c0,.77.01,1.29.04,1.56.03.26.12.52.26.77h0ZM70.1,168.43v-.34c-.5.16-1.1.29-1.82.39-.71.09-1.07.39-1.07.91,0,.25.1.46.29.63.2.16.47.25.83.25.47,0,.88-.14,1.23-.41.36-.27.54-.75.54-1.42h0Z"></path><path class="cls-3" d="M71.35,170.87h-.99c-.09-.17-.16-.4-.19-.68-.64.54-1.32.82-2.06.82-.59,0-1.05-.15-1.39-.44-.34-.29-.51-.68-.51-1.16,0-.46.16-.84.49-1.14.33-.3.9-.5,1.71-.6l.88-.13c.33-.05.6-.12.82-.19,0-.28,0-.48-.03-.6-.02-.12-.07-.24-.15-.37-.09-.13-.22-.23-.41-.3-.2-.07-.45-.11-.77-.12-.41,0-.73.08-.96.23-.24.15-.4.43-.49.84l-.93-.12c.1-.57.36-1,.78-1.29.42-.28,1-.43,1.74-.43.67,0,1.16.1,1.47.29.31.2.5.44.58.72.07.28.11.64.11,1.08v1.27c0,.77.01,1.29.04,1.55.03.26.12.52.26.77h0ZM70.1,168.43v-.34c-.5.16-1.1.29-1.82.39-.71.09-1.07.39-1.07.91,0,.25.1.46.29.63.19.16.47.25.83.25.47,0,.88-.14,1.23-.41.36-.27.54-.75.54-1.42h0Z"></path><path d="M75.94,165.48l-.33.87c-.23-.13-.46-.2-.69-.2-.36,0-.62.16-.8.47-.18.31-.27.76-.27,1.33v2.92h-.95v-5.56h.86v.84h.02c.3-.64.7-.96,1.18-.96.32,0,.64.1.97.3h0Z"></path><path class="cls-3" d="M75.94,165.48l-.33.87c-.23-.13-.46-.2-.69-.2-.36,0-.62.16-.8.47-.18.31-.27.76-.27,1.33v2.92h-.95v-5.56h.86v.84h.02c.3-.64.7-.96,1.18-.96.32,0,.64.1.97.3h0Z"></path><path d="M81.57,170.87h-1.16l-1.85-2.84-.67.63v2.21h-.95v-7.68h.95v4.37l2.24-2.25h1.23l-2.14,2.06,2.35,3.5Z"></path><path class="cls-3" d="M81.57,170.87h-1.16l-1.85-2.84-.67.63v2.21h-.95v-7.68h.95v4.37l2.24-2.25h1.23l-2.14,2.06,2.35,3.5Z"></path><path d="M88.44,165.18c.75,0,1.38.25,1.87.73.5.49.75,1.18.75,2.09,0,1.09-.27,1.87-.81,2.32-.54.45-1.14.68-1.81.68-.71,0-1.32-.23-1.84-.7-.52-.46-.78-1.2-.78-2.21s.25-1.71.75-2.19c.5-.48,1.12-.72,1.86-.72h0ZM88.44,170.23c.54,0,.95-.2,1.23-.6.28-.4.42-.92.42-1.57,0-.7-.16-1.22-.48-1.58-.31-.35-.71-.53-1.18-.53s-.88.18-1.19.54c-.31.36-.46.89-.46,1.61s.16,1.24.47,1.59c.31.35.7.54,1.18.54h0Z"></path><path class="cls-3" d="M88.44,165.18c.75,0,1.38.25,1.87.73.5.49.75,1.18.75,2.09,0,1.09-.27,1.87-.81,2.32-.54.45-1.14.68-1.81.68-.71,0-1.32-.23-1.84-.7-.52-.47-.78-1.2-.78-2.21s.25-1.71.75-2.19c.5-.48,1.12-.72,1.86-.72h0ZM88.44,170.23c.54,0,.95-.2,1.23-.6.28-.4.42-.92.42-1.57,0-.69-.16-1.22-.48-1.57-.31-.35-.71-.53-1.18-.53s-.88.18-1.19.53c-.31.36-.46.89-.46,1.61s.16,1.24.47,1.59c.31.35.7.53,1.18.54h0Z"></path><path d="M95.21,163.15l-.14.83c-.19-.04-.38-.05-.56-.05-.23,0-.41.05-.56.14-.15.09-.22.34-.22.72v.52h1.08v.73h-1.08v4.83h-.95v-4.83h-.84v-.73h.84v-.6c0-.28.03-.53.08-.76.05-.23.19-.43.41-.61.23-.18.57-.27,1.05-.28.28,0,.57.03.89.09h0Z"></path><path class="cls-3" d="M95.21,163.15l-.15.83c-.19-.03-.37-.05-.56-.05-.23,0-.41.05-.55.14-.15.09-.22.34-.22.72v.52h1.08v.73h-1.08v4.83h-.95v-4.83h-.84v-.73h.84v-.6c0-.28.03-.53.08-.76.05-.23.19-.43.41-.61.23-.18.57-.27,1.05-.28.28,0,.57.03.89.09h0Z"></path><path d="M16.71,177.6l-.33.87c-.23-.14-.46-.21-.69-.21-.35,0-.62.16-.8.47-.18.32-.27.76-.27,1.33v2.92h-.95v-5.56h.86v.84h.02c.3-.64.7-.97,1.18-.97.32,0,.65.1.97.3h0Z"></path><path class="cls-3" d="M16.71,177.6l-.33.87c-.23-.14-.47-.21-.69-.21-.36,0-.62.16-.8.47-.18.32-.27.76-.27,1.33v2.92h-.95v-5.56h.86v.84h.02c.3-.64.7-.96,1.18-.96.32,0,.65.1.97.3h0Z"></path><path d="M22.56,180.44h-4.18c.04.61.21,1.08.53,1.41.31.32.7.48,1.18.48.36,0,.66-.09.91-.28.25-.19.43-.48.56-.86l.97.12c-.16.58-.45,1.03-.87,1.34-.42.31-.95.46-1.58.46-.84,0-1.5-.25-1.96-.76-.47-.51-.71-1.21-.71-2.1,0-.88.23-1.59.68-2.13.46-.55,1.1-.82,1.94-.82.41,0,.8.09,1.18.27.38.18.7.48.96.91.27.42.4,1.08.4,1.97h0ZM21.59,179.67c-.04-.57-.22-.97-.53-1.22-.31-.25-.66-.37-1.03-.38-.44,0-.81.15-1.1.45-.29.3-.46.68-.5,1.15h3.16Z"></path><path class="cls-3" d="M22.56,180.45h-4.18c.04.61.22,1.08.53,1.41.31.32.7.48,1.18.48.36,0,.66-.09.91-.28.25-.19.43-.48.56-.86l.97.12c-.16.58-.45,1.03-.87,1.34-.42.31-.95.46-1.58.46-.84,0-1.5-.25-1.97-.77-.47-.51-.71-1.21-.71-2.1,0-.88.23-1.59.68-2.13.46-.55,1.1-.82,1.94-.82.41,0,.8.09,1.18.27.37.18.7.48.96.91.27.43.4,1.08.4,1.97h0ZM21.59,179.67c-.04-.57-.22-.97-.53-1.22-.31-.25-.66-.37-1.03-.38-.44,0-.81.15-1.1.45-.29.3-.46.68-.5,1.15h3.16Z"></path><path d="M27.24,178.98c-.04-.3-.16-.53-.37-.68-.21-.15-.49-.23-.86-.23-.36,0-.65.06-.88.18-.22.12-.33.3-.34.53,0,.22.09.38.26.47.18.09.53.21,1.05.35.59.15,1.03.28,1.32.4.29.11.52.28.68.48.16.21.25.5.25.87,0,.5-.2.92-.61,1.25-.41.34-.95.51-1.63.51s-1.26-.15-1.66-.44c-.39-.3-.64-.75-.73-1.35l.94-.14c.05.39.19.67.43.87.24.19.58.29,1.01.29.41,0,.73-.08.95-.25.22-.17.33-.38.33-.64,0-.17-.05-.3-.15-.4-.1-.1-.23-.18-.38-.23-.15-.05-.5-.14-1.04-.27-.79-.19-1.31-.41-1.57-.68-.25-.27-.38-.59-.38-.96,0-.46.18-.85.55-1.15.38-.3.87-.45,1.5-.45.67,0,1.19.13,1.55.39.37.26.59.65.67,1.17l-.93.12Z"></path><path class="cls-3" d="M27.24,178.98c-.04-.3-.16-.53-.37-.68-.21-.15-.49-.23-.86-.23-.36,0-.65.06-.87.18-.22.12-.33.3-.34.53,0,.22.09.38.26.47.18.09.53.21,1.05.35.59.15,1.03.28,1.32.4.29.11.52.28.68.48.16.21.25.5.25.87,0,.5-.2.91-.61,1.25-.41.34-.95.51-1.63.51s-1.26-.15-1.66-.45c-.39-.3-.64-.75-.74-1.35l.94-.14c.05.39.19.68.43.87.24.19.58.28,1.01.28.41,0,.73-.08.95-.25.22-.17.33-.38.33-.64,0-.17-.05-.3-.15-.4-.1-.1-.23-.18-.38-.23-.15-.05-.5-.14-1.04-.27-.79-.19-1.31-.41-1.57-.68-.25-.27-.38-.59-.38-.97,0-.46.18-.85.55-1.15.38-.3.87-.45,1.5-.45.67,0,1.19.13,1.56.39.37.26.59.65.67,1.17l-.93.13Z"></path><path d="M30.83,178.14c.35-.56.88-.84,1.59-.84s1.31.27,1.73.79c.43.53.64,1.22.64,2.07,0,.91-.23,1.63-.7,2.16-.47.53-1.05.8-1.73.8-.6,0-1.08-.24-1.44-.71h-.03v2.72h-.95v-7.7h.86v.71h.02ZM32.3,182.34c.44,0,.81-.18,1.09-.54.29-.36.43-.91.44-1.64,0-.68-.14-1.21-.42-1.57-.28-.36-.63-.55-1.07-.55s-.82.2-1.11.61c-.29.41-.43.94-.43,1.59,0,.69.14,1.21.41,1.57.28.36.64.53,1.09.53h0Z"></path><path class="cls-3" d="M30.83,178.14c.35-.56.88-.84,1.59-.84s1.31.27,1.73.79c.43.53.64,1.22.64,2.07,0,.91-.23,1.62-.7,2.16-.47.53-1.05.8-1.73.8-.6,0-1.08-.24-1.44-.71h-.03v2.72h-.95v-7.7h.86v.72h.02ZM32.3,182.34c.44,0,.81-.18,1.09-.54.29-.36.43-.91.44-1.64,0-.68-.14-1.21-.42-1.57-.28-.36-.63-.55-1.07-.55s-.82.2-1.11.61c-.29.41-.43.94-.43,1.59,0,.69.14,1.21.41,1.57.28.35.64.53,1.09.53h0Z"></path><path d="M38.62,177.3c.75,0,1.38.25,1.88.73.49.49.74,1.19.75,2.09,0,1.09-.27,1.87-.8,2.32-.54.45-1.14.68-1.82.68-.71,0-1.32-.23-1.84-.69-.52-.46-.78-1.2-.78-2.22s.25-1.71.75-2.18c.5-.48,1.12-.72,1.86-.73h0ZM38.62,182.34c.54,0,.95-.2,1.23-.6.28-.4.42-.92.42-1.57,0-.7-.16-1.22-.47-1.57-.32-.35-.71-.53-1.18-.53s-.87.18-1.18.53c-.31.36-.46.89-.46,1.6s.16,1.24.47,1.59c.31.36.71.54,1.18.54h0Z"></path><path class="cls-3" d="M38.62,177.3c.75,0,1.38.25,1.88.73.49.49.74,1.19.75,2.09,0,1.09-.27,1.87-.8,2.32-.54.45-1.15.68-1.82.68-.71,0-1.32-.23-1.84-.7-.52-.46-.78-1.2-.78-2.21s.25-1.71.75-2.18c.5-.48,1.12-.72,1.86-.73h0ZM38.62,182.34c.54,0,.95-.2,1.23-.6.28-.4.42-.92.42-1.57,0-.7-.16-1.22-.47-1.58-.32-.35-.71-.53-1.18-.53s-.87.18-1.18.53c-.31.36-.46.89-.46,1.6s.16,1.24.47,1.59c.31.36.71.54,1.18.54h0Z"></path><path d="M47.32,182.99h-.95v-3.38c0-.57-.1-.96-.31-1.18-.2-.21-.49-.32-.85-.32-.28,0-.55.07-.8.21-.25.14-.43.33-.54.58-.11.25-.16.6-.16,1.05v3.04h-.95v-5.56h.85v.78h.02c.2-.3.45-.53.73-.68.29-.15.63-.23,1.02-.23.29,0,.59.06.87.16.29.1.51.26.68.47.16.21.26.43.31.67.05.24.07.56.06.96v3.43Z"></path><path class="cls-3" d="M47.32,182.99h-.95v-3.38c0-.57-.1-.96-.31-1.18-.2-.21-.49-.32-.86-.32-.28,0-.55.07-.8.21-.25.14-.43.33-.54.57-.11.25-.16.6-.16,1.05v3.04h-.95v-5.56h.85v.79h.02c.2-.3.45-.53.74-.68.29-.15.63-.23,1.02-.23.29,0,.59.05.87.16.29.1.51.26.68.47.16.21.26.43.31.67.05.24.07.56.06.97v3.43Z"></path><path d="M52.29,178.98c-.04-.3-.16-.53-.37-.68-.2-.15-.49-.23-.86-.23-.36,0-.65.06-.87.18-.22.12-.34.3-.34.53,0,.22.09.38.27.47.18.09.52.21,1.05.35.59.15,1.03.28,1.32.4.29.11.52.28.68.48.17.21.25.5.25.87,0,.5-.2.92-.61,1.25-.41.34-.95.51-1.63.51s-1.26-.15-1.66-.44c-.39-.3-.64-.75-.73-1.35l.94-.14c.05.39.19.67.43.87.24.19.58.29,1.01.29s.73-.08.95-.25.33-.38.33-.64c0-.17-.05-.3-.15-.4-.1-.1-.23-.18-.38-.23-.15-.05-.5-.14-1.03-.27-.79-.19-1.32-.41-1.57-.68-.25-.27-.38-.59-.38-.96,0-.46.18-.85.56-1.15.37-.3.87-.45,1.5-.45.66,0,1.18.13,1.55.39.37.26.59.65.67,1.17l-.93.12Z"></path><path class="cls-3" d="M52.29,178.98c-.04-.3-.16-.53-.37-.68-.2-.15-.49-.23-.86-.23-.36,0-.65.06-.87.18-.22.12-.34.3-.34.53,0,.22.09.38.27.47.18.09.52.21,1.05.35.59.15,1.03.28,1.32.4.29.11.52.28.68.48.17.21.25.5.25.87,0,.5-.2.91-.61,1.25-.41.34-.95.51-1.63.51s-1.26-.15-1.66-.45c-.39-.3-.64-.75-.73-1.35l.94-.14c.05.39.19.68.43.87.24.19.58.28,1.01.28s.73-.08.95-.25c.22-.17.33-.38.33-.64,0-.17-.05-.3-.15-.4-.1-.1-.23-.18-.38-.23-.15-.05-.5-.14-1.03-.27-.79-.19-1.32-.41-1.57-.68-.25-.27-.38-.59-.38-.97,0-.46.18-.85.56-1.15.37-.3.87-.45,1.5-.45.66,0,1.18.13,1.55.39.37.26.59.65.67,1.17l-.93.13Z"></path><path d="M55.93,182.99h-.95v-5.56h.95v5.56ZM55.93,176.37h-.95v-1.07h.95v1.07Z"></path><path class="cls-3" d="M55.93,182.99h-.95v-5.56h.95v5.56ZM55.93,176.37h-.95v-1.07h.95v1.07Z"></path><path d="M58.78,178.05c.35-.5.85-.75,1.5-.75.72,0,1.3.26,1.73.78.43.52.65,1.2.65,2.04,0,.97-.24,1.71-.72,2.22-.48.52-1.04.77-1.7.78-.66,0-1.16-.28-1.53-.83h-.02v.7h-.88v-7.69h.95v2.75h.03ZM60.17,182.34c.44,0,.8-.18,1.08-.56s.43-.9.43-1.58c0-.66-.13-1.17-.4-1.55-.26-.38-.62-.57-1.09-.57-.46,0-.82.2-1.1.59-.28.39-.42.89-.42,1.5,0,.59.06,1.01.18,1.26.11.25.29.46.52.65.23.18.5.27.8.27h0Z"></path><path class="cls-3" d="M58.78,178.05c.35-.5.85-.75,1.5-.75.72,0,1.3.26,1.73.78.43.52.65,1.2.65,2.04,0,.97-.24,1.71-.72,2.22-.48.52-1.04.77-1.7.78-.66,0-1.16-.28-1.53-.83h-.02v.7h-.88v-7.69h.94v2.75h.03ZM60.17,182.34c.44,0,.8-.18,1.08-.56.28-.37.43-.9.43-1.58,0-.66-.13-1.17-.4-1.55-.26-.38-.62-.57-1.09-.57-.46,0-.82.2-1.1.59-.28.39-.42.89-.42,1.5,0,.59.06,1.01.18,1.26.11.25.29.47.52.65.23.18.5.27.8.27h0Z"></path><rect x="64.22" y="175.3" width=".94" height="7.69"></rect><rect class="cls-3" x="64.22" y="175.3" width=".95" height="7.69"></rect><path d="M71.89,180.44h-4.18c.04.61.21,1.08.53,1.41.31.32.7.48,1.18.48.36,0,.66-.09.91-.28.25-.19.43-.48.57-.86l.97.12c-.16.58-.45,1.03-.87,1.34-.42.31-.95.46-1.58.46-.84,0-1.49-.25-1.96-.76-.47-.51-.71-1.21-.71-2.1,0-.88.23-1.59.68-2.13.46-.55,1.1-.82,1.94-.82.41,0,.8.09,1.17.27.38.18.7.48.96.91.27.42.4,1.08.4,1.97h0ZM70.91,179.67c-.04-.57-.22-.97-.53-1.22-.31-.25-.66-.37-1.03-.38-.44,0-.81.15-1.1.45-.28.3-.45.68-.5,1.15h3.16Z"></path><path class="cls-3" d="M71.89,180.45h-4.18c.04.61.21,1.08.53,1.41.31.32.7.48,1.18.48.36,0,.66-.09.91-.28.25-.19.43-.48.57-.86l.97.12c-.16.58-.45,1.03-.87,1.34-.42.31-.94.46-1.58.46-.84,0-1.49-.25-1.96-.77-.47-.51-.71-1.21-.71-2.1,0-.88.23-1.59.68-2.13.46-.55,1.1-.82,1.94-.82.41,0,.8.09,1.17.27.38.18.7.48.96.91.27.43.4,1.08.4,1.97h0ZM70.91,179.67c-.04-.57-.22-.97-.53-1.22-.31-.25-.66-.37-1.03-.38-.44,0-.81.15-1.1.45-.28.3-.45.68-.5,1.15h3.16Z"></path><path d="M79.5,175.27l-.14.83c-.19-.03-.38-.06-.56-.06-.23,0-.41.05-.56.14-.14.1-.22.34-.22.72v.53h1.08v.73h-1.08v4.84h-.95v-4.84h-.84v-.73h.84v-.61c0-.28.03-.53.08-.76.06-.23.19-.43.42-.61.22-.18.57-.28,1.05-.28.28,0,.57.03.88.1h0Z"></path><path class="cls-3" d="M79.5,175.27l-.14.83c-.19-.03-.38-.05-.56-.05-.23,0-.41.05-.56.14-.14.1-.22.34-.22.72v.53h1.08v.73h-1.08v4.84h-.95v-4.84h-.84v-.73h.84v-.61c0-.28.03-.53.08-.76.06-.23.19-.43.42-.61.22-.18.57-.28,1.05-.28.28,0,.57.03.88.1h0Z"></path><path d="M82.55,177.3c.75,0,1.38.25,1.87.73.5.49.75,1.19.75,2.09,0,1.09-.27,1.87-.81,2.32-.54.45-1.14.68-1.82.68-.71,0-1.32-.23-1.84-.69-.52-.46-.78-1.2-.78-2.22s.25-1.71.75-2.18c.5-.48,1.12-.72,1.86-.73h0ZM82.55,182.34c.54,0,.95-.2,1.23-.6.28-.4.42-.92.42-1.57,0-.7-.16-1.22-.48-1.57-.31-.35-.71-.53-1.18-.53s-.87.18-1.18.53c-.31.36-.47.89-.47,1.6s.16,1.24.47,1.59c.31.36.7.54,1.18.54h0Z"></path><path class="cls-3" d="M82.55,177.3c.75,0,1.38.25,1.87.73.5.49.75,1.19.75,2.09,0,1.09-.27,1.87-.81,2.32-.54.45-1.14.68-1.82.68-.71,0-1.32-.23-1.84-.7-.52-.46-.78-1.2-.78-2.21s.25-1.71.75-2.18c.5-.48,1.12-.72,1.86-.73h0ZM82.55,182.34c.54,0,.95-.2,1.23-.6.28-.4.42-.92.42-1.57,0-.7-.16-1.22-.48-1.58-.31-.35-.71-.53-1.18-.53s-.87.18-1.18.53c-.31.36-.47.89-.47,1.6s.16,1.24.47,1.59c.31.36.7.54,1.18.54h0Z"></path><path d="M89.71,177.6l-.33.87c-.23-.14-.46-.21-.69-.21-.36,0-.62.16-.81.47-.18.32-.27.76-.27,1.33v2.92h-.94v-5.56h.86v.84h.02c.3-.64.7-.97,1.18-.97.32,0,.65.1.98.3h0Z"></path><path class="cls-3" d="M89.71,177.6l-.33.87c-.23-.14-.46-.21-.69-.21-.35,0-.63.16-.81.47-.18.32-.27.76-.27,1.33v2.92h-.95v-5.56h.86v.84h.02c.3-.64.7-.96,1.18-.96.32,0,.65.1.98.3h0Z"></path><path d="M95.56,180.44h-4.18c.04.61.21,1.08.52,1.41.31.32.71.48,1.18.48.36,0,.66-.09.91-.28.25-.19.43-.48.56-.86l.98.12c-.16.58-.45,1.03-.87,1.34-.42.31-.94.46-1.58.46-.84,0-1.49-.25-1.96-.76-.47-.51-.71-1.21-.71-2.1,0-.88.23-1.59.68-2.13.46-.55,1.1-.82,1.94-.82.41,0,.8.09,1.17.27.38.18.7.48.96.91.27.42.4,1.08.4,1.97h0ZM94.59,179.67c-.04-.57-.21-.97-.53-1.22-.31-.25-.66-.37-1.03-.38-.45,0-.81.15-1.1.45-.29.3-.45.68-.5,1.15h3.16Z"></path><path class="cls-3" d="M95.56,180.45h-4.18c.04.61.21,1.08.52,1.41.31.32.71.48,1.18.48.36,0,.66-.09.91-.28.25-.19.43-.48.56-.86l.98.12c-.16.58-.45,1.03-.87,1.34-.42.31-.94.46-1.58.46-.84,0-1.49-.25-1.96-.77-.47-.51-.71-1.21-.71-2.1,0-.88.23-1.59.68-2.13.46-.55,1.1-.82,1.94-.82.41,0,.8.09,1.17.27.37.18.7.48.96.91.27.43.4,1.08.4,1.97h0ZM94.59,179.67c-.04-.57-.21-.97-.53-1.22-.31-.25-.66-.37-1.03-.38-.45,0-.81.15-1.1.45-.29.3-.45.68-.5,1.15h3.16Z"></path><path d="M100.23,178.98c-.04-.3-.16-.53-.37-.68-.2-.15-.49-.23-.85-.23-.36,0-.66.06-.88.18-.22.12-.33.3-.34.53,0,.22.09.38.26.47.18.09.53.21,1.05.35.59.15,1.03.28,1.33.4.29.11.52.28.68.48.16.21.25.5.25.87,0,.5-.2.92-.61,1.25-.41.34-.95.51-1.63.51s-1.26-.15-1.66-.44c-.4-.3-.65-.75-.74-1.35l.94-.14c.05.39.19.67.43.87.24.19.57.29,1.01.29s.74-.08.95-.25c.22-.17.33-.38.33-.64,0-.17-.05-.3-.15-.4-.1-.1-.23-.18-.38-.23-.15-.05-.49-.14-1.03-.27-.79-.19-1.32-.41-1.57-.68-.25-.27-.38-.59-.39-.96,0-.46.19-.85.56-1.15.37-.3.87-.45,1.5-.45.67,0,1.18.13,1.55.39.37.26.59.65.67,1.17l-.93.12Z"></path><path class="cls-3" d="M100.23,178.98c-.04-.3-.16-.53-.37-.68-.2-.15-.49-.23-.85-.23-.36,0-.66.06-.87.18-.22.12-.33.3-.34.53,0,.22.09.38.26.47.18.09.53.21,1.05.35.59.15,1.03.28,1.33.4.29.11.52.28.68.48.16.21.25.5.25.87,0,.5-.2.91-.61,1.25-.41.34-.95.51-1.63.51s-1.26-.15-1.66-.45c-.4-.3-.65-.75-.74-1.35l.94-.14c.05.39.19.68.43.87.24.19.57.28,1.01.28s.74-.08.95-.25c.22-.17.33-.38.33-.64,0-.17-.05-.3-.15-.4-.1-.1-.23-.18-.38-.23-.15-.05-.49-.14-1.03-.27-.79-.19-1.32-.41-1.57-.68-.25-.27-.38-.59-.39-.97,0-.46.19-.85.56-1.15.37-.3.87-.45,1.5-.45.67,0,1.18.13,1.55.39.37.26.59.65.67,1.17l-.93.13Z"></path><path d="M105.11,182.98c-.28.05-.51.08-.71.08-.41,0-.71-.07-.91-.21-.19-.14-.3-.33-.35-.55-.04-.23-.06-.54-.06-.93v-3.2h-.69v-.73h.69v-1.39l.95-.57v1.96h.95v.73h-.95v3.26c0,.28.03.48.08.59.06.12.2.18.45.18.14,0,.28-.02.42-.04l.13.84Z"></path><path class="cls-3" d="M105.11,182.98c-.28.05-.51.08-.71.08-.41,0-.71-.07-.91-.21-.19-.14-.3-.33-.35-.55-.04-.23-.06-.54-.06-.93v-3.2h-.69v-.73h.69v-1.39l.95-.57v1.96h.95v.73h-.95v3.26c0,.28.03.48.08.59.06.12.2.18.45.18.14,0,.28-.02.42-.04l.13.84Z"></path><path d="M109.35,177.6l-.32.87c-.23-.14-.46-.21-.69-.21-.35,0-.62.16-.8.47-.18.32-.27.76-.27,1.33v2.92h-.95v-5.56h.86v.84h.02c.3-.64.7-.97,1.18-.97.32,0,.65.1.97.3h0Z"></path><path class="cls-3" d="M109.35,177.6l-.32.87c-.23-.14-.46-.21-.69-.21-.35,0-.62.16-.81.47-.18.32-.27.76-.27,1.33v2.92h-.95v-5.56h.86v.84h.02c.3-.64.7-.96,1.18-.96.32,0,.65.1.97.3h0Z"></path><path d="M114.94,177.43l-2.14,5.66s0,.02-.01.03c-.2.63-.44,1.14-.71,1.53-.27.39-.66.59-1.16.59-.17,0-.37-.04-.61-.11l-.1-.89c.18.05.36.08.54.08.35,0,.59-.09.73-.29.13-.19.29-.54.46-1.04l-2.12-5.57h1.02l1.32,3.64c.08.23.16.51.25.87h.02c.09-.41.2-.79.34-1.16l1.23-3.35h.96Z"></path><g class="cls-5"><path class="cls-3" d="M114.94,177.43l-2.14,5.66s0,.02-.01.03c-.2.63-.44,1.14-.71,1.53s-.66.59-1.16.59c-.17,0-.37-.03-.61-.11l-.1-.89c.18.05.36.08.54.08.35,0,.59-.09.73-.29.13-.19.29-.54.46-1.04l-2.12-5.57h1.02l1.32,3.64c.08.23.16.51.25.87h.02c.09-.41.2-.79.34-1.16l1.23-3.35h.96Z"></path></g></g></g></svg>