<?xml version="1.0" encoding="UTF-8"?>
<svg id="Layer_2" data-name="Layer 2" xmlns="http://www.w3.org/2000/svg" viewBox="0 0 2075.24 436.52">
  <defs>
    <style>
      .cls-1 {
        fill: #fbaa19;
      }
    </style>
  </defs>
  <g id="Layer_1-2" data-name="Layer 1">
    <g>
      <g>
        <path class="cls-1" d="M346.75,132.33l-37.98-21.93c-7.83-4.52-17.48-4.52-25.31,0l-137.77,79.55c-10.2,5.89-10.2,20.6,0,26.49l27.69,15.99,84.77-48.94c16.88-9.74,37.97,2.44,37.97,21.92v83.27c0,9.04-4.82,17.4-12.66,21.92l-97.42,56.25c-7.83,4.52-17.48,4.52-25.31,0l-10.75-6.21c-16.88-9.74-37.97,2.44-37.97,21.92v.02c0,9.04,4.83,17.4,12.66,21.92l44.73,25.82,3.99,2.3h0l.9-.52,159.82-92.27c7.83-4.52,12.66-12.88,12.66-21.92v-185.58h0s0,0,0,0Z"/>
        <path class="cls-1" d="M186.02,98.01l10.75,6.21c16.88,9.74,37.97-2.44,37.97-21.92v-.02c0-9.04-4.83-17.4-12.66-21.92l-44.22-25.53-4.49-2.59h0l-.86.5L12.66,125.03c-7.83,4.52-12.66,12.88-12.66,21.92v185.58h0,0s37.98,21.93,37.98,21.93c7.83,4.52,17.48,4.52,25.31,0l97.43-56.25c7.83-4.52,12.66-12.88,12.66-21.92v-43.85s-84.77,48.94-84.77,48.94c-16.88,9.74-37.97-2.44-37.97-21.92v-83.27c0-9.04,4.82-17.4,12.66-21.92l97.42-56.25c7.83-4.52,17.48-4.52,25.31,0Z"/>
      </g>
      <g>
        <path class="cls-1" d="M510.42,347.53c-25.92,0-48.01-5.54-66.27-16.63-18.27-11.08-29.74-26.93-34.43-47.54l53.39-14.05c2.81,8.74,8.2,15.46,16.16,20.14,7.96,4.68,17.4,7.03,28.34,7.03,10.31,0,18.65-2.03,25.06-6.09,6.4-4.05,9.6-9.52,9.6-16.39,0-6.24-2.74-10.69-8.2-13.35-5.47-2.65-14.29-4.92-26.46-6.79-11.24-1.56-19.67-2.88-25.29-3.98-5.62-1.09-13.98-3.43-25.06-7.03-11.09-3.59-19.52-7.65-25.29-12.18-5.78-4.52-11.09-11.01-15.93-19.44-4.84-8.43-7.26-18.27-7.26-29.51,0-23.1,8.97-41.05,26.93-53.86,17.95-12.8,40.67-19.2,68.15-19.2,24.35,0,45.12,5.31,62.29,15.93,17.17,10.62,28.26,26.54,33.26,47.77l-54.33,14.52c-2.19-9.05-7.26-15.84-15.22-20.37-7.96-4.52-16.94-6.79-26.93-6.79-18.74,0-28.1,6.87-28.1,20.61,0,6.25,2.34,10.77,7.02,13.58,4.68,2.81,11.86,5,21.55,6.56.94.31,5.23.94,12.88,1.87,7.65.93,13.19,1.72,16.63,2.34,3.43.63,9.05,1.87,16.86,3.75,7.8,1.87,13.82,3.83,18.03,5.86,4.22,2.03,9.29,4.84,15.22,8.43,5.93,3.59,10.46,7.58,13.58,11.94,3.12,4.38,5.86,9.76,8.2,16.16,2.34,6.4,3.51,13.35,3.51,20.84,0,23.73-9.53,42.31-28.57,55.74-19.05,13.43-42.15,20.14-69.32,20.14Z"/>
        <path class="cls-1" d="M775.51,113.34h64.17v229.5h-64.17v-21.55c-15.62,17.49-37,26.23-64.17,26.23-24.98,0-46.06-7.96-63.23-23.89-17.18-15.92-25.76-38.41-25.76-67.44V113.34h64.17v131.61c0,14.37,4.06,25.37,12.18,33.02,8.11,7.66,18.89,11.47,32.32,11.47s24.59-4.45,32.55-13.35c7.96-8.9,11.95-21.46,11.95-37.7v-125.06Z"/>
        <path class="cls-1" d="M1003.13,108.66c31.85,0,58.62,11.17,80.33,33.49,21.7,22.33,32.55,50.98,32.55,85.95s-10.77,63.23-32.32,85.71c-21.55,22.48-48.24,33.72-80.09,33.72s-54.49-9.84-71.66-29.51v118.5h-64.17V113.34h64.17v24.36c17.48-19.36,41.22-29.04,71.19-29.04ZM948.57,274.23c11.08,11.71,25.06,17.56,41.92,17.56s30.91-5.86,42.16-17.56c11.24-11.71,16.86-27.08,16.86-46.13s-5.62-34.81-16.86-46.37c-11.24-11.55-25.29-17.33-42.16-17.33s-30.84,5.86-41.92,17.56c-11.09,11.71-16.63,27.09-16.63,46.14s5.54,34.43,16.63,46.13Z"/>
        <path class="cls-1" d="M1268.23,108.66c31.85,0,58.62,11.17,80.33,33.49,21.7,22.33,32.55,50.98,32.55,85.95s-10.77,63.23-32.32,85.71c-21.55,22.48-48.24,33.72-80.09,33.72s-54.49-9.84-71.66-29.51v118.5h-64.17V113.34h64.17v24.36c17.48-19.36,41.22-29.04,71.19-29.04ZM1213.67,274.23c11.08,11.71,25.06,17.56,41.92,17.56s30.91-5.86,42.16-17.56c11.24-11.71,16.86-27.08,16.86-46.13s-5.62-34.81-16.86-46.37c-11.24-11.55-25.29-17.33-42.16-17.33s-30.84,5.86-41.92,17.56c-11.09,11.71-16.63,27.09-16.63,46.14s5.54,34.43,16.63,46.13Z"/>
        <path class="cls-1" d="M1397.97,342.85V14.99h64.17v327.86h-64.17Z"/>
        <path class="cls-1" d="M1556.75,69.55c-8.12,7.96-17.96,11.95-29.51,11.95s-21.31-3.98-29.28-11.95c-7.96-7.96-11.94-17.56-11.94-28.8s3.98-20.84,11.94-28.8c7.96-7.96,17.72-11.94,29.28-11.94s21.38,3.98,29.51,11.94c8.11,7.96,12.18,17.56,12.18,28.8s-4.06,20.84-12.18,28.8ZM1495.4,342.85V113.34h64.17v229.5h-64.17Z"/>
        <path class="cls-1" d="M1700.54,347.53c-34.66,0-63.39-11.01-86.18-33.02-22.8-22.01-34.19-50.82-34.19-86.42s11.31-64.01,33.96-86.18c22.63-22.17,50.97-33.26,85.01-33.26s60.42,10.47,81.97,31.38c21.55,20.92,32.32,48.4,32.32,82.43,0,4.38-.47,11.24-1.41,20.61h-167.21c2.18,17.18,8.35,30.44,18.5,39.81,10.14,9.37,22.56,14.05,37.23,14.05,11.86,0,22.17-2.96,30.91-8.9,8.74-5.93,14.2-14.36,16.39-25.29l56.2,15.46c-5.94,22.8-18.35,40.05-37.23,51.76-18.9,11.71-40.98,17.56-66.28,17.56ZM1647.15,199.99h104.45c-1.87-11.24-7.49-20.68-16.86-28.34-9.37-7.65-21.08-11.48-35.13-11.48-26.86,0-44.34,13.28-52.46,39.81Z"/>
        <path class="cls-1" d="M2011.07,14.99h64.17v327.86h-64.17v-24.82c-17.18,19.67-41.22,29.51-72.13,29.51s-58.55-11.24-80.09-33.72c-21.55-22.48-32.32-51.05-32.32-85.71s10.85-63.62,32.55-85.95c21.7-22.32,48.63-33.49,80.8-33.49,29.98,0,53.7,9.68,71.19,29.04V14.99ZM1910.14,274.23c11.39,11.71,25.53,17.56,42.39,17.56s30.83-5.86,41.92-17.56c11.08-11.71,16.63-27.08,16.63-46.13s-5.55-34.43-16.63-46.14c-11.09-11.71-25.06-17.56-41.92-17.56s-31,5.86-42.39,17.56c-11.4,11.71-17.1,27.09-17.1,46.14s5.69,34.43,17.1,46.13Z"/>
      </g>
    </g>
    <g>
      <path class="cls-1" d="M1299.86,396.11c0,2.91-.54,5.35-1.62,7.34-1.08,1.99-2.53,3.6-4.36,4.81-1.83,1.22-3.94,2.11-6.32,2.67-2.39.56-4.87.84-7.45.84h-5.97v18.76h-12.02v-49.76h18.27c2.72,0,5.26.27,7.62.81,2.37.54,4.43,1.41,6.18,2.6,1.76,1.2,3.14,2.77,4.15,4.71,1.01,1.94,1.51,4.35,1.51,7.2ZM1287.84,396.18c0-1.17-.23-2.13-.7-2.88-.47-.75-1.1-1.34-1.9-1.76-.8-.42-1.7-.7-2.71-.84-1.01-.14-2.05-.21-3.13-.21h-5.27v11.74h5.06c1.12,0,2.2-.09,3.23-.28,1.03-.19,1.96-.51,2.78-.98.82-.47,1.46-1.09,1.93-1.86.47-.77.7-1.75.7-2.92Z"/>
      <path class="cls-1" d="M1385.81,430.55l-3.87-9.77h-19.26l-3.65,9.77h-13.07l20.87-49.76h11.67l20.66,49.76h-13.35ZM1372.46,394.07l-6.33,17.08h12.51l-6.18-17.08Z"/>
      <path class="cls-1" d="M1486.87,429.67c-3.23,1.48-6.96,2.21-11.17,2.21-3.84,0-7.39-.63-10.65-1.9-3.26-1.26-6.08-3.06-8.47-5.38s-4.26-5.09-5.62-8.33c-1.36-3.23-2.04-6.79-2.04-10.68s.69-7.59,2.07-10.82c1.38-3.23,3.29-5.98,5.73-8.26,2.44-2.27,5.29-4.02,8.57-5.24,3.28-1.22,6.82-1.83,10.61-1.83,3.51,0,6.97.62,10.37,1.86,3.4,1.24,6.15,3.06,8.26,5.45l-8.15,8.15c-1.12-1.55-2.6-2.69-4.43-3.44-1.83-.75-3.7-1.12-5.62-1.12-2.11,0-4.04.39-5.8,1.16-1.76.77-3.27,1.84-4.53,3.2-1.26,1.36-2.25,2.96-2.95,4.81-.7,1.85-1.05,3.88-1.05,6.08s.35,4.31,1.05,6.18c.7,1.88,1.67,3.48,2.92,4.81,1.24,1.33,2.73,2.38,4.46,3.13,1.73.75,3.63,1.12,5.69,1.12,2.39,0,4.47-.47,6.25-1.41,1.78-.94,3.21-2.16,4.29-3.66l8.36,7.87c-2.2,2.53-4.92,4.53-8.15,6.01Z"/>
      <path class="cls-1" d="M1579.71,430.55l-18.48-22.91h-.14v22.91h-11.74v-49.76h11.74v20.24h.21l17.78-20.24h15.04l-21.43,22.91,22.7,26.85h-15.67Z"/>
      <path class="cls-1" d="M1681.4,430.55l-3.87-9.77h-19.26l-3.65,9.77h-13.07l20.87-49.76h11.67l20.66,49.76h-13.35ZM1668.05,394.07l-6.33,17.08h12.51l-6.18-17.08Z"/>
      <path class="cls-1" d="M1782.5,430.62c-3.26.8-6.81,1.19-10.65,1.19s-7.65-.63-11-1.9c-3.35-1.26-6.23-3.04-8.64-5.34-2.41-2.29-4.3-5.05-5.66-8.26-1.36-3.21-2.04-6.78-2.04-10.72s.69-7.59,2.07-10.82c1.38-3.23,3.29-5.98,5.73-8.26,2.44-2.27,5.29-4.02,8.57-5.24,3.28-1.22,6.82-1.83,10.61-1.83s7.59.6,10.96,1.79c3.37,1.19,6.11,2.8,8.22,4.81l-7.59,8.64c-1.17-1.36-2.72-2.47-4.64-3.34-1.92-.87-4.1-1.3-6.54-1.3-2.11,0-4.05.39-5.83,1.16-1.78.77-3.33,1.85-4.64,3.23-1.31,1.38-2.33,3.02-3.06,4.92-.73,1.9-1.09,3.97-1.09,6.22s.33,4.4.98,6.32c.66,1.92,1.63,3.57,2.92,4.96,1.29,1.38,2.88,2.46,4.78,3.23,1.9.77,4.06,1.16,6.5,1.16,1.41,0,2.74-.11,4.01-.32,1.26-.21,2.44-.55,3.51-1.02v-9.07h-9.49v-9.7h20.52v26.35c-2.44,1.26-5.28,2.3-8.54,3.09Z"/>
      <path class="cls-1" d="M1850.07,430.55v-49.76h12.09v49.76h-12.09Z"/>
      <path class="cls-1" d="M1953.24,430.55l-20.03-32.54h-.21l.28,32.54h-11.67v-49.76h13.71l19.96,32.47h.21l-.28-32.47h11.67v49.76h-13.63Z"/>
      <path class="cls-1" d="M2061.99,430.62c-3.26.8-6.81,1.19-10.65,1.19s-7.65-.63-11-1.9c-3.35-1.26-6.23-3.04-8.64-5.34-2.41-2.29-4.3-5.05-5.66-8.26-1.36-3.21-2.04-6.78-2.04-10.72s.69-7.59,2.07-10.82c1.38-3.23,3.29-5.98,5.73-8.26,2.44-2.27,5.29-4.02,8.57-5.24,3.28-1.22,6.82-1.83,10.61-1.83s7.59.6,10.96,1.79c3.37,1.19,6.11,2.8,8.22,4.81l-7.59,8.64c-1.17-1.36-2.72-2.47-4.64-3.34-1.92-.87-4.1-1.3-6.54-1.3-2.11,0-4.05.39-5.83,1.16-1.78.77-3.33,1.85-4.64,3.23-1.31,1.38-2.33,3.02-3.06,4.92-.73,1.9-1.09,3.97-1.09,6.22s.33,4.4.98,6.32c.66,1.92,1.63,3.57,2.92,4.96,1.29,1.38,2.88,2.46,4.78,3.23,1.9.77,4.06,1.16,6.5,1.16,1.41,0,2.74-.11,4.01-.32,1.26-.21,2.44-.55,3.51-1.02v-9.07h-9.49v-9.7h20.52v26.35c-2.44,1.26-5.28,2.3-8.54,3.09Z"/>
    </g>
  </g>
</svg>